999
dxflib 3.12.2.0
  0
SECTION
  2
HEADER
  9
$ACADVER
  1
AC1015
  9
$HANDSEED
  5
FFFF
  9
$DIMADEC
 70
0
  9
$DIMASZ
 40
2.5
  9
$DIMAUNIT
 70
0
  9
$DIMAZIN
 70
2
  9
$DIMDEC
 70
4
  9
$DIMEXE
 40
1.25
  9
$DIMEXO
 40
0.625
  9
$DIMGAP
 40
0.625
  9
$DIMLUNIT
 70
2
  9
$DIMSCALE
 40
1.0
  9
$DIMTSZ
 40
0.0
  9
$DIMTXT
 40
2.5
  9
$DIMZIN
 70
8
  9
$DWGCODEPAGE
  3
ANSI_1252
  9
$INSUNITS
 70
4
  9
$LTSCALE
 40
1.0
  9
$MEASUREMENT
 70
1
  9
$PDMODE
 70
0
  9
$PDSIZE
 40
0
  0
ENDSEC
  0
SECTION
  2
TABLES
  0
TABLE
  2
VPORT
  5
8
100
AcDbSymbolTable
 70
1
  0
VPORT
  5
30
100
AcDbSymbolTableRecord
100
AcDbViewportTableRecord
  2
*Active
 70
0
 10
0.0
 20
0.0
 11
1.0
 21
1.0
 12
286.30555555555549
 22
148.5
 13
0.0
 23
0.0
 14
10.0
 24
10.0
 15
10.0
 25
10.0
 16
0.0
 26
0.0
 36
1.0
 17
0.0
 27
0.0
 37
0.0
 40
297.0
 41
1.92798353909465
 42
50.0
 43
0.0
 44
0.0
 50
0.0
 51
0.0
 71
0
 72
100
 73
1
 74
3
 75
1
 76
1
 77
0
 78
0
281
0
 65
1
110
0.0
120
0.0
130
0.0
111
1.0
121
0.0
131
0.0
112
0.0
122
1.0
132
0.0
 79
0
146
0.0
  0
ENDTAB
  0
TABLE
  2
LTYPE
  5
5
100
AcDbSymbolTable
 70
54
  0
LTYPE
  5
16
100
AcDbSymbolTableRecord
100
AcDbLinetypeTableRecord
  2
Continuous
 70
0
  3
Solid line
 72
65
 73
0
 40
0.0
  0
LTYPE
  5
31
100
AcDbSymbolTableRecord
100
AcDbLinetypeTableRecord
  2
DASHDOTX2
 70
0
  3
Dash dot (2x) ____  .  ____  .  ____  .  ___
 72
65
 73
4
 40
50.799999999999997
 49
25.399999999999999
 74
0
 49
-12.699999999999999
 74
0
 49
0.0
 74
0
 49
-12.699999999999999
 74
0
  0
LTYPE
  5
32
100
AcDbSymbolTableRecord
100
AcDbLinetypeTableRecord
  2
ACAD_ISO03W100
 70
0
  3
ISO dash space __    __    __    __    __    __
 72
65
 73
2
 40
30.0
 49
12.0
 74
0
 49
-18.0
 74
0
  0
LTYPE
  5
33
100
AcDbSymbolTableRecord
100
AcDbLinetypeTableRecord
  2
BORDERX2
 70
0
  3
Border (2x) ____  ____  .  ____  ____  .  ___
 72
65
 73
6
 40
88.899999999999991
 49
25.399999999999999
 74
0
 49
-12.699999999999999
 74
0
 49
25.399999999999999
 74
0
 49
-12.699999999999999
 74
0
 49
0.0
 74
0
 49
-12.699999999999999
 74
0
  0
LTYPE
  5
34
100
AcDbSymbolTableRecord
100
AcDbLinetypeTableRecord
  2
ACAD_ISO05W100
 70
0
  3
ISO long-dash double-dot ____ .. ____ .. ____ . 
 72
65
 73
6
 40
33.0
 49
24.0
 74
0
 49
-3.0
 74
0
 49
0.0
 74
0
 49
-3.0
 74
0
 49
0.0
 74
0
 49
-3.0
 74
0
  0
LTYPE
  5
35
100
AcDbSymbolTableRecord
100
AcDbLinetypeTableRecord
  2
FENCELINE2
 70
0
  3
Fenceline square ----[]-----[]----[]-----[]----[]---
 72
65
 73
4
 40
36.829999999999998
 49
6.3499999999999996
 74
0
 49
-2.54
 74
0
 49
-2.54
 74
0
 49
25.399999999999999
 74
0
  0
LTYPE
  5
36
100
AcDbSymbolTableRecord
100
AcDbLinetypeTableRecord
  2
ACAD_ISO07W100
 70
0
  3
ISO dot . . . . . . . . . . . . . . . . . . . . 
 72
65
 73
2
 40
3.0
 49
0.0
 74
0
 49
-3.0
 74
0
  0
LTYPE
  5
37
100
AcDbSymbolTableRecord
100
AcDbLinetypeTableRecord
  2
ACAD_ISO10W100
 70
0
  3
ISO dash dot __ . __ . __ . __ . __ . __ . __ . 
 72
65
 73
4
 40
18.0
 49
12.0
 74
0
 49
-3.0
 74
0
 49
0.0
 74
0
 49
-3.0
 74
0
  0
LTYPE
  5
38
100
AcDbSymbolTableRecord
100
AcDbLinetypeTableRecord
  2
DIVIDE
 70
0
  3
Divide ____ . . ____ . . ____ . . ____ . . ____
 72
65
 73
6
 40
31.75
 49
12.699999999999999
 74
0
 49
-6.3499999999999996
 74
0
 49
0.0
 74
0
 49
-6.3499999999999996
 74
0
 49
0.0
 74
0
 49
-6.3499999999999996
 74
0
  0
LTYPE
  5
39
100
AcDbSymbolTableRecord
100
AcDbLinetypeTableRecord
  2
ACAD_ISO15W100
 70
0
  3
ISO double-dash triple-dot __ __ . . . __ __ . .
 72
65
 73
10
 40
39.0
 49
12.0
 74
0
 49
-3.0
 74
0
 49
12.0
 74
0
 49
-3.0
 74
0
 49
0.0
 74
0
 49
-3.0
 74
0
 49
0.0
 74
0
 49
-3.0
 74
0
 49
0.0
 74
0
 49
-3.0
 74
0
  0
LTYPE
  5
3A
100
AcDbSymbolTableRecord
100
AcDbLinetypeTableRecord
  2
ACAD_ISO04W100
 70
0
  3
ISO long-dash dot ____ . ____ . ____ . ____ . _
 72
65
 73
4
 40
30.0
 49
24.0
 74
0
 49
-3.0
 74
0
 49
0.0
 74
0
 49
-3.0
 74
0
  0
LTYPE
  5
3B
100
AcDbSymbolTableRecord
100
AcDbLinetypeTableRecord
  2
DASHED
 70
0
  3
Dashed __ __ __ __ __ __ __ __ __ __ __ __ __ _
 72
65
 73
2
 40
19.049999999999997
 49
12.699999999999999
 74
0
 49
-6.3499999999999996
 74
0
  0
LTYPE
  5
3C
100
AcDbSymbolTableRecord
100
AcDbLinetypeTableRecord
  2
ACAD_ISO09W100
 70
0
  3
ISO long-dash double-short-dash ____ __ __ ____
 72
65
 73
6
 40
45.0
 49
24.0
 74
0
 49
-3.0
 74
0
 49
6.0
 74
0
 49
-3.0
 74
0
 49
6.0
 74
0
 49
-3.0
 74
0
  0
LTYPE
  5
3D
100
AcDbSymbolTableRecord
100
AcDbLinetypeTableRecord
  2
HIDDENX2
 70
0
  3
Hidden (2x) ____ ____ ____ ____ ____ ____ ____ 
 72
65
 73
2
 40
19.049999999999997
 49
12.699999999999999
 74
0
 49
-6.3499999999999996
 74
0
  0
LTYPE
  5
3E
100
AcDbSymbolTableRecord
100
AcDbLinetypeTableRecord
  2
CENTER
 70
0
  3
Center ____ _ ____ _ ____ _ ____ _ ____ _ ____
 72
65
 73
4
 40
50.800000000000004
 49
31.75
 74
0
 49
-6.3499999999999996
 74
0
 49
6.3499999999999996
 74
0
 49
-6.3499999999999996
 74
0
  0
LTYPE
  5
3F
100
AcDbSymbolTableRecord
100
AcDbLinetypeTableRecord
  2
DIVIDE2
 70
0
  3
Divide (.5x) __..__..__..__..__..__..__..__.._
 72
65
 73
6
 40
15.875
 49
6.3499999999999996
 74
0
 49
-3.1749999999999998
 74
0
 49
0.0
 74
0
 49
-3.1749999999999998
 74
0
 49
0.0
 74
0
 49
-3.1749999999999998
 74
0
  0
LTYPE
  5
40
100
AcDbSymbolTableRecord
100
AcDbLinetypeTableRecord
  2
DOT
 70
0
  3
Dot . . . . . . . . . . . . . . . . . . . . . . . .
 72
65
 73
2
 40
6.3499999999999996
 49
0.0
 74
0
 49
-6.3499999999999996
 74
0
  0
LTYPE
  5
41
100
AcDbSymbolTableRecord
100
AcDbLinetypeTableRecord
  2
DRAINAGE
 70
0
  3
Drainage ---->---->---->----
 72
65
 73
2
 40
10.16
 49
5.0800000000000001
 74
0
 49
5.0800000000000001
 74
0
  0
LTYPE
  5
42
100
AcDbSymbolTableRecord
100
AcDbLinetypeTableRecord
  2
CUTRIGHT2
 70
0
  3
G42 reversed----\----\----\----
 72
65
 73
2
 40
10.16
 49
5.0800000000000001
 74
0
 49
5.0800000000000001
 74
0
  0
LTYPE
  5
43
100
AcDbSymbolTableRecord
100
AcDbLinetypeTableRecord
  2
FENCELINE1
 70
0
  3
Fenceline circle ----0-----0----0-----0----0-----0--
 72
65
 73
4
 40
36.829999999999998
 49
6.3499999999999996
 74
0
 49
-2.54
 74
0
 49
-2.54
 74
0
 49
25.399999999999999
 74
0
  0
LTYPE
  5
44
100
AcDbSymbolTableRecord
100
AcDbLinetypeTableRecord
  2
CENTERX2
 70
0
  3
Center (2x) ________  __  ________  __  _____
 72
65
 73
4
 40
101.60000000000001
 49
63.5
 74
0
 49
-12.699999999999999
 74
0
 49
12.699999999999999
 74
0
 49
-12.699999999999999
 74
0
  0
LTYPE
  5
45
100
AcDbSymbolTableRecord
100
AcDbLinetypeTableRecord
  2
DASHDOT2
 70
0
  3
Dash dot (.5x) _._._._._._._._._._._._._._._.
 72
65
 73
4
 40
12.699999999999999
 49
6.3499999999999996
 74
0
 49
-3.1749999999999998
 74
0
 49
0.0
 74
0
 49
-3.1749999999999998
 74
0
  0
LTYPE
  5
46
100
AcDbSymbolTableRecord
100
AcDbLinetypeTableRecord
  2
ACAD_ISO12W100
 70
0
  3
ISO dash double-dot __ . . __ . . __ . . __ . . 
 72
65
 73
6
 40
21.0
 49
12.0
 74
0
 49
-3.0
 74
0
 49
0.0
 74
0
 49
-3.0
 74
0
 49
0.0
 74
0
 49
-3.0
 74
0
  0
LTYPE
  5
47
100
AcDbSymbolTableRecord
100
AcDbLinetypeTableRecord
  2
ACAD_ISO06W100
 70
0
  3
ISO long-dash triple-dot ____ ... ____ ... ____
 72
65
 73
8
 40
36.0
 49
24.0
 74
0
 49
-3.0
 74
0
 49
0.0
 74
0
 49
-3.0
 74
0
 49
0.0
 74
0
 49
-3.0
 74
0
 49
0.0
 74
0
 49
-3.0
 74
0
  0
LTYPE
  5
48
100
AcDbSymbolTableRecord
100
AcDbLinetypeTableRecord
  2
CUTLEFT
 70
0
  3
G41 ----\----\----\----
 72
65
 73
2
 40
10.16
 49
5.0800000000000001
 74
0
 49
5.0800000000000001
 74
0
  0
LTYPE
  5
49
100
AcDbSymbolTableRecord
100
AcDbLinetypeTableRecord
  2
DASHEDX2
 70
0
  3
Dashed (2x) ____  ____  ____  ____  ____  ___
 72
65
 73
2
 40
38.099999999999994
 49
25.399999999999999
 74
0
 49
-12.699999999999999
 74
0
  0
LTYPE
  5
4A
100
AcDbSymbolTableRecord
100
AcDbLinetypeTableRecord
  2
DOTX2
 70
0
  3
Dot (2x) .  .  .  .  .  .  .  .  .  .  .  .  .  .
 72
65
 73
2
 40
12.699999999999999
 49
0.0
 74
0
 49
-12.699999999999999
 74
0
  0
LTYPE
  5
4B
100
AcDbSymbolTableRecord
100
AcDbLinetypeTableRecord
  2
BATTING
 70
0
  3
Batting SSSSSSSSSSSSSSSSSSSSSSSSSSSSSSSSSSSSSSSSSSSSSSS
 72
65
 73
4
 40
10.16254
 49
0.00254
 74
0
 49
-2.54
 74
0
 49
-5.0800000000000001
 74
0
 49
-2.54
 74
0
  0
LTYPE
  5
4C
100
AcDbSymbolTableRecord
100
AcDbLinetypeTableRecord
  2
DASHDOT
 70
0
  3
Dash dot __ . __ . __ . __ . __ . __ . __ . __
 72
65
 73
4
 40
25.399999999999999
 49
12.699999999999999
 74
0
 49
-6.3499999999999996
 74
0
 49
0.0
 74
0
 49
-6.3499999999999996
 74
0
  0
LTYPE
  5
4D
100
AcDbSymbolTableRecord
100
AcDbLinetypeTableRecord
  2
GAS_LINE
 70
0
  3
Gas line ----GAS----GAS----GAS----GAS----GAS----GAS--
 72
65
 73
3
 40
24.130000000000003
 49
12.699999999999999
 74
0
 49
-5.0800000000000001
 74
0
 49
-6.3499999999999996
 74
0
  0
LTYPE
  5
4E
100
AcDbSymbolTableRecord
100
AcDbLinetypeTableRecord
  2
ACAD_ISO08W100
 70
0
  3
ISO long-dash short-dash ____ __ ____ __ ____ _
 72
65
 73
4
 40
36.0
 49
24.0
 74
0
 49
-3.0
 74
0
 49
6.0
 74
0
 49
-3.0
 74
0
  0
LTYPE
  5
4F
100
AcDbSymbolTableRecord
100
AcDbLinetypeTableRecord
  2
CUTLEFT2
 70
0
  3
G41 reversed----/----/----/----
 72
65
 73
2
 40
10.16
 49
5.0800000000000001
 74
0
 49
5.0800000000000001
 74
0
  0
LTYPE
  5
15
100
AcDbSymbolTableRecord
100
AcDbLinetypeTableRecord
  2
BYLAYER
 70
0
  3

 72
65
 73
0
 40
0.0
  0
LTYPE
  5
50
100
AcDbSymbolTableRecord
100
AcDbLinetypeTableRecord
  2
PHANTOMX2
 70
0
  3
Phantom (2x) ____________    ____    ____   _
 72
65
 73
6
 40
127.00000000000001
 49
63.5
 74
0
 49
-12.699999999999999
 74
0
 49
12.699999999999999
 74
0
 49
-12.699999999999999
 74
0
 49
12.699999999999999
 74
0
 49
-12.699999999999999
 74
0
  0
LTYPE
  5
51
100
AcDbSymbolTableRecord
100
AcDbLinetypeTableRecord
  2
ACAD_ISO11W100
 70
0
  3
ISO double-dash dot __ __ . __ __ . __ __ . __ _
 72
65
 73
6
 40
33.0
 49
12.0
 74
0
 49
-3.0
 74
0
 49
12.0
 74
0
 49
-3.0
 74
0
 49
0.0
 74
0
 49
-3.0
 74
0
  0
LTYPE
  5
52
100
AcDbSymbolTableRecord
100
AcDbLinetypeTableRecord
  2
ACAD_ISO13W100
 70
0
  3
ISO double-dash double-dot __ __ . . __ __ . . _
 72
65
 73
8
 40
36.0
 49
12.0
 74
0
 49
-3.0
 74
0
 49
12.0
 74
0
 49
-3.0
 74
0
 49
0.0
 74
0
 49
-3.0
 74
0
 49
0.0
 74
0
 49
-3.0
 74
0
  0
LTYPE
  5
53
100
AcDbSymbolTableRecord
100
AcDbLinetypeTableRecord
  2
BORDER2
 70
0
  3
Border (.5x) __.__.__.__.__.__.__.__.__.__.__.
 72
65
 73
6
 40
22.224999999999998
 49
6.3499999999999996
 74
0
 49
-3.1749999999999998
 74
0
 49
6.3499999999999996
 74
0
 49
-3.1749999999999998
 74
0
 49
0.0
 74
0
 49
-3.1749999999999998
 74
0
  0
LTYPE
  5
54
100
AcDbSymbolTableRecord
100
AcDbLinetypeTableRecord
  2
CUTRIGHT
 70
0
  3
G42 ----/----/-----/---
 72
65
 73
2
 40
10.16
 49
5.0800000000000001
 74
0
 49
5.0800000000000001
 74
0
  0
LTYPE
  5
14
100
AcDbSymbolTableRecord
100
AcDbLinetypeTableRecord
  2
BYBLOCK
 70
0
  3

 72
65
 73
0
 40
0.0
  0
LTYPE
  5
55
100
AcDbSymbolTableRecord
100
AcDbLinetypeTableRecord
  2
ZIGZAG
 70
0
  3
Zig zag /\/\/\/\/\/\/\/\/\/\/\/\/\/\/\/\/\/\/\/\/\/\/\/
 72
65
 73
4
 40
20.32254
 49
0.00254
 74
0
 49
-5.0800000000000001
 74
0
 49
-10.16
 74
0
 49
-5.0800000000000001
 74
0
  0
LTYPE
  5
56
100
AcDbSymbolTableRecord
100
AcDbLinetypeTableRecord
  2
DOT2
 70
0
  3
Dot (.5x) ........................................
 72
65
 73
2
 40
3.1749999999999998
 49
0.0
 74
0
 49
-3.1749999999999998
 74
0
  0
LTYPE
  5
57
100
AcDbSymbolTableRecord
100
AcDbLinetypeTableRecord
  2
PHANTOM
 70
0
  3
Phantom ______  __  __  ______  __  __  ______ 
 72
65
 73
6
 40
63.500000000000007
 49
31.75
 74
0
 49
-6.3499999999999996
 74
0
 49
6.3499999999999996
 74
0
 49
-6.3499999999999996
 74
0
 49
6.3499999999999996
 74
0
 49
-6.3499999999999996
 74
0
  0
LTYPE
  5
58
100
AcDbSymbolTableRecord
100
AcDbLinetypeTableRecord
  2
ACAD_ISO02W100
 70
0
  3
ISO dash __ __ __ __ __ __ __ __ __ __ __ __ __
 72
65
 73
2
 40
15.0
 49
12.0
 74
0
 49
-3.0
 74
0
  0
LTYPE
  5
59
100
AcDbSymbolTableRecord
100
AcDbLinetypeTableRecord
  2
CENTER2
 70
0
  3
Center (.5x) ___ _ ___ _ ___ _ ___ _ ___ _ ___
 72
65
 73
4
 40
28.575000000000003
 49
19.050000000000001
 74
0
 49
-3.1749999999999998
 74
0
 49
3.1749999999999998
 74
0
 49
-3.1749999999999998
 74
0
  0
LTYPE
  5
5A
100
AcDbSymbolTableRecord
100
AcDbLinetypeTableRecord
  2
DASHED2
 70
0
  3
Dashed (.5x) _ _ _ _ _ _ _ _ _ _ _ _ _ _ _ _ _ 
 72
65
 73
2
 40
9.5249999999999986
 49
6.3499999999999996
 74
0
 49
-3.1749999999999998
 74
0
  0
LTYPE
  5
5B
100
AcDbSymbolTableRecord
100
AcDbLinetypeTableRecord
  2
DRAINAGE2
 70
0
  3
Drainage reversed----<----<----<----
 72
65
 73
2
 40
10.16
 49
5.0800000000000001
 74
0
 49
5.0800000000000001
 74
0
  0
LTYPE
  5
5C
100
AcDbSymbolTableRecord
100
AcDbLinetypeTableRecord
  2
TRACKS
 70
0
  3
Tracks -|-|-|-|-|-|-|-|-|-|-|-|-|-|-|-|-|-|-|-|-|-|-|-|-
 72
65
 73
2
 40
7.6200000000000001
 49
3.8100000000000001
 74
0
 49
3.8100000000000001
 74
0
  0
LTYPE
  5
5D
100
AcDbSymbolTableRecord
100
AcDbLinetypeTableRecord
  2
PHANTOM2
 70
0
  3
Phantom (.5x) ___ _ _ ___ _ _ ___ _ _ ___ _ _
 72
65
 73
6
 40
31.750000000000004
 49
15.875
 74
0
 49
-3.1749999999999998
 74
0
 49
3.1749999999999998
 74
0
 49
-3.1749999999999998
 74
0
 49
3.1749999999999998
 74
0
 49
-3.1749999999999998
 74
0
  0
LTYPE
  5
5E
100
AcDbSymbolTableRecord
100
AcDbLinetypeTableRecord
  2
HIDDEN2
 70
0
  3
Hidden (.5x) _ _ _ _ _ _ _ _ _ _ _ _ _ _ _ _ _ 
 72
65
 73
2
 40
4.7624999999999993
 49
3.1749999999999998
 74
0
 49
-1.5874999999999999
 74
0
  0
LTYPE
  5
5F
100
AcDbSymbolTableRecord
100
AcDbLinetypeTableRecord
  2
DIVIDEX2
 70
0
  3
Divide (2x) ________  .  .  ________  .  .  _
 72
65
 73
6
 40
63.5
 49
25.399999999999999
 74
0
 49
-12.699999999999999
 74
0
 49
0.0
 74
0
 49
-12.699999999999999
 74
0
 49
0.0
 74
0
 49
-12.699999999999999
 74
0
  0
LTYPE
  5
60
100
AcDbSymbolTableRecord
100
AcDbLinetypeTableRecord
  2
HOT_WATER_SUPPLY
 70
0
  3
Hot water supply ---- HW ---- HW ---- HW ----
 72
65
 73
3
 40
22.859999999999999
 49
12.699999999999999
 74
0
 49
-5.0800000000000001
 74
0
 49
-5.0800000000000001
 74
0
  0
LTYPE
  5
61
100
AcDbSymbolTableRecord
100
AcDbLinetypeTableRecord
  2
BORDER
 70
0
  3
Border __ __ . __ __ . __ __ . __ __ . __ __ .
 72
65
 73
6
 40
44.449999999999996
 49
12.699999999999999
 74
0
 49
-6.3499999999999996
 74
0
 49
12.699999999999999
 74
0
 49
-6.3499999999999996
 74
0
 49
0.0
 74
0
 49
-6.3499999999999996
 74
0
  0
LTYPE
  5
62
100
AcDbSymbolTableRecord
100
AcDbLinetypeTableRecord
  2
ACAD_ISO14W100
 70
0
  3
ISO dash triple-dot __ . . . __ . . . __ . . . _
 72
65
 73
8
 40
24.0
 49
12.0
 74
0
 49
-3.0
 74
0
 49
0.0
 74
0
 49
-3.0
 74
0
 49
0.0
 74
0
 49
-3.0
 74
0
 49
0.0
 74
0
 49
-3.0
 74
0
  0
LTYPE
  5
63
100
AcDbSymbolTableRecord
100
AcDbLinetypeTableRecord
  2
HIDDEN
 70
0
  3
Hidden __ __ __ __ __ __ __ __ __ __ __ __ __ __
 72
65
 73
2
 40
9.5249999999999986
 49
6.3499999999999996
 74
0
 49
-3.1749999999999998
 74
0
  0
ENDTAB
  0
TABLE
  2
LAYER
  5
2
100
AcDbSymbolTable
 70
1
  0
LAYER
  5
10
100
AcDbSymbolTableRecord
100
AcDbLayerTableRecord
  2
0
 70
0
 62
7
420
16777215
  6
Continuous
370
25
390
F
  0
ENDTAB
  0
TABLE
  2
STYLE
  5
3
100
AcDbSymbolTable
 70
1
  0
STYLE
  5
64
100
AcDbSymbolTableRecord
100
AcDbTextStyleTableRecord
  2
Standard
 70
0
 40
0.0
 41
1.0
 50
0.0
 71
0
 42
2.5
  3

  4

1001
ACAD
1000
txt
1071
0
  0
ENDTAB
  0
TABLE
  2
VIEW
  5
6
100
AcDbSymbolTable
 70
0
  0
ENDTAB
  0
TABLE
  2
UCS
  5
7
100
AcDbSymbolTable
 70
0
  0
ENDTAB
  0
TABLE
  2
APPID
  5
9
100
AcDbSymbolTable
 70
1
  0
APPID
  5
12
100
AcDbSymbolTableRecord
100
AcDbRegAppTableRecord
  2
ACAD
 70
0
  0
APPID
  5
65
100
AcDbSymbolTableRecord
100
AcDbRegAppTableRecord
  2
QCAD
 70
0
  0
ENDTAB
  0
TABLE
  2
DIMSTYLE
  5
A
100
AcDbSymbolTable
 70
1
100
AcDbDimStyleTable
 71
0
  0
DIMSTYLE
105
27
100
AcDbSymbolTableRecord
100
AcDbDimStyleTableRecord
  2
Standard
 41
2.5
 42
0.625
 43
3.75
 44
1.25
 70
0
 73
0
 74
0
 77
1
 78
8
140
2.5
141
2.5
143
0.03937007874016
147
0.625
171
3
172
1
271
2
272
2
274
3
278
44
283
0
284
8
340
64
  0
ENDTAB
  0
TABLE
  2
BLOCK_RECORD
  5
1
100
AcDbSymbolTable
 70
1
  0
BLOCK_RECORD
  5
1F
100
AcDbSymbolTableRecord
100
AcDbBlockTableRecord
  2
*Model_Space
340
22
  0
BLOCK_RECORD
  5
1B
100
AcDbSymbolTableRecord
100
AcDbBlockTableRecord
  2
*Paper_Space
340
1E
  0
BLOCK_RECORD
  5
23
100
AcDbSymbolTableRecord
100
AcDbBlockTableRecord
  2
*Paper_Space0
340
26
  0
ENDTAB
  0
ENDSEC
  0
SECTION
  2
BLOCKS
  0
BLOCK
  5
20
100
AcDbEntity
  8
0
100
AcDbBlockBegin
  2
*Model_Space
 70
0
 10
0.0
 20
0.0
 30
0.0
  3
*Model_Space
  1

  0
ENDBLK
  5
21
100
AcDbEntity
  8
0
100
AcDbBlockEnd
  0
BLOCK
  5
1C
100
AcDbEntity
 67
1
  8
0
100
AcDbBlockBegin
  2
*Paper_Space
 70
0
 10
0.0
 20
0.0
 30
0.0
  3
*Paper_Space
  1

  0
ENDBLK
  5
1D
100
AcDbEntity
 67
1
  8
0
100
AcDbBlockEnd
  0
BLOCK
  5
24
100
AcDbEntity
  8
0
100
AcDbBlockBegin
  2
*Paper_Space0
 70
0
 10
0.0
 20
0.0
 30
0.0
  3
*Paper_Space0
  1

  0
ENDBLK
  5
25
100
AcDbEntity
  8
0
100
AcDbBlockEnd
  0
ENDSEC
  0
SECTION
  2
ENTITIES
  0
LWPOLYLINE
  5
66
  8
0
 62
256
370
-1
 48
1.0
  6
BYLAYER
100
AcDbEntity
100
AcDbPolyline
 90
4
 70
1
 10
34.805734325391754
 20
-167.60497671845928
 30
0.0
 10
34.805734325391882
 20
-165.10497671845926
 30
0.0
 10
39.60573432539136
 20
-165.10497671845928
 30
0.0
 10
39.605734325391417
 20
-167.60497671845928
 30
0.0
  0
LWPOLYLINE
  5
67
  8
0
 62
256
370
-1
 48
1.0
  6
BYLAYER
100
AcDbEntity
100
AcDbPolyline
 90
4
 70
1
 10
34.805734325392244
 20
-139.60497671845926
 30
0.0
 10
34.805734325392336
 20
-137.10497671845923
 30
0.0
 10
39.60573432539217
 20
-137.10497671845926
 30
0.0
 10
39.605734325392071
 20
-139.60497671845926
 30
0.0
  0
LWPOLYLINE
  5
68
  8
0
 62
256
370
-1
 48
1.0
  6
BYLAYER
100
AcDbEntity
100
AcDbPolyline
 90
4
 70
1
 10
34.85573432539217
 20
70.63252328154077
 30
0.0
 10
34.855734325392184
 20
73.13252328154077
 30
0.0
 10
39.655734325391514
 20
73.13252328154077
 30
0.0
 10
39.655734325391499
 20
70.63252328154077
 30
0.0
  0
LWPOLYLINE
  5
69
  8
0
 62
256
370
-1
 48
1.0
  6
BYLAYER
100
AcDbEntity
100
AcDbPolyline
 90
4
 70
1
 10
15.80573432539221
 20
75.395023281540816
 30
0.0
 10
15.805734325392157
 20
77.89502328154083
 30
0.0
 10
20.60573432539146
 20
77.89502328154083
 30
0.0
 10
20.605734325391531
 20
75.395023281540816
 30
0.0
  0
LWPOLYLINE
  5
6A
  8
0
 62
256
370
-1
 48
1.0
  6
BYLAYER
100
AcDbEntity
100
AcDbPolyline
 90
4
 70
1
 10
-22.294265674607839
 20
77.776273281540796
 30
0.0
 10
-22.294265674607825
 20
80.276273281540796
 30
0.0
 10
-17.494265674608506
 20
80.276273281540796
 30
0.0
 10
-17.494265674608538
 20
77.776273281540796
 30
0.0
  0
LWPOLYLINE
  5
6B
  8
0
 62
256
370
-1
 48
1.0
  6
BYLAYER
100
AcDbEntity
100
AcDbPolyline
 90
4
 70
1
 10
34.855734325392703
 20
98.632523281540756
 30
0.0
 10
34.855734325392618
 20
101.13252328154067
 30
0.0
 10
39.655734325392295
 20
101.13252328154067
 30
0.0
 10
39.655734325392295
 20
98.63252328154077
 30
0.0
  0
LWPOLYLINE
  5
6C
  8
0
 62
256
370
-1
 48
1.0
  6
BYLAYER
100
AcDbEntity
100
AcDbPolyline
 90
4
 70
1
 10
15.805734325392663
 20
103.39502328154083
 30
0.0
 10
15.805734325392759
 20
105.8950232815407
 30
0.0
 10
20.605734325392316
 20
105.8950232815407
 30
0.0
 10
20.605734325392369
 20
103.39502328154082
 30
0.0
  0
LWPOLYLINE
  5
6D
  8
0
 62
256
370
-1
 48
1.0
  6
BYLAYER
100
AcDbEntity
100
AcDbPolyline
 90
4
 70
1
 10
-22.294265674607328
 20
105.7762732815408
 30
0.0
 10
-22.294265674607356
 20
108.27627328154068
 30
0.0
 10
-17.49426567460775
 20
108.27627328154068
 30
0.0
 10
-17.494265674607682
 20
105.7762732815408
 30
0.0
  0
LINE
  5
6E
100
AcDbEntity
100
AcDbLine
  8
0
 62
256
370
-1
 48
1.0
  6
BYLAYER
 10
-58.05676556396125
 20
-134.25497671845923
 30
0.0
 11
-58.056765563961235
 21
-118.15391671845921
 31
0.0
  0
LINE
  5
6F
100
AcDbEntity
100
AcDbLine
  8
0
 62
256
370
-1
 48
1.0
  6
BYLAYER
 10
-41.955705563961168
 20
-134.25497671845923
 30
0.0
 11
-41.955705563961224
 21
-118.15391671845923
 31
0.0
  0
LINE
  5
70
100
AcDbEntity
100
AcDbLine
  8
0
 62
256
370
-1
 48
1.0
  6
BYLAYER
 10
-58.05676556396125
 20
-134.25497671845923
 30
0.0
 11
-41.955705563961168
 21
-134.25497671845923
 31
0.0
  0
LINE
  5
71
100
AcDbEntity
100
AcDbLine
  8
0
 62
256
370
-1
 48
1.0
  6
BYLAYER
 10
-58.056765563961235
 20
-118.15391671845921
 30
0.0
 11
-41.955705563961224
 21
-118.15391671845923
 31
0.0
  0
LINE
  5
72
100
AcDbEntity
100
AcDbLine
  8
0
 62
256
370
-1
 48
1.0
  6
BYLAYER
 10
-58.056765563961264
 20
-115.20497671845919
 30
0.0
 11
-58.056765563961214
 21
-99.103916718459232
 31
0.0
  0
LINE
  5
73
100
AcDbEntity
100
AcDbLine
  8
0
 62
256
370
-1
 48
1.0
  6
BYLAYER
 10
-41.955705563961288
 20
-115.20497671845919
 30
0.0
 11
-41.955705563961267
 21
-99.103916718459217
 31
0.0
  0
LINE
  5
74
100
AcDbEntity
100
AcDbLine
  8
0
 62
256
370
-1
 48
1.0
  6
BYLAYER
 10
-58.056765563961264
 20
-115.20497671845919
 30
0.0
 11
-41.955705563961288
 21
-115.20497671845919
 31
0.0
  0
LINE
  5
75
100
AcDbEntity
100
AcDbLine
  8
0
 62
256
370
-1
 48
1.0
  6
BYLAYER
 10
-58.056765563961214
 20
-99.103916718459232
 30
0.0
 11
-41.955705563961267
 21
-99.103916718459217
 31
0.0
  0
LINE
  5
76
100
AcDbEntity
100
AcDbLine
  8
0
 62
256
370
-1
 48
1.0
  6
BYLAYER
 10
-58.056765563961171
 20
-96.154976718459267
 30
0.0
 11
-58.056765563961235
 21
-80.053916718459234
 31
0.0
  0
CIRCLE
  5
77
100
AcDbEntity
100
AcDbCircle
  8
0
 62
256
370
-1
 48
1.0
  6
BYLAYER
 10
63.02876248869854
 20
-159.99853421099928
 30
0.0
 40
1.7499999999996012
  0
LINE
  5
78
100
AcDbEntity
100
AcDbLine
  8
0
 62
256
370
-1
 48
1.0
  6
BYLAYER
 10
-41.955705563961246
 20
-96.154976718459238
 30
0.0
 11
-41.955705563961253
 21
-80.05391671845922
 31
0.0
  0
CIRCLE
  5
79
100
AcDbEntity
100
AcDbCircle
  8
0
 62
256
370
-1
 48
1.0
  6
BYLAYER
 10
63.028762488698575
 20
-79.998534211319253
 30
0.0
 40
1.7499999999999618
  0
LINE
  5
7A
100
AcDbEntity
100
AcDbLine
  8
0
 62
256
370
-1
 48
1.0
  6
BYLAYER
 10
-58.056765563961171
 20
-96.154976718459267
 30
0.0
 11
-41.955705563961246
 21
-96.154976718459238
 31
0.0
  0
CIRCLE
  5
7B
100
AcDbEntity
100
AcDbCircle
  8
0
 62
256
370
-1
 48
1.0
  6
BYLAYER
 10
63.028762488698604
 20
0.0014657883607872
 30
0.0
 40
1.7499999999996012
  0
LINE
  5
7C
100
AcDbEntity
100
AcDbLine
  8
0
 62
256
370
-1
 48
1.0
  6
BYLAYER
 10
-58.056765563961235
 20
-80.053916718459234
 30
0.0
 11
-41.955705563961253
 21
-80.05391671845922
 31
0.0
  0
CIRCLE
  5
7D
100
AcDbEntity
100
AcDbCircle
  8
0
 62
256
370
-1
 48
1.0
  6
BYLAYER
 10
63.028762488698618
 20
80.001465788040818
 30
0.0
 40
1.7499999999999618
  0
LINE
  5
7E
100
AcDbEntity
100
AcDbLine
  8
0
 62
256
370
-1
 48
1.0
  6
BYLAYER
 10
-58.056765563961228
 20
-77.104976718459241
 30
0.0
 11
-58.056765563961235
 21
-61.003916718459237
 31
0.0
  0
CIRCLE
  5
7F
100
AcDbEntity
100
AcDbCircle
  8
0
 62
256
370
-1
 48
1.0
  6
BYLAYER
 10
63.028762488698639
 20
160.00146578772092
 30
0.0
 40
1.7499999999999618
  0
LINE
  5
80
100
AcDbEntity
100
AcDbLine
  8
0
 62
256
370
-1
 48
1.0
  6
BYLAYER
 10
-41.95570556396126
 20
-77.104976718459213
 30
0.0
 11
-41.955705563961217
 21
-61.003916718459244
 31
0.0
  0
CIRCLE
  5
81
100
AcDbEntity
100
AcDbCircle
  8
0
 62
256
370
-1
 48
1.0
  6
BYLAYER
 10
-63.031237511701462
 20
160.00146578772092
 30
0.0
 40
1.7500000000003229
  0
LINE
  5
82
100
AcDbEntity
100
AcDbLine
  8
0
 62
256
370
-1
 48
1.0
  6
BYLAYER
 10
-58.056765563961228
 20
-77.104976718459241
 30
0.0
 11
-41.95570556396126
 21
-77.104976718459213
 31
0.0
  0
CIRCLE
  5
83
100
AcDbEntity
100
AcDbCircle
  8
0
 62
256
370
-1
 48
1.0
  6
BYLAYER
 10
-63.031237511701462
 20
80.001465788040832
 30
0.0
 40
1.7499999999999618
  0
LINE
  5
84
100
AcDbEntity
100
AcDbLine
  8
0
 62
256
370
-1
 48
1.0
  6
BYLAYER
 10
-58.056765563961235
 20
-61.003916718459237
 30
0.0
 11
-41.955705563961217
 21
-61.003916718459244
 31
0.0
  0
CIRCLE
  5
85
100
AcDbEntity
100
AcDbCircle
  8
0
 62
256
370
-1
 48
1.0
  6
BYLAYER
 10
-63.031237511701477
 20
0.001465788360816
 30
0.0
 40
1.7499999999999618
  0
LINE
  5
86
100
AcDbEntity
100
AcDbLine
  8
0
 62
256
370
-1
 48
1.0
  6
BYLAYER
 10
-58.056765563961243
 20
-48.529976718459224
 30
0.0
 11
-58.056765563961235
 21
-32.428916718459249
 31
0.0
  0
CIRCLE
  5
87
100
AcDbEntity
100
AcDbCircle
  8
0
 62
256
370
-1
 48
1.0
  6
BYLAYER
 10
-63.031237511701498
 20
-79.99853421131921
 30
0.0
 40
1.7499999999999618
  0
LINE
  5
88
100
AcDbEntity
100
AcDbLine
  8
0
 62
256
370
-1
 48
1.0
  6
BYLAYER
 10
-41.955705563961239
 20
-48.529976718459231
 30
0.0
 11
-41.955705563961239
 21
-32.428916718459242
 31
0.0
  0
CIRCLE
  5
89
100
AcDbEntity
100
AcDbCircle
  8
0
 62
256
370
-1
 48
1.0
  6
BYLAYER
 10
-63.03123751170147
 20
-159.99853421099925
 30
0.0
 40
1.7500000000003229
  0
LINE
  5
8A
100
AcDbEntity
100
AcDbLine
  8
0
 62
256
370
-1
 48
1.0
  6
BYLAYER
 10
-58.056765563961243
 20
-48.529976718459224
 30
0.0
 11
-41.955705563961239
 21
-48.529976718459231
 31
0.0
  0
CIRCLE
  5
8B
100
AcDbEntity
100
AcDbCircle
  8
0
 62
256
370
-1
 48
1.0
  6
BYLAYER
 10
-50.00626557592134
 20
30.957535725220971
 30
0.0
 40
4.0000000000005356
  0
CIRCLE
  5
8C
100
AcDbEntity
100
AcDbCircle
  8
0
 62
256
370
-1
 48
1.0
  6
BYLAYER
 10
-50.006265575921361
 20
-54.767470378399338
 30
0.0
 40
3.9999999999998117
  0
LINE
  5
8D
100
AcDbEntity
100
AcDbLine
  8
0
 62
256
370
-1
 48
1.0
  6
BYLAYER
 10
-58.056765563961235
 20
-32.428916718459249
 30
0.0
 11
-41.955705563961239
 21
-32.428916718459242
 31
0.0
  0
LINE
  5
8E
100
AcDbEntity
100
AcDbLine
  8
0
 62
256
370
-1
 48
1.0
  6
BYLAYER
 10
-58.05676556396125
 20
-29.47997671845922
 30
0.0
 11
-58.056765563961235
 21
-13.378916718459234
 31
0.0
  0
LINE
  5
8F
100
AcDbEntity
100
AcDbLine
  8
0
 62
256
370
-1
 48
1.0
  6
BYLAYER
 10
-41.955705563961239
 20
-29.479976718459227
 30
0.0
 11
-41.955705563961232
 21
-13.378916718459237
 31
0.0
  0
LINE
  5
90
100
AcDbEntity
100
AcDbLine
  8
0
 62
256
370
-1
 48
1.0
  6
BYLAYER
 10
-58.05676556396125
 20
-29.47997671845922
 30
0.0
 11
-41.955705563961239
 21
-29.479976718459227
 31
0.0
  0
LINE
  5
91
100
AcDbEntity
100
AcDbLine
  8
0
 62
256
370
-1
 48
1.0
  6
BYLAYER
 10
-58.056765563961235
 20
-13.378916718459234
 30
0.0
 11
-41.955705563961232
 21
-13.378916718459237
 31
0.0
  0
LINE
  5
92
100
AcDbEntity
100
AcDbLine
  8
0
 62
256
370
-1
 48
1.0
  6
BYLAYER
 10
-58.056765563961235
 20
-10.429976718459256
 30
0.0
 11
-58.056765563961228
 21
5.6710832815407572
 31
0.0
  0
LINE
  5
93
100
AcDbEntity
100
AcDbLine
  8
0
 62
256
370
-1
 48
1.0
  6
BYLAYER
 10
-41.955705563961239
 20
-10.429976718459233
 30
0.0
 11
-41.955705563961232
 21
5.6710832815407599
 31
0.0
  0
LINE
  5
94
100
AcDbEntity
100
AcDbLine
  8
0
 62
256
370
-1
 48
1.0
  6
BYLAYER
 10
-58.056765563961235
 20
-10.429976718459256
 30
0.0
 11
-41.955705563961239
 21
-10.429976718459233
 31
0.0
  0
LINE
  5
95
100
AcDbEntity
100
AcDbLine
  8
0
 62
256
370
-1
 48
1.0
  6
BYLAYER
 10
-58.056765563961228
 20
5.6710832815407572
 30
0.0
 11
-41.955705563961232
 21
5.6710832815407599
 31
0.0
  0
LINE
  5
96
100
AcDbEntity
100
AcDbLine
  8
0
 62
256
370
-1
 48
1.0
  6
BYLAYER
 10
-58.056765563961235
 20
8.6200232815407762
 30
0.0
 11
-58.056765563961228
 21
24.721083281540771
 31
0.0
  0
LINE
  5
97
100
AcDbEntity
100
AcDbLine
  8
0
 62
256
370
-1
 48
1.0
  6
BYLAYER
 10
-41.955705563961232
 20
8.6200232815407709
 30
0.0
 11
-41.955705563961239
 21
24.721083281540754
 31
0.0
  0
LINE
  5
98
100
AcDbEntity
100
AcDbLine
  8
0
 62
256
370
-1
 48
1.0
  6
BYLAYER
 10
-58.056765563961235
 20
8.6200232815407762
 30
0.0
 11
-41.955705563961232
 21
8.6200232815407709
 31
0.0
  0
LINE
  5
99
100
AcDbEntity
100
AcDbLine
  8
0
 62
256
370
-1
 48
1.0
  6
BYLAYER
 10
-58.056765563961228
 20
24.721083281540771
 30
0.0
 11
-41.955705563961239
 21
24.721083281540754
 31
0.0
  0
LINE
  5
9A
100
AcDbEntity
100
AcDbLine
  8
0
 62
256
370
-1
 48
1.0
  6
BYLAYER
 10
-58.056765563961243
 20
37.195023281540749
 30
0.0
 11
-58.056765563961243
 21
53.296083281540774
 31
0.0
  0
LINE
  5
9B
100
AcDbEntity
100
AcDbLine
  8
0
 62
256
370
-1
 48
1.0
  6
BYLAYER
 10
-41.955705563961217
 20
37.19502328154077
 30
0.0
 11
-41.955705563961217
 21
53.296083281540781
 31
0.0
  0
LINE
  5
9C
100
AcDbEntity
100
AcDbLine
  8
0
 62
256
370
-1
 48
1.0
  6
BYLAYER
 10
-58.056765563961243
 20
37.195023281540749
 30
0.0
 11
-41.955705563961217
 21
37.19502328154077
 31
0.0
  0
LINE
  5
9D
100
AcDbEntity
100
AcDbLine
  8
0
 62
256
370
-1
 48
1.0
  6
BYLAYER
 10
-58.056765563961243
 20
53.296083281540774
 30
0.0
 11
-41.955705563961217
 21
53.296083281540781
 31
0.0
  0
LINE
  5
9E
100
AcDbEntity
100
AcDbLine
  8
0
 62
256
370
-1
 48
1.0
  6
BYLAYER
 10
-58.056765563961228
 20
56.245023281540767
 30
0.0
 11
-58.056765563961257
 21
72.346083281540785
 31
0.0
  0
LINE
  5
9F
100
AcDbEntity
100
AcDbLine
  8
0
 62
256
370
-1
 48
1.0
  6
BYLAYER
 10
-41.955705563961239
 20
56.24502328154076
 30
0.0
 11
-41.955705563961239
 21
72.346083281540785
 31
0.0
  0
LINE
  5
A0
100
AcDbEntity
100
AcDbLine
  8
0
 62
256
370
-1
 48
1.0
  6
BYLAYER
 10
-58.056765563961228
 20
56.245023281540767
 30
0.0
 11
-41.955705563961239
 21
56.24502328154076
 31
0.0
  0
LINE
  5
A1
100
AcDbEntity
100
AcDbLine
  8
0
 62
256
370
-1
 48
1.0
  6
BYLAYER
 10
-58.056765563961257
 20
72.346083281540785
 30
0.0
 11
-41.955705563961239
 21
72.346083281540785
 31
0.0
  0
LINE
  5
A2
100
AcDbEntity
100
AcDbLine
  8
0
 62
256
370
-1
 48
1.0
  6
BYLAYER
 10
-58.056765563961214
 20
75.295023281540765
 30
0.0
 11
-58.05676556396125
 21
91.396083281540768
 31
0.0
  0
LINE
  5
A3
100
AcDbEntity
100
AcDbLine
  8
0
 62
256
370
-1
 48
1.0
  6
BYLAYER
 10
10.917491974643488
 20
141.36446143269495
 30
0.0
 11
10.917322641309863
 21
141.36446143269495
 31
0.0
  0
LINE
  5
A4
100
AcDbEntity
100
AcDbLine
  8
0
 62
256
370
-1
 48
1.0
  6
BYLAYER
 10
-41.955705563961239
 20
75.29502328154075
 30
0.0
 11
-41.955705563961239
 21
91.396083281540768
 31
0.0
  0
LINE
  5
A5
100
AcDbEntity
100
AcDbLine
  8
0
 62
256
370
-1
 48
1.0
  6
BYLAYER
 10
-58.056765563961214
 20
75.295023281540765
 30
0.0
 11
-41.955705563961239
 21
75.29502328154075
 31
0.0
  0
LINE
  5
A6
100
AcDbEntity
100
AcDbLine
  8
0
 62
256
370
-1
 48
1.0
  6
BYLAYER
 10
-58.05676556396125
 20
91.396083281540768
 30
0.0
 11
-41.955705563961239
 21
91.396083281540768
 31
0.0
  0
LINE
  5
A7
100
AcDbEntity
100
AcDbLine
  8
0
 62
256
370
-1
 48
1.0
  6
BYLAYER
 10
-41.955705563961217
 20
94.345023281540762
 30
0.0
 11
-41.955705563961232
 21
110.44608328154078
 31
0.0
  0
LINE
  5
A8
100
AcDbEntity
100
AcDbLine
  8
0
 62
256
370
-1
 48
1.0
  6
BYLAYER
 10
-58.056765563961243
 20
94.345023281540762
 30
0.0
 11
-41.955705563961217
 21
94.345023281540762
 31
0.0
  0
LINE
  5
A9
100
AcDbEntity
100
AcDbLine
  8
0
 62
256
370
-1
 48
1.0
  6
BYLAYER
 10
-41.955705563961196
 20
118.15752328154076
 30
0.0
 11
-41.955705563961267
 21
134.25858328154078
 31
0.0
  0
LINE
  5
AA
100
AcDbEntity
100
AcDbLine
  8
0
 62
256
370
-1
 48
1.0
  6
BYLAYER
 10
-58.056765563961235
 20
134.25858328154081
 30
0.0
 11
-41.955705563961267
 21
134.25858328154078
 31
0.0
  0
LINE
  5
AB
100
AcDbEntity
100
AcDbLine
  8
0
 62
256
370
-1
 48
1.0
  6
BYLAYER
 10
8.3329835883727608
 20
150.8344772315408
 30
0.0
 11
8.3753169217062187
 21
150.8344772315408
 31
0.0
  0
LINE
  5
AC
100
AcDbEntity
100
AcDbLine
  8
0
 62
256
370
-1
 48
1.0
  6
BYLAYER
 10
-58.056765563961186
 20
137.2075232815408
 30
0.0
 11
-58.056765563961207
 21
153.30858328154079
 31
0.0
  0
LINE
  5
AD
100
AcDbEntity
100
AcDbLine
  8
0
 62
256
370
-1
 48
1.0
  6
BYLAYER
 10
8.3753169217062187
 20
150.8344772315408
 30
0.0
 11
14.129012382372855
 21
150.8344772315408
 31
0.0
  0
LINE
  5
AE
100
AcDbEntity
100
AcDbLine
  8
0
 62
256
370
-1
 48
1.0
  6
BYLAYER
 10
-41.955705563961182
 20
137.20752328154077
 30
0.0
 11
-41.955705563961274
 21
153.30858328154079
 31
0.0
  0
LINE
  5
AF
100
AcDbEntity
100
AcDbLine
  8
0
 62
256
370
-1
 48
1.0
  6
BYLAYER
 10
14.129012382372855
 20
150.8344772315408
 30
0.0
 11
10.008292489039517
 21
149.22581056487411
 31
0.0
  0
LINE
  5
B0
100
AcDbEntity
100
AcDbLine
  8
0
 62
256
370
-1
 48
1.0
  6
BYLAYER
 10
-58.056765563961186
 20
137.2075232815408
 30
0.0
 11
-41.955705563961182
 21
137.20752328154077
 31
0.0
  0
LINE
  5
B1
100
AcDbEntity
100
AcDbLine
  8
0
 62
256
370
-1
 48
1.0
  6
BYLAYER
 10
10.008292489039517
 20
149.22581056487411
 30
0.0
 11
11.514432902372931
 21
148.52598807154078
 31
0.0
  0
LINE
  5
B2
100
AcDbEntity
100
AcDbLine
  8
0
 62
256
370
-1
 48
1.0
  6
BYLAYER
 10
-61.281234732821282
 20
154.04518018698062
 30
0.0
 11
-64.78123473306151
 21
156.0659061277409
 31
0.0
  0
LINE
  5
B3
100
AcDbEntity
100
AcDbLine
  8
0
 62
256
370
-1
 48
1.0
  6
BYLAYER
 10
11.514432902372931
 20
148.52598807154078
 30
0.0
 11
16.103631242372906
 21
150.36302359820746
 31
0.0
  0
LINE
  5
B4
100
AcDbEntity
100
AcDbLine
  8
0
 62
256
370
-1
 48
1.0
  6
BYLAYER
 10
-58.056765563961207
 20
153.30858328154079
 30
0.0
 11
-41.955705563961274
 21
153.30858328154079
 31
0.0
  0
LINE
  5
B5
100
AcDbEntity
100
AcDbLine
  8
0
 62
256
370
-1
 48
1.0
  6
BYLAYER
 10
16.103631242372906
 20
150.36302359820746
 30
0.0
 11
16.103631242372948
 21
152.25099035820745
 31
0.0
  0
LINE
  5
B6
100
AcDbEntity
100
AcDbLine
  8
0
 62
256
370
-1
 48
1.0
  6
BYLAYER
 10
-66.031234732421424
 20
158.23096963860075
 30
0.0
 11
-66.031234732421382
 21
161.98655184040084
 31
0.0
  0
LINE
  5
B7
100
AcDbEntity
100
AcDbLine
  8
0
 62
256
370
-1
 48
1.0
  6
BYLAYER
 10
16.103631242372948
 20
152.25099035820745
 30
0.0
 11
8.3329835883731196
 21
152.56088390487412
 31
0.0
  0
LINE
  5
B8
100
AcDbEntity
100
AcDbLine
  8
0
 62
256
370
-1
 48
1.0
  6
BYLAYER
 10
-58.056765563961214
 20
156.25752328154073
 30
0.0
 11
-58.056765563961143
 21
172.35858328154075
 31
0.0
  0
LINE
  5
B9
100
AcDbEntity
100
AcDbLine
  8
0
 62
256
370
-1
 48
1.0
  6
BYLAYER
 10
8.3329835883731196
 20
152.56088390487412
 30
0.0
 11
8.3329835883727608
 21
150.8344772315408
 31
0.0
  0
LINE
  5
BA
100
AcDbEntity
100
AcDbLine
  8
0
 62
256
370
-1
 48
1.0
  6
BYLAYER
 10
-65.018032616081371
 20
163.99638567950063
 30
0.0
 11
-60.949717694561492
 21
167.00596880942066
 31
0.0
  0
LINE
  5
BB
100
AcDbEntity
100
AcDbLine
  8
0
 62
256
370
-1
 48
1.0
  6
BYLAYER
 10
-41.955705563961153
 20
156.25752328154073
 30
0.0
 11
-41.955705563961239
 21
172.35858328154075
 31
0.0
  0
LINE
  5
BC
100
AcDbEntity
100
AcDbLine
  8
0
 62
256
370
-1
 48
1.0
  6
BYLAYER
 10
-59.531234732701286
 20
169.81973618162067
 30
0.0
 11
-59.531234732701364
 21
172.00149170634074
 31
0.0
  0
LINE
  5
BD
100
AcDbEntity
100
AcDbLine
  8
0
 62
256
370
-1
 48
1.0
  6
BYLAYER
 10
-58.056765563961214
 20
156.25752328154073
 30
0.0
 11
-41.955705563961153
 21
156.25752328154073
 31
0.0
  0
LINE
  5
BE
100
AcDbEntity
100
AcDbLine
  8
0
 62
256
370
-1
 48
1.0
  6
BYLAYER
 10
-58.94544829442151
 20
173.41570526856088
 30
0.0
 11
-57.117021168961443
 21
175.24413239402071
 31
0.0
  0
LINE
  5
BF
100
AcDbEntity
100
AcDbLine
  8
0
 62
256
370
-1
 48
1.0
  6
BYLAYER
 10
-58.056765563961143
 20
172.35858328154075
 30
0.0
 11
-41.955705563961239
 21
172.35858328154075
 31
0.0
  0
LINE
  5
C0
100
AcDbEntity
100
AcDbLine
  8
0
 62
256
370
-1
 48
1.0
  6
BYLAYER
 10
-55.702807606741501
 20
175.82991882976074
 30
0.0
 11
3.9820726168576783
 21
175.82991882976074
 31
0.0
  0
LINE
  5
C1
100
AcDbEntity
100
AcDbLine
  8
0
 62
256
370
-1
 48
1.0
  6
BYLAYER
 10
-34.244265563961108
 20
-172.35497671845926
 30
0.0
 11
-34.2442655639612
 21
-156.25391671845924
 31
0.0
  0
LINE
  5
C2
100
AcDbEntity
100
AcDbLine
  8
0
 62
256
370
-1
 48
1.0
  6
BYLAYER
 10
5.1689932071989295
 20
175.41356956848074
 30
0.0
 11
6.5733372539780781
 21
174.29009433004063
 31
0.0
  0
LINE
  5
C3
100
AcDbEntity
100
AcDbLine
  8
0
 62
256
370
-1
 48
1.0
  6
BYLAYER
 10
-18.143205563961075
 20
-172.35497671845923
 30
0.0
 11
-18.143205563961121
 21
-156.25391671845924
 31
0.0
  0
LINE
  5
C4
100
AcDbEntity
100
AcDbLine
  8
0
 62
256
370
-1
 48
1.0
  6
BYLAYER
 10
7.8851940739986413
 20
173.83246578886065
 30
0.0
 11
38.114769837738628
 21
173.83246578886065
 31
0.0
  0
LINE
  5
C5
100
AcDbEntity
100
AcDbLine
  8
0
 62
256
370
-1
 48
1.0
  6
BYLAYER
 10
-34.244265563961108
 20
-172.35497671845926
 30
0.0
 11
-18.143205563961075
 21
-172.35497671845923
 31
0.0
  0
LINE
  5
C6
100
AcDbEntity
100
AcDbLine
  8
0
 62
256
370
-1
 48
1.0
  6
BYLAYER
 10
39.426629436518652
 20
174.29264128710071
 30
0.0
 11
40.830973483298564
 21
175.41611652554079
 31
0.0
  0
LINE
  5
C7
100
AcDbEntity
100
AcDbLine
  8
0
 62
256
370
-1
 48
1.0
  6
BYLAYER
 10
-34.2442655639612
 20
-156.25391671845924
 30
0.0
 11
-18.143205563961121
 21
-156.25391671845924
 31
0.0
  0
LINE
  5
C8
100
AcDbEntity
100
AcDbLine
  8
0
 62
256
370
-1
 48
1.0
  6
BYLAYER
 10
42.017894073638601
 20
175.83246578936087
 30
0.0
 11
55.702774298438491
 21
175.83246578936087
 31
0.0
  0
LINE
  5
C9
100
AcDbEntity
100
AcDbLine
  8
0
 62
256
370
-1
 48
1.0
  6
BYLAYER
 10
-34.244265563961321
 20
-153.30497671845919
 30
0.0
 11
-34.244265563961115
 21
-137.20391671845923
 31
0.0
  0
LINE
  5
CA
100
AcDbEntity
100
AcDbLine
  8
0
 62
256
370
-1
 48
1.0
  6
BYLAYER
 10
7.7088976297061045
 20
137.95522265820745
 30
0.0
 11
16.103631242372757
 21
138.33870254487414
 31
0.0
  0
LINE
  5
CB
100
AcDbEntity
100
AcDbLine
  8
0
 62
256
370
-1
 48
1.0
  6
BYLAYER
 10
57.116987860658476
 20
175.24667935108079
 30
0.0
 11
58.945414986118635
 21
173.41825222562096
 31
0.0
  0
LINE
  5
CC
100
AcDbEntity
100
AcDbLine
  8
0
 62
256
370
-1
 48
1.0
  6
BYLAYER
 10
16.103631242372757
 20
138.33870254487414
 30
0.0
 11
16.103631242372799
 21
140.79420182487411
 31
0.0
  0
LINE
  5
CD
100
AcDbEntity
100
AcDbLine
  8
0
 62
256
370
-1
 48
1.0
  6
BYLAYER
 10
-18.143205563961207
 20
-153.30497671845922
 30
0.0
 11
-18.143205563961178
 21
-137.20391671845923
 31
0.0
  0
LINE
  5
CE
100
AcDbEntity
100
AcDbLine
  8
0
 62
256
370
-1
 48
1.0
  6
BYLAYER
 10
16.103631242372799
 20
140.79420182487411
 30
0.0
 11
10.714398942372892
 21
143.43143556487411
 31
0.0
  0
LINE
  5
CF
100
AcDbEntity
100
AcDbLine
  8
0
 62
256
370
-1
 48
1.0
  6
BYLAYER
 10
59.531201421858555
 20
172.00403866340082
 30
0.0
 11
59.531201421858633
 21
168.98631097268077
 31
0.0
  0
LINE
  5
D0
100
AcDbEntity
100
AcDbLine
  8
0
 62
256
370
-1
 48
1.0
  6
BYLAYER
 10
10.714398942372892
 20
143.43143556487411
 30
0.0
 11
16.103631242372913
 21
143.78101661154079
 31
0.0
  0
LINE
  5
D1
100
AcDbEntity
100
AcDbLine
  8
0
 62
256
370
-1
 48
1.0
  6
BYLAYER
 10
-34.244265563961321
 20
-153.30497671845919
 30
0.0
 11
-18.143205563961207
 21
-153.30497671845922
 31
0.0
  0
LINE
  5
D2
100
AcDbEntity
100
AcDbLine
  8
0
 62
256
370
-1
 48
1.0
  6
BYLAYER
 10
16.103631242372913
 20
143.78101661154079
 30
0.0
 11
16.103631242372877
 21
146.14655671154077
 31
0.0
  0
LINE
  5
D3
100
AcDbEntity
100
AcDbLine
  8
0
 62
256
370
-1
 48
1.0
  6
BYLAYER
 10
61.281201421978608
 20
165.95522205900059
 30
0.0
 11
64.781231953018619
 21
163.93447849064083
 31
0.0
  0
LINE
  5
D4
100
AcDbEntity
100
AcDbLine
  8
0
 62
256
370
-1
 48
1.0
  6
BYLAYER
 10
16.103631242372877
 20
146.14655671154077
 30
0.0
 11
7.7088976297063301
 21
150.22841629820743
 31
0.0
  0
LINE
  5
D5
100
AcDbEntity
100
AcDbLine
  8
0
 62
256
370
-1
 48
1.0
  6
BYLAYER
 10
-34.244265563961115
 20
-137.20391671845923
 30
0.0
 11
-18.143205563961178
 21
-137.20391671845923
 31
0.0
  0
LINE
  5
D6
100
AcDbEntity
100
AcDbLine
  8
0
 62
256
370
-1
 48
1.0
  6
BYLAYER
 10
7.7088976297063301
 20
150.22841629820743
 30
0.0
 11
7.7088976297062732
 21
150.16078202487415
 31
0.0
  0
LINE
  5
D7
100
AcDbEntity
100
AcDbLine
  8
0
 62
256
370
-1
 48
1.0
  6
BYLAYER
 10
66.031231952378732
 20
161.76941497978058
 30
0.0
 11
66.031231952378718
 21
158.2335165956608
 31
0.0
  0
LINE
  5
D8
100
AcDbEntity
100
AcDbLine
  8
0
 62
256
370
-1
 48
1.0
  6
BYLAYER
 10
7.7088976297062732
 20
150.16078202487415
 30
0.0
 11
7.7088976297060121
 21
147.95101504487411
 31
0.0
  0
LINE
  5
D9
100
AcDbEntity
100
AcDbLine
  8
0
 62
256
370
-1
 48
1.0
  6
BYLAYER
 10
-34.2442655639612
 20
-134.25497671845923
 30
0.0
 11
-34.244265563961264
 21
-118.15391671845923
 31
0.0
  0
LINE
  5
DA
100
AcDbEntity
100
AcDbLine
  8
0
 62
256
370
-1
 48
1.0
  6
BYLAYER
 10
7.7088976297060121
 20
147.95101504487411
 30
0.0
 11
13.290118115706006
 21
145.4679008848741
 31
0.0
  0
LINE
  5
DB
100
AcDbEntity
100
AcDbLine
  8
0
 62
256
370
-1
 48
1.0
  6
BYLAYER
 10
64.781231953018661
 20
156.06845308734057
 30
0.0
 11
61.281201421978665
 21
154.04770951898084
 31
0.0
  0
LINE
  5
DC
100
AcDbEntity
100
AcDbLine
  8
0
 62
256
370
-1
 48
1.0
  6
BYLAYER
 10
13.290118115706006
 20
145.4679008848741
 30
0.0
 11
7.7088976297063372
 21
145.22299577820746
 31
0.0
  0
LINE
  5
DD
100
AcDbEntity
100
AcDbLine
  8
0
 62
256
370
-1
 48
1.0
  6
BYLAYER
 10
-18.143205563961171
 20
-134.25497671845923
 30
0.0
 11
-18.143205563961214
 21
-118.15391671845923
 31
0.0
  0
LINE
  5
DE
100
AcDbEntity
100
AcDbLine
  8
0
 62
256
370
-1
 48
1.0
  6
BYLAYER
 10
7.7088976297063372
 20
145.22299577820746
 30
0.0
 11
7.7088976297061471
 21
143.01835536487414
 31
0.0
  0
LINE
  5
DF
100
AcDbEntity
100
AcDbLine
  8
0
 62
256
370
-1
 48
1.0
  6
BYLAYER
 10
59.531201421858633
 20
151.01662060530077
 30
0.0
 11
59.531201421858576
 21
88.986310970460636
 31
0.0
  0
LINE
  5
E0
100
AcDbEntity
100
AcDbLine
  8
0
 62
256
370
-1
 48
1.0
  6
BYLAYER
 10
7.7088976297061471
 20
143.01835536487414
 30
0.0
 11
13.289456869039475
 21
140.29612306487411
 31
0.0
  0
LINE
  5
E1
100
AcDbEntity
100
AcDbLine
  8
0
 62
256
370
-1
 48
1.0
  6
BYLAYER
 10
-34.2442655639612
 20
-134.25497671845923
 30
0.0
 11
-18.143205563961171
 21
-134.25497671845923
 31
0.0
  0
LINE
  5
E2
100
AcDbEntity
100
AcDbLine
  8
0
 62
256
370
-1
 48
1.0
  6
BYLAYER
 10
13.289456869039475
 20
140.29612306487411
 30
0.0
 11
7.7088976297061809
 21
140.27975191820747
 31
0.0
  0
LINE
  5
E3
100
AcDbEntity
100
AcDbLine
  8
0
 62
256
370
-1
 48
1.0
  6
BYLAYER
 10
61.281201421978579
 20
85.955222059320931
 30
0.0
 11
64.78123195301859
 21
83.934478490960714
 31
0.0
  0
LINE
  5
E4
100
AcDbEntity
100
AcDbLine
  8
0
 62
256
370
-1
 48
1.0
  6
BYLAYER
 10
7.7088976297061809
 20
140.27975191820747
 30
0.0
 11
7.7088976297061045
 21
137.95522265820745
 31
0.0
  0
LINE
  5
E5
100
AcDbEntity
100
AcDbLine
  8
0
 62
256
370
-1
 48
1.0
  6
BYLAYER
 10
-34.244265563961264
 20
-118.15391671845923
 30
0.0
 11
-18.143205563961214
 21
-118.15391671845923
 31
0.0
  0
LINE
  5
E6
100
AcDbEntity
100
AcDbLine
  8
0
 62
256
370
-1
 48
1.0
  6
BYLAYER
 10
66.031231952378647
 20
81.769414980100578
 30
0.0
 11
66.031231952378675
 21
78.233516860140782
 31
0.0
  0
LINE
  5
E7
100
AcDbEntity
100
AcDbLine
  8
0
 62
256
370
-1
 48
1.0
  6
BYLAYER
 10
-34.244265563961193
 20
-115.20497671845924
 30
0.0
 11
-34.244265563961221
 21
-99.103916718459232
 31
0.0
  0
LINE
  5
E8
100
AcDbEntity
100
AcDbLine
  8
0
 62
256
370
-1
 48
1.0
  6
BYLAYER
 10
64.781231665998646
 20
76.068453186720916
 30
0.0
 11
61.280097512578635
 21
74.047073058800876
 31
0.0
  0
LINE
  5
E9
100
AcDbEntity
100
AcDbLine
  8
0
 62
256
370
-1
 48
1.0
  6
BYLAYER
 10
-18.143205563961288
 20
-115.20497671845922
 30
0.0
 11
-18.143205563961228
 21
-99.103916718459232
 31
0.0
  0
LINE
  5
EA
100
AcDbEntity
100
AcDbLine
  8
0
 62
256
370
-1
 48
1.0
  6
BYLAYER
 10
59.530097111138524
 20
71.015984376260903
 30
0.0
 11
59.530092607718643
 21
36.986948169800726
 31
0.0
  0
LINE
  5
EB
100
AcDbEntity
100
AcDbLine
  8
0
 62
256
370
-1
 48
1.0
  6
BYLAYER
 10
-34.244265563961193
 20
-115.20497671845924
 30
0.0
 11
-18.143205563961288
 21
-115.20497671845922
 31
0.0
  0
LINE
  5
EC
100
AcDbEntity
100
AcDbLine
  8
0
 62
256
370
-1
 48
1.0
  6
BYLAYER
 10
61.280091680738522
 20
33.953311836780934
 30
0.0
 11
64.781234731778682
 21
31.931925953220709
 31
0.0
  0
LINE
  5
ED
100
AcDbEntity
100
AcDbLine
  8
0
 62
256
370
-1
 48
1.0
  6
BYLAYER
 10
-34.244265563961221
 20
-99.103916718459232
 30
0.0
 11
-18.143205563961228
 21
-99.103916718459232
 31
0.0
  0
LINE
  5
EE
100
AcDbEntity
100
AcDbLine
  8
0
 62
256
370
-1
 48
1.0
  6
BYLAYER
 10
66.031234731138596
 20
29.766862442360864
 30
0.0
 11
66.031234731138568
 21
-1.7690303607593847
 31
0.0
  0
LINE
  5
EF
100
AcDbEntity
100
AcDbLine
  8
0
 62
256
370
-1
 48
1.0
  6
BYLAYER
 10
-34.244265563961214
 20
-96.154976718459238
 30
0.0
 11
-34.244265563961257
 21
-80.053916718459234
 31
0.0
  0
LINE
  5
F0
100
AcDbEntity
100
AcDbLine
  8
0
 62
256
370
-1
 48
1.0
  6
BYLAYER
 10
64.781234731778667
 20
-3.9340938716192588
 30
0.0
 11
61.280089300758625
 21
-5.9554811293194394
 31
0.0
  0
LINE
  5
F1
100
AcDbEntity
100
AcDbLine
  8
0
 62
256
370
-1
 48
1.0
  6
BYLAYER
 10
-18.1432055639612
 20
-96.154976718459238
 30
0.0
 11
-18.143205563961242
 21
-80.053916718459234
 31
0.0
  0
LINE
  5
F2
100
AcDbEntity
100
AcDbLine
  8
0
 62
256
370
-1
 48
1.0
  6
BYLAYER
 10
59.530089300638636
 20
-8.9865695781791946
 30
0.0
 11
59.53008108881864
 21
-71.015587092159336
 31
0.0
  0
LINE
  5
F3
100
AcDbEntity
100
AcDbLine
  8
0
 62
256
370
-1
 48
1.0
  6
BYLAYER
 10
-34.244265563961214
 20
-96.154976718459238
 30
0.0
 11
-18.1432055639612
 21
-96.154976718459238
 31
0.0
  0
LINE
  5
F4
100
AcDbEntity
100
AcDbLine
  8
0
 62
256
370
-1
 48
1.0
  6
BYLAYER
 10
61.280081088938559
 20
-74.046676468119088
 30
0.0
 11
64.781234731778639
 21
-76.068068467999083
 31
0.0
  0
LINE
  5
F5
100
AcDbEntity
100
AcDbLine
  8
0
 62
256
370
-1
 48
1.0
  6
BYLAYER
 10
-34.244265563961257
 20
-80.053916718459234
 30
0.0
 11
-18.143205563961242
 21
-80.053916718459234
 31
0.0
  0
LINE
  5
F6
100
AcDbEntity
100
AcDbLine
  8
0
 62
256
370
-1
 48
1.0
  6
BYLAYER
 10
66.031234731138568
 20
-78.233131976319228
 30
0.0
 11
66.031234731138539
 21
-93.769030360899066
 31
0.0
  0
LINE
  5
F7
100
AcDbEntity
100
AcDbLine
  8
0
 62
256
370
-1
 48
1.0
  6
BYLAYER
 10
-34.244265563961228
 20
-77.104976718459227
 30
0.0
 11
-34.244265563961214
 21
-61.003916718459251
 31
0.0
  0
LINE
  5
F8
100
AcDbEntity
100
AcDbLine
  8
0
 62
256
370
-1
 48
1.0
  6
BYLAYER
 10
64.781234731778625
 20
-95.934093871759273
 30
0.0
 11
61.280078708958541
 21
-97.955487243239176
 31
0.0
  0
LINE
  5
F9
100
AcDbEntity
100
AcDbLine
  8
0
 62
256
370
-1
 48
1.0
  6
BYLAYER
 10
-18.143205563961239
 20
-77.104976718459227
 30
0.0
 11
-18.143205563961249
 21
-61.00391671845923
 31
0.0
  0
LINE
  5
FA
100
AcDbEntity
100
AcDbLine
  8
0
 62
256
370
-1
 48
1.0
  6
BYLAYER
 10
59.530078708838573
 20
-100.98657569209935
 30
0.0
 11
59.530070497018521
 21
-151.01558097805929
 31
0.0
  0
LINE
  5
FB
100
AcDbEntity
100
AcDbLine
  8
0
 62
256
370
-1
 48
1.0
  6
BYLAYER
 10
-34.244265563961228
 20
-77.104976718459227
 30
0.0
 11
-18.143205563961239
 21
-77.104976718459227
 31
0.0
  0
LINE
  5
FC
100
AcDbEntity
100
AcDbLine
  8
0
 62
256
370
-1
 48
1.0
  6
BYLAYER
 10
61.28007049713851
 20
-154.04667035401937
 30
0.0
 11
64.781234731778625
 21
-156.06806846767913
 31
0.0
  0
LINE
  5
FD
100
AcDbEntity
100
AcDbLine
  8
0
 62
256
370
-1
 48
1.0
  6
BYLAYER
 10
-34.244265563961214
 20
-61.003916718459251
 30
0.0
 11
-18.143205563961249
 21
-61.00391671845923
 31
0.0
  0
LINE
  5
FE
100
AcDbEntity
100
AcDbLine
  8
0
 62
256
370
-1
 48
1.0
  6
BYLAYER
 10
-34.244265563961257
 20
-58.054976718459216
 30
0.0
 11
-34.244265563961221
 21
-41.953916718459269
 31
0.0
  0
LINE
  5
FF
100
AcDbEntity
100
AcDbLine
  8
0
 62
256
370
-1
 48
1.0
  6
BYLAYER
 10
66.031234731138611
 20
-158.23313197599924
 30
0.0
 11
66.031234731138525
 21
-161.76903036265912
 31
0.0
  0
LINE
  5
100
100
AcDbEntity
100
AcDbLine
  8
0
 62
256
370
-1
 48
1.0
  6
BYLAYER
 10
64.78123473177854
 20
-163.93409387097932
 30
0.0
 11
61.280068348298464
 21
-165.95549322669922
 31
0.0
  0
LINE
  5
101
100
AcDbEntity
100
AcDbLine
  8
0
 62
256
370
-1
 48
1.0
  6
BYLAYER
 10
-18.143205563961217
 20
-58.054976718459237
 30
0.0
 11
-18.143205563961274
 21
-41.95391671845924
 31
0.0
  0
LINE
  5
102
100
AcDbEntity
100
AcDbLine
  8
0
 62
256
370
-1
 48
1.0
  6
BYLAYER
 10
-34.244265563961257
 20
-58.054976718459216
 30
0.0
 11
-18.143205563961217
 21
-58.054976718459237
 31
0.0
  0
LINE
  5
103
100
AcDbEntity
100
AcDbLine
  8
0
 62
256
370
-1
 48
1.0
  6
BYLAYER
 10
59.530068348178389
 20
-168.98658213783932
 30
0.0
 11
59.530068348178403
 21
-172.0040386657794
 31
0.0
  0
LINE
  5
104
100
AcDbEntity
100
AcDbLine
  8
0
 62
256
370
-1
 48
1.0
  6
BYLAYER
 10
58.944281909898571
 20
-173.4182522279992
 30
0.0
 11
57.115854786978474
 21
-175.24667935345946
 31
0.0
  0
LINE
  5
105
100
AcDbEntity
100
AcDbLine
  8
0
 62
256
370
-1
 48
1.0
  6
BYLAYER
 10
-34.244265563961221
 20
-41.953916718459269
 30
0.0
 11
-18.143205563961274
 21
-41.95391671845924
 31
0.0
  0
LINE
  5
106
100
AcDbEntity
100
AcDbLine
  8
0
 62
256
370
-1
 48
1.0
  6
BYLAYER
 10
-34.244265563961228
 20
-39.004976718459233
 30
0.0
 11
-34.244265563961235
 21
-22.903916718459243
 31
0.0
  0
LINE
  5
107
100
AcDbEntity
100
AcDbLine
  8
0
 62
256
370
-1
 48
1.0
  6
BYLAYER
 10
55.701641224758426
 20
-175.8324657891994
 30
0.0
 11
36.017329026278517
 21
-175.8324657891994
 31
0.0
  0
LINE
  5
108
100
AcDbEntity
100
AcDbLine
  8
0
 62
256
370
-1
 48
1.0
  6
BYLAYER
 10
-18.143205563961246
 20
-39.004976718459233
 30
0.0
 11
-18.143205563961239
 21
-22.903916718459243
 31
0.0
  0
LINE
  5
109
100
AcDbEntity
100
AcDbLine
  8
0
 62
256
370
-1
 48
1.0
  6
BYLAYER
 10
34.830408435938345
 20
-175.4161165279194
 30
0.0
 11
33.42606438915854
 21
-174.29264128947926
 31
0.0
  0
LINE
  5
10A
100
AcDbEntity
100
AcDbLine
  8
0
 62
256
370
-1
 48
1.0
  6
BYLAYER
 10
32.114204787838553
 20
-173.83246578869921
 30
0.0
 11
-8.1153709733219568
 21
-173.83246578869921
 31
0.0
  0
LINE
  5
10B
100
AcDbEntity
100
AcDbLine
  8
0
 62
256
370
-1
 48
1.0
  6
BYLAYER
 10
-34.244265563961228
 20
-39.004976718459233
 30
0.0
 11
-18.143205563961246
 21
-39.004976718459233
 31
0.0
  0
LINE
  5
10C
100
AcDbEntity
100
AcDbLine
  8
0
 62
256
370
-1
 48
1.0
  6
BYLAYER
 10
-9.4272305746413707
 20
-174.29264128947926
 30
0.0
 11
-10.831574621421277
 21
-175.41611652791937
 31
0.0
  0
LINE
  5
10D
100
AcDbEntity
100
AcDbLine
  8
0
 62
256
370
-1
 48
1.0
  6
BYLAYER
 10
-34.244265563961235
 20
-22.903916718459243
 30
0.0
 11
-18.143205563961239
 21
-22.903916718459243
 31
0.0
  0
LINE
  5
10E
100
AcDbEntity
100
AcDbLine
  8
0
 62
256
370
-1
 48
1.0
  6
BYLAYER
 10
-12.018495211761763
 20
-175.83246578919938
 30
0.0
 11
-55.702807408621389
 21
-175.83246578919938
 31
0.0
  0
LINE
  5
10F
100
AcDbEntity
100
AcDbLine
  8
0
 62
256
370
-1
 48
1.0
  6
BYLAYER
 10
-34.244265563961228
 20
-19.95497671845926
 30
0.0
 11
-34.244265563961235
 21
-3.8539167184592333
 31
0.0
  0
LINE
  5
110
100
AcDbEntity
100
AcDbLine
  8
0
 62
256
370
-1
 48
1.0
  6
BYLAYER
 10
-18.143205563961239
 20
-19.95497671845925
 30
0.0
 11
-18.143205563961239
 21
-3.8539167184592298
 31
0.0
  0
LINE
  5
111
100
AcDbEntity
100
AcDbLine
  8
0
 62
256
370
-1
 48
1.0
  6
BYLAYER
 10
-57.117020970841345
 20
-175.24667935345937
 30
0.0
 11
-58.945448096301455
 21
-173.41825222799915
 31
0.0
  0
LINE
  5
112
100
AcDbEntity
100
AcDbLine
  8
0
 62
256
370
-1
 48
1.0
  6
BYLAYER
 10
-59.531234534581472
 20
-172.00403866577935
 30
0.0
 11
-59.531234534581522
 21
-168.98590884225925
 31
0.0
  0
LINE
  5
113
100
AcDbEntity
100
AcDbLine
  8
0
 62
256
370
-1
 48
1.0
  6
BYLAYER
 10
-34.244265563961228
 20
-19.95497671845926
 30
0.0
 11
-18.143205563961239
 21
-19.95497671845925
 31
0.0
  0
LINE
  5
114
100
AcDbEntity
100
AcDbLine
  8
0
 62
256
370
-1
 48
1.0
  6
BYLAYER
 10
-61.28123453470149
 20
-165.9548199285791
 30
0.0
 11
-64.781234733061495
 21
-163.93409387097927
 31
0.0
  0
LINE
  5
115
100
AcDbEntity
100
AcDbLine
  8
0
 62
256
370
-1
 48
1.0
  6
BYLAYER
 10
-34.244265563961235
 20
-3.8539167184592333
 30
0.0
 11
-18.143205563961239
 21
-3.8539167184592298
 31
0.0
  0
LINE
  5
116
100
AcDbEntity
100
AcDbLine
  8
0
 62
256
370
-1
 48
1.0
  6
BYLAYER
 10
-66.031234732421382
 20
-161.76903036265912
 30
0.0
 11
-66.031234732421495
 21
-158.23313197599921
 31
0.0
  0
LINE
  5
117
100
AcDbEntity
100
AcDbLine
  8
0
 62
256
370
-1
 48
1.0
  6
BYLAYER
 10
-34.244265563961235
 20
-0.9049767184592401
 30
0.0
 11
-34.244265563961235
 21
15.196083281540758
 31
0.0
  0
LINE
  5
118
100
AcDbEntity
100
AcDbLine
  8
0
 62
256
370
-1
 48
1.0
  6
BYLAYER
 10
-64.781234733061453
 20
-156.06806846767913
 30
0.0
 11
-61.281234732821346
 21
-154.04734252437916
 31
0.0
  0
LINE
  5
119
100
AcDbEntity
100
AcDbLine
  8
0
 62
256
370
-1
 48
1.0
  6
BYLAYER
 10
-18.143205563961239
 20
-0.904976718459241
 30
0.0
 11
-18.143205563961235
 21
15.196083281540753
 31
0.0
  0
LINE
  5
11A
100
AcDbEntity
100
AcDbLine
  8
0
 62
256
370
-1
 48
1.0
  6
BYLAYER
 10
-59.531234732701385
 20
-151.01625361323937
 30
0.0
 11
-59.5312347327014
 21
-88.985908725739279
 31
0.0
  0
LINE
  5
11B
100
AcDbEntity
100
AcDbLine
  8
0
 62
256
370
-1
 48
1.0
  6
BYLAYER
 10
-34.244265563961235
 20
-0.9049767184592401
 30
0.0
 11
-18.143205563961239
 21
-0.904976718459241
 31
0.0
  0
LINE
  5
11C
100
AcDbEntity
100
AcDbLine
  8
0
 62
256
370
-1
 48
1.0
  6
BYLAYER
 10
-61.281234732821297
 20
-85.954819814599247
 30
0.0
 11
-64.781234733061481
 21
-83.934093871299254
 31
0.0
  0
LINE
  5
11D
100
AcDbEntity
100
AcDbLine
  8
0
 62
256
370
-1
 48
1.0
  6
BYLAYER
 10
-34.244265563961235
 20
15.196083281540758
 30
0.0
 11
-18.143205563961235
 21
15.196083281540753
 31
0.0
  0
LINE
  5
11E
100
AcDbEntity
100
AcDbLine
  8
0
 62
256
370
-1
 48
1.0
  6
BYLAYER
 10
-66.031234732421396
 20
-81.769030362979095
 30
0.0
 11
-66.031234732421396
 21
-78.233131976319214
 31
0.0
  0
LINE
  5
11F
100
AcDbEntity
100
AcDbLine
  8
0
 62
256
370
-1
 48
1.0
  6
BYLAYER
 10
-34.244265563961235
 20
18.145023281540777
 30
0.0
 11
-34.244265563961235
 21
34.24608328154077
 31
0.0
  0
LINE
  5
120
100
AcDbEntity
100
AcDbLine
  8
0
 62
256
370
-1
 48
1.0
  6
BYLAYER
 10
-64.781234733061524
 20
-76.068068467999012
 30
0.0
 11
-61.281234732821382
 21
-74.047342524699033
 31
0.0
  0
LINE
  5
121
100
AcDbEntity
100
AcDbLine
  8
0
 62
256
370
-1
 48
1.0
  6
BYLAYER
 10
-18.143205563961235
 20
18.145023281540777
 30
0.0
 11
-18.143205563961235
 21
34.246083281540763
 31
0.0
  0
LINE
  5
122
100
AcDbEntity
100
AcDbLine
  8
0
 62
256
370
-1
 48
1.0
  6
BYLAYER
 10
-59.531234732701378
 20
-71.01625361101928
 30
0.0
 11
-59.531234732701357
 21
-8.9859087260592805
 31
0.0
  0
LINE
  5
123
100
AcDbEntity
100
AcDbLine
  8
0
 62
256
370
-1
 48
1.0
  6
BYLAYER
 10
-34.244265563961235
 20
18.145023281540777
 30
0.0
 11
-18.143205563961235
 21
18.145023281540777
 31
0.0
  0
LINE
  5
124
100
AcDbEntity
100
AcDbLine
  8
0
 62
256
370
-1
 48
1.0
  6
BYLAYER
 10
-61.281234732821353
 20
-5.9548198123791263
 30
0.0
 11
-64.781234733061495
 21
-3.9340938716192073
 31
0.0
  0
LINE
  5
125
100
AcDbEntity
100
AcDbLine
  8
0
 62
256
370
-1
 48
1.0
  6
BYLAYER
 10
-34.244265563961235
 20
34.24608328154077
 30
0.0
 11
-18.143205563961235
 21
34.246083281540763
 31
0.0
  0
LINE
  5
126
100
AcDbEntity
100
AcDbLine
  8
0
 62
256
370
-1
 48
1.0
  6
BYLAYER
 10
-66.03123473242141
 20
-1.7690303607593365
 30
0.0
 11
-66.031234732421424
 21
1.7668680233608176
 31
0.0
  0
LINE
  5
127
100
AcDbEntity
100
AcDbLine
  8
0
 62
256
370
-1
 48
1.0
  6
BYLAYER
 10
-34.244265563961235
 20
37.195023281540756
 30
0.0
 11
-34.244265563961235
 21
53.296083281540774
 31
0.0
  0
LINE
  5
128
100
AcDbEntity
100
AcDbLine
  8
0
 62
256
370
-1
 48
1.0
  6
BYLAYER
 10
-64.78123473306151
 20
3.9319315316806245
 30
0.0
 11
-61.281234732821339
 21
5.9526574749806436
 31
0.0
  0
LINE
  5
129
100
AcDbEntity
100
AcDbLine
  8
0
 62
256
370
-1
 48
1.0
  6
BYLAYER
 10
-18.143205563961221
 20
37.195023281540756
 30
0.0
 11
-18.143205563961228
 21
53.296083281540774
 31
0.0
  0
LINE
  5
12A
100
AcDbEntity
100
AcDbLine
  8
0
 62
256
370
-1
 48
1.0
  6
BYLAYER
 10
-59.531234732701371
 20
8.9837463886607427
 30
0.0
 11
-59.531234732701336
 21
71.014091273620764
 31
0.0
  0
LINE
  5
12B
100
AcDbEntity
100
AcDbLine
  8
0
 62
256
370
-1
 48
1.0
  6
BYLAYER
 10
-34.244265563961235
 20
37.195023281540756
 30
0.0
 11
-18.143205563961221
 21
37.195023281540756
 31
0.0
  0
LINE
  5
12C
100
AcDbEntity
100
AcDbLine
  8
0
 62
256
370
-1
 48
1.0
  6
BYLAYER
 10
-61.281234732821318
 20
74.045180187300929
 30
0.0
 11
-64.78123473306151
 21
76.065906128060817
 31
0.0
  0
LINE
  5
12D
100
AcDbEntity
100
AcDbLine
  8
0
 62
256
370
-1
 48
1.0
  6
BYLAYER
 10
-34.244265563961235
 20
53.296083281540774
 30
0.0
 11
-18.143205563961228
 21
53.296083281540774
 31
0.0
  0
LINE
  5
12E
100
AcDbEntity
100
AcDbLine
  8
0
 62
256
370
-1
 48
1.0
  6
BYLAYER
 10
-66.03123473242141
 20
78.230969638920669
 30
0.0
 11
-66.031234732421396
 21
81.766868023040843
 31
0.0
  0
LINE
  5
12F
100
AcDbEntity
100
AcDbLine
  8
0
 62
256
370
-1
 48
1.0
  6
BYLAYER
 10
-34.244265563961221
 20
56.245023281540774
 30
0.0
 11
-34.244265563961243
 21
72.346083281540785
 31
0.0
  0
LINE
  5
130
100
AcDbEntity
100
AcDbLine
  8
0
 62
256
370
-1
 48
1.0
  6
BYLAYER
 10
-64.781234733061495
 20
83.931931531360704
 30
0.0
 11
-61.281234732821339
 21
85.952657474660683
 31
0.0
  0
LINE
  5
131
100
AcDbEntity
100
AcDbLine
  8
0
 62
256
370
-1
 48
1.0
  6
BYLAYER
 10
-18.143205563961242
 20
56.245023281540767
 30
0.0
 11
-18.143205563961271
 21
72.346083281540785
 31
0.0
  0
LINE
  5
132
100
AcDbEntity
100
AcDbLine
  8
0
 62
256
370
-1
 48
1.0
  6
BYLAYER
 10
-59.53123473270135
 20
88.983746388340762
 30
0.0
 11
-59.531234732701364
 21
109.10889619892077
 31
0.0
  0
LINE
  5
133
100
AcDbEntity
100
AcDbLine
  8
0
 62
256
370
-1
 48
1.0
  6
BYLAYER
 10
-34.244265563961221
 20
56.245023281540774
 30
0.0
 11
-18.143205563961242
 21
56.245023281540767
 31
0.0
  0
LINE
  5
134
100
AcDbEntity
100
AcDbLine
  8
0
 62
256
370
-1
 48
1.0
  6
BYLAYER
 10
-34.244265563961243
 20
72.346083281540785
 30
0.0
 11
-18.143205563961271
 21
72.346083281540785
 31
0.0
  0
LINE
  5
135
100
AcDbEntity
100
AcDbLine
  8
0
 62
256
370
-1
 48
1.0
  6
BYLAYER
 10
-56.256265575261338
 20
111.10889619942061
 30
0.0
 11
-56.256265575261367
 21
117.49755098368064
 31
0.0
  0
LINE
  5
136
100
AcDbEntity
100
AcDbLine
  8
0
 62
256
370
-1
 48
1.0
  6
BYLAYER
 10
-34.244265563961193
 20
100.92108328154075
 30
0.0
 11
-18.143205563961192
 21
100.92108328154075
 31
0.0
  0
LINE
  5
137
100
AcDbEntity
100
AcDbLine
  8
0
 62
256
370
-1
 48
1.0
  6
BYLAYER
 10
-34.244265563961207
 20
118.15752328154076
 30
0.0
 11
-34.244265563961171
 21
134.25858328154078
 31
0.0
  0
LINE
  5
138
100
AcDbEntity
100
AcDbLine
  8
0
 62
256
370
-1
 48
1.0
  6
BYLAYER
 10
-59.531234732701371
 20
119.49755098418082
 30
0.0
 11
-59.531234732701357
 21
151.01409127330083
 31
0.0
  0
LINE
  5
139
100
AcDbEntity
100
AcDbLine
  8
0
 62
256
370
-1
 48
1.0
  6
BYLAYER
 10
-18.143205563961253
 20
118.15752328154076
 30
0.0
 11
-18.143205563961299
 21
134.25858328154078
 31
0.0
  0
LINE
  5
13A
100
AcDbEntity
100
AcDbLine
  8
0
 62
256
370
-1
 48
1.0
  6
BYLAYER
 10
-40.000015575761346
 20
121.10755098490085
 30
0.0
 11
-40.000015575761431
 21
169.4075265717006
 31
0.0
  0
LINE
  5
13B
100
AcDbEntity
100
AcDbLine
  8
0
 62
256
370
-1
 48
1.0
  6
BYLAYER
 10
-34.244265563961207
 20
118.15752328154076
 30
0.0
 11
-18.143205563961253
 21
118.15752328154076
 31
0.0
  0
LINE
  5
13C
100
AcDbEntity
100
AcDbLine
  8
0
 62
256
370
-1
 48
1.0
  6
BYLAYER
 10
-36.200015576081555
 20
169.4075265717006
 30
0.0
 11
-36.200015576081476
 21
121.10755098490085
 31
0.0
  0
LINE
  5
13D
100
AcDbEntity
100
AcDbLine
  8
0
 62
256
370
-1
 48
1.0
  6
BYLAYER
 10
-34.244265563961171
 20
134.25858328154078
 30
0.0
 11
-18.143205563961299
 21
134.25858328154078
 31
0.0
  0
LINE
  5
13E
100
AcDbEntity
100
AcDbLine
  8
0
 62
256
370
-1
 48
1.0
  6
BYLAYER
 10
-40.000015575761388
 20
-45.579979533199094
 30
0.0
 11
-40.000015575761381
 21
21.770014364460792
 31
0.0
  0
LINE
  5
13F
100
AcDbEntity
100
AcDbLine
  8
0
 62
256
370
-1
 48
1.0
  6
BYLAYER
 10
-34.244265563961235
 20
137.20752328154077
 30
0.0
 11
-34.244265563961221
 21
153.30858328154079
 31
0.0
  0
LINE
  5
140
100
AcDbEntity
100
AcDbLine
  8
0
 62
256
370
-1
 48
1.0
  6
BYLAYER
 10
-18.143205563961192
 20
137.20752328154077
 30
0.0
 11
-18.143205563961175
 21
153.30858328154079
 31
0.0
  0
LINE
  5
141
100
AcDbEntity
100
AcDbLine
  8
0
 62
256
370
-1
 48
1.0
  6
BYLAYER
 10
-36.200015576081512
 20
21.770014364460792
 30
0.0
 11
-36.200015576081533
 21
-45.579979533199079
 31
0.0
  0
LINE
  5
142
100
AcDbEntity
100
AcDbLine
  8
0
 62
256
370
-1
 48
1.0
  6
BYLAYER
 10
-34.244265563961235
 20
137.20752328154077
 30
0.0
 11
-18.143205563961192
 21
137.20752328154077
 31
0.0
  0
LINE
  5
143
100
AcDbEntity
100
AcDbLine
  8
0
 62
256
370
-1
 48
1.0
  6
BYLAYER
 10
-40.000015575761445
 20
-131.30498563681937
 30
0.0
 11
-40.000015575761353
 21
-63.954961221059193
 31
0.0
  0
LINE
  5
144
100
AcDbEntity
100
AcDbLine
  8
0
 62
256
370
-1
 48
1.0
  6
BYLAYER
 10
-36.200015576081533
 20
-63.954961221059158
 30
0.0
 11
-36.200015576081611
 21
-131.30498563681937
 31
0.0
  0
LINE
  5
145
100
AcDbEntity
100
AcDbLine
  8
0
 62
256
370
-1
 48
1.0
  6
BYLAYER
 10
-34.244265563961221
 20
153.30858328154079
 30
0.0
 11
-18.143205563961175
 21
153.30858328154079
 31
0.0
  0
LINE
  5
146
100
AcDbEntity
100
AcDbLine
  8
0
 62
256
370
-1
 48
1.0
  6
BYLAYER
 10
-34.244265563961243
 20
156.25752328154073
 30
0.0
 11
-34.244265563961278
 21
172.35858328154075
 31
0.0
  0
LINE
  5
147
100
AcDbEntity
100
AcDbLine
  8
0
 62
256
370
-1
 48
1.0
  6
BYLAYER
 10
-40.000015575761388
 20
40.145026570420839
 30
0.0
 11
-40.000015575761381
 21
107.49889620074077
 31
0.0
  0
LINE
  5
148
100
AcDbEntity
100
AcDbLine
  8
0
 62
256
370
-1
 48
1.0
  6
BYLAYER
 10
-18.143205563961111
 20
156.25752328154073
 30
0.0
 11
-18.143205563961168
 21
172.35858328154075
 31
0.0
  0
LINE
  5
149
100
AcDbEntity
100
AcDbLine
  8
0
 62
256
370
-1
 48
1.0
  6
BYLAYER
 10
-36.200015576081512
 20
107.49889620074077
 30
0.0
 11
-36.200015576081512
 21
40.145026570420846
 31
0.0
  0
LINE
  5
14A
100
AcDbEntity
100
AcDbLine
  8
0
 62
256
370
-1
 48
1.0
  6
BYLAYER
 10
-34.244265563961243
 20
156.25752328154073
 30
0.0
 11
-18.143205563961111
 21
156.25752328154073
 31
0.0
  0
LINE
  5
14B
100
AcDbEntity
100
AcDbLine
  8
0
 62
256
370
-1
 48
1.0
  6
BYLAYER
 10
-48.506265576181477
 20
-150.12837823125915
 30
0.0
 11
-48.506265576181399
 21
-153.75498105931908
 31
0.0
  0
LINE
  5
14C
100
AcDbEntity
100
AcDbLine
  8
0
 62
256
370
-1
 48
1.0
  6
BYLAYER
 10
-34.244265563961278
 20
172.35858328154075
 30
0.0
 11
-18.143205563961168
 21
172.35858328154075
 31
0.0
  0
LINE
  5
14D
100
AcDbEntity
100
AcDbLine
  8
0
 62
256
370
-1
 48
1.0
  6
BYLAYER
 10
-48.506265576181448
 20
-136.75498105887931
 30
0.0
 11
-48.506265576181512
 21
-140.38158388693915
 31
0.0
  0
LINE
  5
14E
100
AcDbEntity
100
AcDbLine
  8
0
 62
256
370
-1
 48
1.0
  6
BYLAYER
 10
-15.194265563961094
 20
-167.59247671845924
 30
0.0
 11
-15.194265563961226
 21
-151.49141671845922
 31
0.0
  0
LINE
  5
14F
100
AcDbEntity
100
AcDbLine
  8
0
 62
256
370
-1
 48
1.0
  6
BYLAYER
 10
-51.506265575661452
 20
-140.38158388693915
 30
0.0
 11
-51.506265575661558
 21
-136.75498105887928
 31
0.0
  0
LINE
  5
150
100
AcDbEntity
100
AcDbLine
  8
0
 62
256
370
-1
 48
1.0
  6
BYLAYER
 10
0.9067944360379829
 20
-167.59247671845924
 30
0.0
 11
0.9067944360395276
 21
-151.49141671845922
 31
0.0
  0
LINE
  5
151
100
AcDbEntity
100
AcDbLine
  8
0
 62
256
370
-1
 48
1.0
  6
BYLAYER
 10
-51.506265575661487
 20
-153.75498105931905
 30
0.0
 11
-51.506265575661565
 21
-150.12837823125912
 31
0.0
  0
LINE
  5
152
100
AcDbEntity
100
AcDbLine
  8
0
 62
256
370
-1
 48
1.0
  6
BYLAYER
 10
-15.194265563961094
 20
-167.59247671845924
 30
0.0
 11
0.9067944360379829
 21
-167.59247671845924
 31
0.0
  0
LINE
  5
153
100
AcDbEntity
100
AcDbLine
  8
0
 62
256
370
-1
 48
1.0
  6
BYLAYER
 10
-40.000015575761338
 20
-169.4049764801191
 30
0.0
 11
-40.000015575761445
 21
-159.20497648137933
 31
0.0
  0
LINE
  5
154
100
AcDbEntity
100
AcDbLine
  8
0
 62
256
370
-1
 48
1.0
  6
BYLAYER
 10
-15.194265563961226
 20
-151.49141671845922
 30
0.0
 11
0.9067944360395276
 21
-151.49141671845922
 31
0.0
  0
LINE
  5
155
100
AcDbEntity
100
AcDbLine
  8
0
 62
256
370
-1
 48
1.0
  6
BYLAYER
 10
-36.200015576081547
 20
-159.20497648137933
 30
0.0
 11
-36.200015576081441
 21
-169.4049764801191
 31
0.0
  0
LINE
  5
156
100
AcDbEntity
100
AcDbLine
  8
0
 62
256
370
-1
 48
1.0
  6
BYLAYER
 10
-15.194265563961387
 20
-143.77997671845924
 30
0.0
 11
-15.194265563961224
 21
-127.67891671845923
 31
0.0
  0
LINE
  5
157
100
AcDbEntity
100
AcDbLine
  8
0
 62
256
370
-1
 48
1.0
  6
BYLAYER
 10
0.9067944360403026
 20
-143.77997671845924
 30
0.0
 11
0.9067944360389362
 21
-127.67891671845923
 31
0.0
  0
LINE
  5
158
100
AcDbEntity
100
AcDbLine
  8
0
 62
256
370
-1
 48
1.0
  6
BYLAYER
 10
-15.194265563961387
 20
-143.77997671845924
 30
0.0
 11
0.9067944360403026
 21
-143.77997671845924
 31
0.0
  0
LINE
  5
159
100
AcDbEntity
100
AcDbLine
  8
0
 62
256
370
-1
 48
1.0
  6
BYLAYER
 10
-15.194265563961224
 20
-127.67891671845923
 30
0.0
 11
0.9067944360389362
 21
-127.67891671845923
 31
0.0
  0
LINE
  5
15A
100
AcDbEntity
100
AcDbLine
  8
0
 62
256
370
-1
 48
1.0
  6
BYLAYER
 10
-15.194265563961155
 20
-124.72997671845923
 30
0.0
 11
-15.194265563961205
 21
-108.62891671845925
 31
0.0
  0
LINE
  5
15B
100
AcDbEntity
100
AcDbLine
  8
0
 62
256
370
-1
 48
1.0
  6
BYLAYER
 10
0.9067944360395905
 20
-124.72997671845923
 30
0.0
 11
0.9067944360379436
 21
-108.62891671845924
 31
0.0
  0
LINE
  5
15C
100
AcDbEntity
100
AcDbLine
  8
0
 62
256
370
-1
 48
1.0
  6
BYLAYER
 10
-15.194265563961155
 20
-124.72997671845923
 30
0.0
 11
0.9067944360395905
 21
-124.72997671845923
 31
0.0
  0
LINE
  5
15D
100
AcDbEntity
100
AcDbLine
  8
0
 62
256
370
-1
 48
1.0
  6
BYLAYER
 10
-15.194265563961205
 20
-108.62891671845925
 30
0.0
 11
0.9067944360379436
 21
-108.62891671845924
 31
0.0
  0
LINE
  5
15E
100
AcDbEntity
100
AcDbLine
  8
0
 62
256
370
-1
 48
1.0
  6
BYLAYER
 10
-15.194265563961251
 20
-105.67997671845923
 30
0.0
 11
-15.194265563961233
 21
-89.578916718459212
 31
0.0
  0
LINE
  5
15F
100
AcDbEntity
100
AcDbLine
  8
0
 62
256
370
-1
 48
1.0
  6
BYLAYER
 10
0.9067944360373743
 20
-105.67997671845923
 30
0.0
 11
0.9067944360387276
 21
-89.578916718459226
 31
0.0
  0
ARC
  5
160
100
AcDbEntity
  8
0
 62
256
370
-1
 48
1.0
  6
BYLAYER
100
AcDbCircle
 10
-63.031234732941314
 20
151.01409127330083
 30
0.0
 40
3.5000000000010623
100
AcDbArc
 50
0.0
 51
59.999999999999986
  0
LINE
  5
161
100
AcDbEntity
100
AcDbLine
  8
0
 62
256
370
-1
 48
1.0
  6
BYLAYER
 10
-15.194265563961251
 20
-105.67997671845923
 30
0.0
 11
0.9067944360373743
 21
-105.67997671845923
 31
0.0
  0
ARC
  5
162
100
AcDbEntity
  8
0
 62
256
370
-1
 48
1.0
  6
BYLAYER
100
AcDbCircle
 10
-63.531234731161334
 20
158.23096963860075
 30
0.0
 40
2.5000000000008762
100
AcDbArc
 50
180.0
 51
240.00000000000003
  0
LINE
  5
163
100
AcDbEntity
100
AcDbLine
  8
0
 62
256
370
-1
 48
1.0
  6
BYLAYER
 10
-15.194265563961233
 20
-89.578916718459212
 30
0.0
 11
0.9067944360387276
 21
-89.578916718459226
 31
0.0
  0
ARC
  5
164
100
AcDbEntity
  8
0
 62
256
370
-1
 48
1.0
  6
BYLAYER
100
AcDbCircle
 10
-63.531234731161391
 20
161.98655184040081
 30
0.0
 40
2.4999999999985802
100
AcDbArc
 50
126.4926137721
 51
180.0
  0
LINE
  5
165
100
AcDbEntity
100
AcDbLine
  8
0
 62
256
370
-1
 48
1.0
  6
BYLAYER
 10
-15.194265563961247
 20
-86.629976718459233
 30
0.0
 11
-15.194265563961242
 21
-70.528916718459243
 31
0.0
  0
ARC
  5
166
100
AcDbEntity
  8
0
 62
256
370
-1
 48
1.0
  6
BYLAYER
100
AcDbCircle
 10
-63.031234732941329
 20
169.81973618162067
 30
0.0
 40
3.4999999999988423
100
AcDbArc
 50
306.49261377210001
 51
0.0
  0
LINE
  5
167
100
AcDbEntity
100
AcDbLine
  8
0
 62
256
370
-1
 48
1.0
  6
BYLAYER
 10
0.9067944360385446
 20
-86.629976718459233
 30
0.0
 11
0.9067944360386078
 21
-70.528916718459243
 31
0.0
  0
ARC
  5
168
100
AcDbEntity
  8
0
 62
256
370
-1
 48
1.0
  6
BYLAYER
100
AcDbCircle
 10
-57.531234732201362
 20
172.00149170634074
 30
0.0
 40
1.9999999999988223
100
AcDbArc
 50
135.0
 51
180.0
  0
LINE
  5
169
100
AcDbEntity
100
AcDbLine
  8
0
 62
256
370
-1
 48
1.0
  6
BYLAYER
 10
-15.194265563961247
 20
-86.629976718459233
 30
0.0
 11
0.9067944360385446
 21
-86.629976718459233
 31
0.0
  0
ARC
  5
16A
100
AcDbEntity
  8
0
 62
256
370
-1
 48
1.0
  6
BYLAYER
100
AcDbCircle
 10
-55.702807606741551
 20
173.82991883180091
 30
0.0
 40
2.0000000000024318
100
AcDbArc
 50
90.0
 51
135.0
  0
LINE
  5
16B
100
AcDbEntity
100
AcDbLine
  8
0
 62
256
370
-1
 48
1.0
  6
BYLAYER
 10
-15.194265563961242
 20
-70.528916718459243
 30
0.0
 11
0.9067944360386078
 21
-70.528916718459243
 31
0.0
  0
ARC
  5
16C
100
AcDbEntity
  8
0
 62
256
370
-1
 48
1.0
  6
BYLAYER
100
AcDbCircle
 10
3.9820726168579395
 20
173.92991882992072
 30
0.0
 40
1.8999999999963193
100
AcDbArc
 50
51.340191745899943
 51
90.0
  0
LINE
  5
16D
100
AcDbEntity
100
AcDbLine
  8
0
 62
256
370
-1
 48
1.0
  6
BYLAYER
 10
-15.194265563961265
 20
-67.579976718459235
 30
0.0
 11
-15.194265563961254
 21
-51.478916718459246
 31
0.0
  0
ARC
  5
16E
100
AcDbEntity
  8
0
 62
256
370
-1
 48
1.0
  6
BYLAYER
100
AcDbCircle
 10
7.8820098360185016
 20
175.93246337448085
 30
0.0
 40
2.1000000000038885
100
AcDbArc
 50
231.45146040570003
 51
270.08687785449996
  0
LINE
  5
16F
100
AcDbEntity
100
AcDbLine
  8
0
 62
256
370
-1
 48
1.0
  6
BYLAYER
 10
0.9067944360392409
 20
-67.579976718459235
 30
0.0
 11
0.9067944360385045
 21
-51.478916718459246
 31
0.0
  0
ARC
  5
170
100
AcDbEntity
  8
0
 62
256
370
-1
 48
1.0
  6
BYLAYER
100
AcDbCircle
 10
38.114769837738585
 20
175.93246578748062
 30
0.0
 40
2.0999999999973555
100
AcDbArc
 50
270.0
 51
308.65980825409997
  0
LINE
  5
171
100
AcDbEntity
100
AcDbLine
  8
0
 62
256
370
-1
 48
1.0
  6
BYLAYER
 10
-15.194265563961265
 20
-67.579976718459235
 30
0.0
 11
0.9067944360392409
 21
-67.579976718459235
 31
0.0
  0
ARC
  5
172
100
AcDbEntity
  8
0
 62
256
370
-1
 48
1.0
  6
BYLAYER
100
AcDbCircle
 10
42.017894073638672
 20
173.93246578698071
 30
0.0
 40
1.9000000000017343
100
AcDbArc
 50
90.0
 51
128.6598082541
  0
LINE
  5
173
100
AcDbEntity
100
AcDbLine
  8
0
 62
256
370
-1
 48
1.0
  6
BYLAYER
 10
-15.194265563961254
 20
-51.478916718459246
 30
0.0
 11
0.9067944360385045
 21
-51.478916718459246
 31
0.0
  0
ARC
  5
174
100
AcDbEntity
  8
0
 62
256
370
-1
 48
1.0
  6
BYLAYER
100
AcDbCircle
 10
55.702774298438712
 20
173.83246578886059
 30
0.0
 40
1.9999999999959341
100
AcDbArc
 50
45.0
 51
90.000000000100002
  0
LINE
  5
175
100
AcDbEntity
100
AcDbLine
  8
0
 62
256
370
-1
 48
1.0
  6
BYLAYER
 10
-15.194265563961254
 20
-48.529976718459238
 30
0.0
 11
-15.194265563961242
 21
-32.428916718459242
 31
0.0
  0
ARC
  5
176
100
AcDbEntity
  8
0
 62
256
370
-1
 48
1.0
  6
BYLAYER
100
AcDbCircle
 10
57.531201423898665
 20
172.00403866340079
 30
0.0
 40
2.0000000000023022
100
AcDbArc
 50
0.0
 51
45.0
  0
ARC
  5
177
100
AcDbEntity
  8
0
 62
256
370
-1
 48
1.0
  6
BYLAYER
100
AcDbCircle
 10
63.031201422098675
 20
168.98631097268074
 30
0.0
 40
3.5000000000004672
100
AcDbArc
 50
180.0
 51
240.00000000000003
  0
LINE
  5
178
100
AcDbEntity
100
AcDbLine
  8
0
 62
256
370
-1
 48
1.0
  6
BYLAYER
 10
0.9067944360386472
 20
-48.529976718459238
 30
0.0
 11
0.906794436038658
 21
-32.428916718459249
 31
0.0
  0
LINE
  5
179
100
AcDbEntity
100
AcDbLine
  8
0
 62
256
370
-1
 48
1.0
  6
BYLAYER
 10
-15.194265563961254
 20
-48.529976718459238
 30
0.0
 11
0.9067944360386472
 21
-48.529976718459238
 31
0.0
  0
ARC
  5
17A
100
AcDbEntity
  8
0
 62
256
370
-1
 48
1.0
  6
BYLAYER
100
AcDbCircle
 10
63.531231953658683
 20
161.76941497978058
 30
0.0
 40
2.4999999999997917
100
AcDbArc
 50
0.0
 51
59.999999999999986
  0
ARC
  5
17B
100
AcDbEntity
  8
0
 62
256
370
-1
 48
1.0
  6
BYLAYER
100
AcDbCircle
 10
63.531231953658576
 20
158.23351659566083
 30
0.0
 40
2.5000000000014171
100
AcDbArc
 50
300.0
 51
0.0
  0
LINE
  5
17C
100
AcDbEntity
100
AcDbLine
  8
0
 62
256
370
-1
 48
1.0
  6
BYLAYER
 10
-15.194265563961242
 20
-32.428916718459242
 30
0.0
 11
0.906794436038658
 21
-32.428916718459249
 31
0.0
  0
ARC
  5
17D
100
AcDbEntity
  8
0
 62
256
370
-1
 48
1.0
  6
BYLAYER
100
AcDbCircle
 10
63.031201422098626
 20
151.01662060530074
 30
0.0
 40
3.5000000000003455
100
AcDbArc
 50
120.0
 51
180.0
  0
LINE
  5
17E
100
AcDbEntity
100
AcDbLine
  8
0
 62
256
370
-1
 48
1.0
  6
BYLAYER
 10
-15.194265563961235
 20
-29.479976718459231
 30
0.0
 11
-15.194265563961238
 21
-13.378916718459237
 31
0.0
  0
LINE
  5
17F
100
AcDbEntity
100
AcDbLine
  8
0
 62
256
370
-1
 48
1.0
  6
BYLAYER
 10
0.9067944360387543
 20
-29.479976718459227
 30
0.0
 11
0.9067944360387478
 21
-13.378916718459239
 31
0.0
  0
ARC
  5
180
100
AcDbEntity
  8
0
 62
256
370
-1
 48
1.0
  6
BYLAYER
100
AcDbCircle
 10
63.031201422098576
 20
88.986310970460622
 30
0.0
 40
3.5000000000006586
100
AcDbArc
 50
180.0
 51
240.00000000000003
  0
LINE
  5
181
100
AcDbEntity
100
AcDbLine
  8
0
 62
256
370
-1
 48
1.0
  6
BYLAYER
 10
-15.194265563961235
 20
-29.479976718459231
 30
0.0
 11
0.9067944360387543
 21
-29.479976718459227
 31
0.0
  0
ARC
  5
182
100
AcDbEntity
  8
0
 62
256
370
-1
 48
1.0
  6
BYLAYER
100
AcDbCircle
 10
63.531231953658633
 20
81.769414980100549
 30
0.0
 40
2.5000000000005151
100
AcDbArc
 50
0.0
 51
59.999999999999986
  0
LINE
  5
183
100
AcDbEntity
100
AcDbLine
  8
0
 62
256
370
-1
 48
1.0
  6
BYLAYER
 10
-15.194265563961238
 20
-13.378916718459237
 30
0.0
 11
0.9067944360387478
 21
-13.378916718459239
 31
0.0
  0
ARC
  5
184
100
AcDbEntity
  8
0
 62
256
370
-1
 48
1.0
  6
BYLAYER
100
AcDbCircle
 10
63.53123195365864
 20
78.233516860140767
 30
0.0
 40
2.4999999999994307
100
AcDbArc
 50
299.99999241469999
 51
0.0
  0
LINE
  5
185
100
AcDbEntity
100
AcDbLine
  8
0
 62
256
370
-1
 48
1.0
  6
BYLAYER
 10
-15.194265563961237
 20
-10.429976718459246
 30
0.0
 11
-15.194265563961237
 21
5.6710832815407457
 31
0.0
  0
ARC
  5
186
100
AcDbEntity
  8
0
 62
256
370
-1
 48
1.0
  6
BYLAYER
100
AcDbCircle
 10
63.030097111378502
 20
71.015983913980605
 30
0.0
 40
3.5000000000017857
100
AcDbArc
 50
119.99999241479999
 51
179.99999241470005
  0
LINE
  5
187
100
AcDbEntity
100
AcDbLine
  8
0
 62
256
370
-1
 48
1.0
  6
BYLAYER
 10
0.906794436038765
 20
-10.429976718459246
 30
0.0
 11
0.9067944360387688
 21
5.6710832815407457
 31
0.0
  0
ARC
  5
188
100
AcDbEntity
  8
0
 62
256
370
-1
 48
1.0
  6
BYLAYER
100
AcDbCircle
 10
63.030091680858497
 20
36.984400750460686
 30
0.0
 40
3.4999999999998379
100
AcDbArc
 50
179.95829814889998
 51
240.00000000000003
  0
LINE
  5
189
100
AcDbEntity
100
AcDbLine
  8
0
 62
256
370
-1
 48
1.0
  6
BYLAYER
 10
-15.194265563961237
 20
-10.429976718459246
 30
0.0
 11
0.906794436038765
 21
-10.429976718459246
 31
0.0
  0
ARC
  5
18A
100
AcDbEntity
  8
0
 62
256
370
-1
 48
1.0
  6
BYLAYER
100
AcDbCircle
 10
63.531234732418561
 20
29.766862442360885
 30
0.0
 40
2.5000000000001523
100
AcDbArc
 50
0.0
 51
59.999999999999986
  0
LINE
  5
18B
100
AcDbEntity
100
AcDbLine
  8
0
 62
256
370
-1
 48
1.0
  6
BYLAYER
 10
-15.194265563961237
 20
5.6710832815407457
 30
0.0
 11
0.9067944360387688
 21
5.6710832815407457
 31
0.0
  0
ARC
  5
18C
100
AcDbEntity
  8
0
 62
256
370
-1
 48
1.0
  6
BYLAYER
100
AcDbCircle
 10
63.531234732418554
 20
-1.769030360759386
 30
0.0
 40
2.4999999999991411
100
AcDbArc
 50
300.0
 51
0.0
  0
LINE
  5
18D
100
AcDbEntity
100
AcDbLine
  8
0
 62
256
370
-1
 48
1.0
  6
BYLAYER
 10
-15.194265563961237
 20
8.6200232815407709
 30
0.0
 11
-15.194265563961238
 21
24.721083281540761
 31
0.0
  0
ARC
  5
18E
100
AcDbEntity
  8
0
 62
256
370
-1
 48
1.0
  6
BYLAYER
100
AcDbCircle
 10
63.030089300878601
 20
-8.9865700429991975
 30
0.0
 40
3.5000000000006781
100
AcDbArc
 50
120.0
 51
179.99999241470005
  0
LINE
  5
18F
100
AcDbEntity
100
AcDbLine
  8
0
 62
256
370
-1
 48
1.0
  6
BYLAYER
 10
0.90679443603878
 20
8.6200232815407656
 30
0.0
 11
0.9067944360387914
 21
24.721083281540757
 31
0.0
  0
ARC
  5
190
100
AcDbEntity
  8
0
 62
256
370
-1
 48
1.0
  6
BYLAYER
100
AcDbCircle
 10
63.030081089058619
 20
-71.015587556979341
 30
0.0
 40
3.499999999999416
100
AcDbArc
 50
179.99999241470005
 51
240.00000000000003
  0
LINE
  5
191
100
AcDbEntity
100
AcDbLine
  8
0
 62
256
370
-1
 48
1.0
  6
BYLAYER
 10
-15.194265563961237
 20
8.6200232815407709
 30
0.0
 11
0.90679443603878
 21
8.6200232815407656
 31
0.0
  0
ARC
  5
192
100
AcDbEntity
  8
0
 62
256
370
-1
 48
1.0
  6
BYLAYER
100
AcDbCircle
 10
63.53123473241849
 20
-78.233131976319271
 30
0.0
 40
2.4999999999997917
100
AcDbArc
 50
0.0
 51
59.999999999999986
  0
LINE
  5
193
100
AcDbEntity
100
AcDbLine
  8
0
 62
256
370
-1
 48
1.0
  6
BYLAYER
 10
-15.194265563961238
 20
24.721083281540761
 30
0.0
 11
0.9067944360387914
 21
24.721083281540757
 31
0.0
  0
ARC
  5
194
100
AcDbEntity
  8
0
 62
256
370
-1
 48
1.0
  6
BYLAYER
100
AcDbCircle
 10
63.531234732418518
 20
-93.76903036089908
 30
0.0
 40
2.5000000000026894
100
AcDbArc
 50
300.0
 51
0.0
  0
LINE
  5
195
100
AcDbEntity
100
AcDbLine
  8
0
 62
256
370
-1
 48
1.0
  6
BYLAYER
 10
-15.194265563961244
 20
27.67002328154075
 30
0.0
 11
-15.19426556396124
 21
43.771083281540768
 31
0.0
  0
ARC
  5
196
100
AcDbEntity
  8
0
 62
256
370
-1
 48
1.0
  6
BYLAYER
100
AcDbCircle
 10
63.03007870907858
 20
-100.98657615691931
 30
0.0
 40
3.4999999999985119
100
AcDbArc
 50
120.0
 51
179.9999924148
  0
LINE
  5
197
100
AcDbEntity
100
AcDbLine
  8
0
 62
256
370
-1
 48
1.0
  6
BYLAYER
 10
0.9067944360387079
 20
27.67002328154075
 30
0.0
 11
0.9067944360388036
 21
43.771083281540768
 31
0.0
  0
ARC
  5
198
100
AcDbEntity
  8
0
 62
256
370
-1
 48
1.0
  6
BYLAYER
100
AcDbCircle
 10
63.030070497258471
 20
-151.01558144033928
 30
0.0
 40
3.5000000000001372
100
AcDbArc
 50
179.9999924148
 51
240.00000000000003
  0
LINE
  5
199
100
AcDbEntity
100
AcDbLine
  8
0
 62
256
370
-1
 48
1.0
  6
BYLAYER
 10
-15.194265563961244
 20
27.67002328154075
 30
0.0
 11
0.9067944360387079
 21
27.67002328154075
 31
0.0
  0
ARC
  5
19A
100
AcDbEntity
  8
0
 62
256
370
-1
 48
1.0
  6
BYLAYER
100
AcDbCircle
 10
63.531234732418554
 20
-158.23313197599924
 30
0.0
 40
2.4999999999983489
100
AcDbArc
 50
0.0
 51
59.999999999999986
  0
LINE
  5
19B
100
AcDbEntity
100
AcDbLine
  8
0
 62
256
370
-1
 48
1.0
  6
BYLAYER
 10
-15.19426556396124
 20
43.771083281540768
 30
0.0
 11
0.9067944360388036
 21
43.771083281540768
 31
0.0
  0
ARC
  5
19C
100
AcDbEntity
  8
0
 62
256
370
-1
 48
1.0
  6
BYLAYER
100
AcDbCircle
 10
63.531234732418454
 20
-161.76903036265915
 30
0.0
 40
2.5000000000028599
100
AcDbArc
 50
300.0
 51
0.0
  0
LINE
  5
19D
100
AcDbEntity
100
AcDbLine
  8
0
 62
256
370
-1
 48
1.0
  6
BYLAYER
 10
-15.194265563961237
 20
46.720023281540762
 30
0.0
 11
-15.194265563961217
 21
62.82108328154078
 31
0.0
  0
ARC
  5
19E
100
AcDbEntity
  8
0
 62
256
370
-1
 48
1.0
  6
BYLAYER
100
AcDbCircle
 10
63.030068348418553
 20
-168.98658213783929
 30
0.0
 40
3.499999999999746
100
AcDbArc
 50
120.0
 51
180.0
  0
LINE
  5
19F
100
AcDbEntity
100
AcDbLine
  8
0
 62
256
370
-1
 48
1.0
  6
BYLAYER
 10
0.9067944360386128
 20
46.720023281540762
 30
0.0
 11
0.906794436038382
 21
62.82108328154078
 31
0.0
  0
ARC
  5
1A0
100
AcDbEntity
  8
0
 62
256
370
-1
 48
1.0
  6
BYLAYER
100
AcDbCircle
 10
57.530068347678629
 20
-172.00403866577938
 30
0.0
 40
1.9999999999984743
100
AcDbArc
 50
315.0
 51
0.0
  0
LINE
  5
1A1
100
AcDbEntity
100
AcDbLine
  8
0
 62
256
370
-1
 48
1.0
  6
BYLAYER
 10
-15.194265563961237
 20
46.720023281540762
 30
0.0
 11
0.9067944360386128
 21
46.720023281540762
 31
0.0
  0
ARC
  5
1A2
100
AcDbEntity
  8
0
 62
256
370
-1
 48
1.0
  6
BYLAYER
100
AcDbCircle
 10
55.701641224758347
 20
-173.83246578869927
 30
0.0
 40
2.0000000000024318
100
AcDbArc
 50
270.0
 51
315.0
  0
LINE
  5
1A3
100
AcDbEntity
100
AcDbLine
  8
0
 62
256
370
-1
 48
1.0
  6
BYLAYER
 10
-15.194265563961217
 20
62.82108328154078
 30
0.0
 11
0.906794436038382
 21
62.82108328154078
 31
0.0
  0
ARC
  5
1A4
100
AcDbEntity
  8
0
 62
256
370
-1
 48
1.0
  6
BYLAYER
100
AcDbCircle
 10
36.017329026278553
 20
-173.93246578935936
 30
0.0
 40
1.9000000000015032
100
AcDbArc
 50
231.3401917459
 51
270.0
  0
LINE
  5
1A5
100
AcDbEntity
100
AcDbLine
  8
0
 62
256
370
-1
 48
1.0
  6
BYLAYER
 10
-15.194265563961226
 20
65.770023281540773
 30
0.0
 11
-15.194265563961169
 21
81.871083281540763
 31
0.0
  0
ARC
  5
1A6
100
AcDbEntity
  8
0
 62
256
370
-1
 48
1.0
  6
BYLAYER
100
AcDbCircle
 10
32.114204787838432
 20
-175.93246578985921
 30
0.0
 40
2.1000000000035812
100
AcDbArc
 50
51.340191745899943
 51
90.0
  0
LINE
  5
1A7
100
AcDbEntity
100
AcDbLine
  8
0
 62
256
370
-1
 48
1.0
  6
BYLAYER
 10
0.9067944360389402
 20
65.770023281540773
 30
0.0
 11
0.90679443603844
 21
81.871083281540763
 31
0.0
  0
ARC
  5
1A8
100
AcDbEntity
  8
0
 62
256
370
-1
 48
1.0
  6
BYLAYER
100
AcDbCircle
 10
-8.1153709733214239
 20
-175.93246578985918
 30
0.0
 40
2.1000000000060601
100
AcDbArc
 50
90.0
 51
128.65980825399998
  0
LINE
  5
1A9
100
AcDbEntity
100
AcDbLine
  8
0
 62
256
370
-1
 48
1.0
  6
BYLAYER
 10
-15.194265563961226
 20
65.770023281540773
 30
0.0
 11
0.9067944360389402
 21
65.770023281540773
 31
0.0
  0
ARC
  5
1AA
100
AcDbEntity
  8
0
 62
256
370
-1
 48
1.0
  6
BYLAYER
100
AcDbCircle
 10
-12.01849521176174
 20
-173.93246578935936
 30
0.0
 40
1.9000000000006496
100
AcDbArc
 50
270.0
 51
308.65980825409997
  0
LINE
  5
1AB
100
AcDbEntity
100
AcDbLine
  8
0
 62
256
370
-1
 48
1.0
  6
BYLAYER
 10
-15.194265563961169
 20
81.871083281540763
 30
0.0
 11
0.90679443603844
 21
81.871083281540763
 31
0.0
  0
ARC
  5
1AC
100
AcDbEntity
  8
0
 62
256
370
-1
 48
1.0
  6
BYLAYER
100
AcDbCircle
 10
-55.702807408621375
 20
-173.83246578869921
 30
0.0
 40
1.9999999999996223
100
AcDbArc
 50
225.0
 51
270.0
  0
LINE
  5
1AD
100
AcDbEntity
100
AcDbLine
  8
0
 62
256
370
-1
 48
1.0
  6
BYLAYER
 10
-15.194265563961265
 20
89.582523281540773
 30
0.0
 11
-15.1942655639613
 21
105.68358328154079
 31
0.0
  0
ARC
  5
1AE
100
AcDbEntity
  8
0
 62
256
370
-1
 48
1.0
  6
BYLAYER
100
AcDbCircle
 10
-57.531234534081463
 20
-172.00403866577938
 30
0.0
 40
1.9999999999982814
100
AcDbArc
 50
180.0
 51
225.0
  0
LINE
  5
1AF
100
AcDbEntity
100
AcDbLine
  8
0
 62
256
370
-1
 48
1.0
  6
BYLAYER
 10
0.9067944360387776
 20
89.582523281540773
 30
0.0
 11
0.906794436038999
 21
105.68358328154079
 31
0.0
  0
ARC
  5
1B0
100
AcDbEntity
  8
0
 62
256
370
-1
 48
1.0
  6
BYLAYER
100
AcDbCircle
 10
-63.031234532281445
 20
-168.98590884225925
 30
0.0
 40
3.4999999999995657
100
AcDbArc
 50
0.0
 51
59.999999999999986
  0
LINE
  5
1B1
100
AcDbEntity
100
AcDbLine
  8
0
 62
256
370
-1
 48
1.0
  6
BYLAYER
 10
-15.194265563961265
 20
89.582523281540773
 30
0.0
 11
0.9067944360387776
 21
89.582523281540773
 31
0.0
  0
ARC
  5
1B2
100
AcDbEntity
  8
0
 62
256
370
-1
 48
1.0
  6
BYLAYER
100
AcDbCircle
 10
-63.531234731161426
 20
-161.76903036265909
 30
0.0
 40
2.500000000000218
100
AcDbArc
 50
180.0
 51
240.00000000000003
  0
LINE
  5
1B3
100
AcDbEntity
100
AcDbLine
  8
0
 62
256
370
-1
 48
1.0
  6
BYLAYER
 10
-15.1942655639613
 20
105.68358328154079
 30
0.0
 11
0.906794436038999
 21
105.68358328154079
 31
0.0
  0
ARC
  5
1B4
100
AcDbEntity
  8
0
 62
256
370
-1
 48
1.0
  6
BYLAYER
100
AcDbCircle
 10
-63.531234731161369
 20
-158.23313197599924
 30
0.0
 40
2.5000000000006959
100
AcDbArc
 50
120.0
 51
180.0
  0
LINE
  5
1B5
100
AcDbEntity
100
AcDbLine
  8
0
 62
256
370
-1
 48
1.0
  6
BYLAYER
 10
-15.194265563961304
 20
118.15752328154076
 30
0.0
 11
-15.194265563961276
 21
134.25858328154078
 31
0.0
  0
ARC
  5
1B6
100
AcDbEntity
  8
0
 62
256
370
-1
 48
1.0
  6
BYLAYER
100
AcDbCircle
 10
-63.031234732941314
 20
-151.01625361323937
 30
0.0
 40
3.4999999999995839
100
AcDbArc
 50
300.0
 51
0.0
  0
ARC
  5
1B7
100
AcDbEntity
  8
0
 62
256
370
-1
 48
1.0
  6
BYLAYER
100
AcDbCircle
 10
-63.031234732941343
 20
-88.985908725739293
 30
0.0
 40
3.4999999999996727
100
AcDbArc
 50
0.0
 51
59.999999999999986
  0
LINE
  5
1B8
100
AcDbEntity
100
AcDbLine
  8
0
 62
256
370
-1
 48
1.0
  6
BYLAYER
 10
0.9067944360385108
 20
118.15752328154076
 30
0.0
 11
0.9067944360393415
 21
134.25858328154078
 31
0.0
  0
ARC
  5
1B9
100
AcDbEntity
  8
0
 62
256
370
-1
 48
1.0
  6
BYLAYER
100
AcDbCircle
 10
-63.531234731161355
 20
-81.769030362979066
 30
0.0
 40
2.5000000000014171
100
AcDbArc
 50
180.0
 51
240.00000000000003
  0
LINE
  5
1BA
100
AcDbEntity
100
AcDbLine
  8
0
 62
256
370
-1
 48
1.0
  6
BYLAYER
 10
-15.194265563961304
 20
118.15752328154076
 30
0.0
 11
0.9067944360385108
 21
118.15752328154076
 31
0.0
  0
ARC
  5
1BB
100
AcDbEntity
  8
0
 62
256
370
-1
 48
1.0
  6
BYLAYER
100
AcDbCircle
 10
-63.531234731161383
 20
-78.233131976319171
 30
0.0
 40
2.499999999999972
100
AcDbArc
 50
120.0
 51
180.0
  0
LINE
  5
1BC
100
AcDbEntity
100
AcDbLine
  8
0
 62
256
370
-1
 48
1.0
  6
BYLAYER
 10
-15.194265563961276
 20
134.25858328154078
 30
0.0
 11
0.9067944360393415
 21
134.25858328154078
 31
0.0
  0
ARC
  5
1BD
100
AcDbEntity
  8
0
 62
256
370
-1
 48
1.0
  6
BYLAYER
100
AcDbCircle
 10
-63.031234732941321
 20
-71.016253611019309
 30
0.0
 40
3.499999999999746
100
AcDbArc
 50
300.0
 51
0.0
  0
LINE
  5
1BE
100
AcDbEntity
100
AcDbLine
  8
0
 62
256
370
-1
 48
1.0
  6
BYLAYER
 10
-15.194265563960913
 20
137.20752328154077
 30
0.0
 11
-15.194265563961077
 21
153.30858328154079
 31
0.0
  0
ARC
  5
1BF
100
AcDbEntity
  8
0
 62
256
370
-1
 48
1.0
  6
BYLAYER
100
AcDbCircle
 10
-63.031234732941329
 20
-8.9859087260592592
 30
0.0
 40
3.4999999999999853
100
AcDbArc
 50
0.0
 51
59.999999999999986
  0
LINE
  5
1C0
100
AcDbEntity
100
AcDbLine
  8
0
 62
256
370
-1
 48
1.0
  6
BYLAYER
 10
0.906794436038158
 20
137.20752328154077
 30
0.0
 11
0.9067944360421972
 21
153.30858328154079
 31
0.0
  0
ARC
  5
1C1
100
AcDbEntity
  8
0
 62
256
370
-1
 48
1.0
  6
BYLAYER
100
AcDbCircle
 10
-63.531234731161334
 20
-1.7690303607593671
 30
0.0
 40
2.5000000000005151
100
AcDbArc
 50
180.0
 51
240.00000000000003
  0
LINE
  5
1C2
100
AcDbEntity
100
AcDbLine
  8
0
 62
256
370
-1
 48
1.0
  6
BYLAYER
 10
-15.194265563960913
 20
137.20752328154077
 30
0.0
 11
0.906794436038158
 21
137.20752328154077
 31
0.0
  0
ARC
  5
1C3
100
AcDbEntity
  8
0
 62
256
370
-1
 48
1.0
  6
BYLAYER
100
AcDbCircle
 10
-63.531234731161341
 20
1.7668680233608041
 30
0.0
 40
2.5000000000010565
100
AcDbArc
 50
120.0
 51
180.0
  0
LINE
  5
1C4
100
AcDbEntity
100
AcDbLine
  8
0
 62
256
370
-1
 48
1.0
  6
BYLAYER
 10
-15.194265563961077
 20
153.30858328154079
 30
0.0
 11
0.9067944360421972
 21
153.30858328154079
 31
0.0
  0
ARC
  5
1C5
100
AcDbEntity
  8
0
 62
256
370
-1
 48
1.0
  6
BYLAYER
100
AcDbCircle
 10
-63.031234732941329
 20
8.9837463886607445
 30
0.0
 40
3.4999999999990221
100
AcDbArc
 50
300.0
 51
0.0
  0
LINE
  5
1C6
100
AcDbEntity
100
AcDbLine
  8
0
 62
256
370
-1
 48
1.0
  6
BYLAYER
 10
-15.194265563961027
 20
156.25752328154073
 30
0.0
 11
-15.194265563961073
 21
172.35858328154075
 31
0.0
  0
ARC
  5
1C7
100
AcDbEntity
  8
0
 62
256
370
-1
 48
1.0
  6
BYLAYER
100
AcDbCircle
 10
-63.031234732941336
 20
71.014091273620735
 30
0.0
 40
3.5000000000008282
100
AcDbArc
 50
0.0
 51
59.999999999999986
  0
LINE
  5
1C8
100
AcDbEntity
100
AcDbLine
  8
0
 62
256
370
-1
 48
1.0
  6
BYLAYER
 10
0.9067944360364526
 20
156.25752328154073
 30
0.0
 11
0.9067944360408695
 21
172.35858328154075
 31
0.0
  0
ARC
  5
1C9
100
AcDbEntity
  8
0
 62
256
370
-1
 48
1.0
  6
BYLAYER
100
AcDbCircle
 10
-63.531234731161312
 20
78.230969638920683
 30
0.0
 40
2.4999999999995937
100
AcDbArc
 50
180.0
 51
240.00000000000003
  0
LINE
  5
1CA
100
AcDbEntity
100
AcDbLine
  8
0
 62
256
370
-1
 48
1.0
  6
BYLAYER
 10
-15.194265563961027
 20
156.25752328154073
 30
0.0
 11
0.9067944360364526
 21
156.25752328154073
 31
0.0
  0
ARC
  5
1CB
100
AcDbEntity
  8
0
 62
256
370
-1
 48
1.0
  6
BYLAYER
100
AcDbCircle
 10
-63.531234731161305
 20
81.766868023040857
 30
0.0
 40
2.5000000000013434
100
AcDbArc
 50
120.0
 51
180.0
  0
LINE
  5
1CC
100
AcDbEntity
100
AcDbLine
  8
0
 62
256
370
-1
 48
1.0
  6
BYLAYER
 10
-15.194265563961073
 20
172.35858328154075
 30
0.0
 11
0.9067944360408695
 21
172.35858328154075
 31
0.0
  0
ARC
  5
1CD
100
AcDbEntity
  8
0
 62
256
370
-1
 48
1.0
  6
BYLAYER
100
AcDbCircle
 10
-63.031234732941357
 20
88.983746388340748
 30
0.0
 40
3.4999999999975797
100
AcDbArc
 50
300.0
 51
0.0
  0
LINE
  5
1CE
100
AcDbEntity
100
AcDbLine
  8
0
 62
256
370
-1
 48
1.0
  6
BYLAYER
 10
3.8557344360395254
 20
-169.97372671845923
 30
0.0
 11
3.8557344360378831
 21
-149.11016671845923
 31
0.0
  0
ARC
  5
1CF
100
AcDbEntity
  8
0
 62
256
370
-1
 48
1.0
  6
BYLAYER
100
AcDbCircle
 10
-58.531234731181428
 20
109.10889619892077
 30
0.0
 40
0.9999999999995916
100
AcDbArc
 50
90.0
 51
180.0
  0
LINE
  5
1D0
100
AcDbEntity
100
AcDbLine
  8
0
 62
256
370
-1
 48
1.0
  6
BYLAYER
 10
19.956794436038813
 20
-169.97372671845923
 30
0.0
 11
19.956794436038741
 21
-149.11016671845923
 31
0.0
  0
LINE
  5
1D1
100
AcDbEntity
100
AcDbLine
  8
0
 62
256
370
-1
 48
1.0
  6
BYLAYER
 10
3.8557344360395254
 20
-169.97372671845923
 30
0.0
 11
19.956794436038813
 21
-169.97372671845923
 31
0.0
  0
LINE
  5
1D2
100
AcDbEntity
100
AcDbLine
  8
0
 62
256
370
-1
 48
1.0
  6
BYLAYER
 10
3.8557344360378831
 20
-149.11016671845923
 30
0.0
 11
19.956794436038741
 21
-149.11016671845923
 31
0.0
  0
ARC
  5
1D3
100
AcDbEntity
  8
0
 62
256
370
-1
 48
1.0
  6
BYLAYER
100
AcDbCircle
 10
-58.531234731181399
 20
119.4975509841808
 30
0.0
 40
1.0000000000001326
100
AcDbArc
 50
180.0
 51
270.0
  0
LINE
  5
1D4
100
AcDbEntity
100
AcDbLine
  8
0
 62
256
370
-1
 48
1.0
  6
BYLAYER
 10
3.8557344360391652
 20
-139.01747671845922
 30
0.0
 11
3.8557344360386976
 21
-122.91641671845923
 31
0.0
  0
ARC
  5
1D5
100
AcDbEntity
  8
0
 62
256
370
-1
 48
1.0
  6
BYLAYER
100
AcDbCircle
 10
-38.100015575921297
 20
121.10755098490085
 30
0.0
 40
1.9000000000001089
100
AcDbArc
 50
180.0
 51
0.0
  0
LINE
  5
1D6
100
AcDbEntity
100
AcDbLine
  8
0
 62
256
370
-1
 48
1.0
  6
BYLAYER
 10
19.956794436038734
 20
-139.01747671845922
 30
0.0
 11
19.956794436038766
 21
-122.91641671845923
 31
0.0
  0
ARC
  5
1D7
100
AcDbEntity
  8
0
 62
256
370
-1
 48
1.0
  6
BYLAYER
100
AcDbCircle
 10
-38.100015575921333
 20
169.4075265717006
 30
0.0
 40
1.9000000000001089
100
AcDbArc
 50
0.0
 51
180.0
  0
LINE
  5
1D8
100
AcDbEntity
100
AcDbLine
  8
0
 62
256
370
-1
 48
1.0
  6
BYLAYER
 10
3.8557344360391652
 20
-139.01747671845922
 30
0.0
 11
19.956794436038734
 21
-139.01747671845922
 31
0.0
  0
ARC
  5
1D9
100
AcDbEntity
  8
0
 62
256
370
-1
 48
1.0
  6
BYLAYER
100
AcDbCircle
 10
-38.100015575921326
 20
-45.579979533199108
 30
0.0
 40
1.9000000000001089
100
AcDbArc
 50
180.0
 51
0.0
  0
LINE
  5
1DA
100
AcDbEntity
100
AcDbLine
  8
0
 62
256
370
-1
 48
1.0
  6
BYLAYER
 10
3.8557344360386976
 20
-122.91641671845923
 30
0.0
 11
19.956794436038766
 21
-122.91641671845923
 31
0.0
  0
ARC
  5
1DB
100
AcDbEntity
  8
0
 62
256
370
-1
 48
1.0
  6
BYLAYER
100
AcDbCircle
 10
-38.100015575921347
 20
21.770014364460796
 30
0.0
 40
1.9000000000001089
100
AcDbArc
 50
0.0
 51
180.0
  0
LINE
  5
1DC
100
AcDbEntity
100
AcDbLine
  8
0
 62
256
370
-1
 48
1.0
  6
BYLAYER
 10
3.855734436038861
 20
-119.96747671845924
 30
0.0
 11
3.8557344360386221
 21
-103.86641671845923
 31
0.0
  0
ARC
  5
1DD
100
AcDbEntity
  8
0
 62
256
370
-1
 48
1.0
  6
BYLAYER
100
AcDbCircle
 10
-38.100015575921397
 20
-131.30498563681937
 30
0.0
 40
1.9000000000001089
100
AcDbArc
 50
180.0
 51
0.0
  0
LINE
  5
1DE
100
AcDbEntity
100
AcDbLine
  8
0
 62
256
370
-1
 48
1.0
  6
BYLAYER
 10
19.956794436038763
 20
-119.96747671845924
 30
0.0
 11
19.956794436038678
 21
-103.86641671845926
 31
0.0
  0
ARC
  5
1DF
100
AcDbEntity
  8
0
 62
256
370
-1
 48
1.0
  6
BYLAYER
100
AcDbCircle
 10
-38.100015575921354
 20
-63.954961221059165
 30
0.0
 40
1.9000000000001089
100
AcDbArc
 50
0.0
 51
180.0
  0
LINE
  5
1E0
100
AcDbEntity
100
AcDbLine
  8
0
 62
256
370
-1
 48
1.0
  6
BYLAYER
 10
3.855734436038861
 20
-119.96747671845924
 30
0.0
 11
19.956794436038763
 21
-119.96747671845924
 31
0.0
  0
ARC
  5
1E1
100
AcDbEntity
  8
0
 62
256
370
-1
 48
1.0
  6
BYLAYER
100
AcDbCircle
 10
-38.100015575921347
 20
40.145026570420839
 30
0.0
 40
1.9000000000001089
100
AcDbArc
 50
180.0
 51
0.0
  0
LINE
  5
1E2
100
AcDbEntity
100
AcDbLine
  8
0
 62
256
370
-1
 48
1.0
  6
BYLAYER
 10
3.8557344360386221
 20
-103.86641671845923
 30
0.0
 11
19.956794436038678
 21
-103.86641671845926
 31
0.0
  0
ARC
  5
1E3
100
AcDbEntity
  8
0
 62
256
370
-1
 48
1.0
  6
BYLAYER
100
AcDbCircle
 10
-38.100015575921354
 20
107.49889620074077
 30
0.0
 40
1.9000000000001089
100
AcDbArc
 50
0.0
 51
180.0
  0
LINE
  5
1E4
100
AcDbEntity
100
AcDbLine
  8
0
 62
256
370
-1
 48
1.0
  6
BYLAYER
 10
3.8557344360387042
 20
-100.91747671845923
 30
0.0
 11
3.8557344360388148
 21
-84.816416718459223
 31
0.0
  0
ARC
  5
1E5
100
AcDbEntity
  8
0
 62
256
370
-1
 48
1.0
  6
BYLAYER
100
AcDbCircle
 10
-46.506265575681425
 20
-150.12837823125912
 30
0.0
 40
1.9999999999997649
100
AcDbArc
 50
125.6853347126
 51
180.0
  0
LINE
  5
1E6
100
AcDbEntity
100
AcDbLine
  8
0
 62
256
370
-1
 48
1.0
  6
BYLAYER
 10
19.956794436038731
 20
-100.91747671845923
 30
0.0
 11
19.956794436038681
 21
-84.816416718459251
 31
0.0
  0
ARC
  5
1E7
100
AcDbEntity
  8
0
 62
256
370
-1
 48
1.0
  6
BYLAYER
100
AcDbCircle
 10
-50.006265575921361
 20
-145.25498105909935
 30
0.0
 40
4.0000000000001164
100
AcDbArc
 50
305.68533471259997
 51
54.31466528739999
  0
LINE
  5
1E8
100
AcDbEntity
100
AcDbLine
  8
0
 62
256
370
-1
 48
1.0
  6
BYLAYER
 10
3.8557344360387042
 20
-100.91747671845923
 30
0.0
 11
19.956794436038731
 21
-100.91747671845923
 31
0.0
  0
ARC
  5
1E9
100
AcDbEntity
  8
0
 62
256
370
-1
 48
1.0
  6
BYLAYER
100
AcDbCircle
 10
-46.506265575681368
 20
-140.38158388693915
 30
0.0
 40
2.0000000000004787
100
AcDbArc
 50
180.0
 51
234.31466528729999
  0
LINE
  5
1EA
100
AcDbEntity
100
AcDbLine
  8
0
 62
256
370
-1
 48
1.0
  6
BYLAYER
 10
3.8557344360388148
 20
-84.816416718459223
 30
0.0
 11
19.956794436038681
 21
-84.816416718459251
 31
0.0
  0
ARC
  5
1EB
100
AcDbEntity
  8
0
 62
256
370
-1
 48
1.0
  6
BYLAYER
100
AcDbCircle
 10
-50.006265575921461
 20
-136.75498105887928
 30
0.0
 40
1.5000000000002001
100
AcDbArc
 50
0.0
 51
180.0
  0
LINE
  5
1EC
100
AcDbEntity
100
AcDbLine
  8
0
 62
256
370
-1
 48
1.0
  6
BYLAYER
 10
3.855734436038655
 20
-81.86747671845923
 30
0.0
 11
3.8557344360387455
 21
-65.76641671845924
 31
0.0
  0
ARC
  5
1ED
100
AcDbEntity
  8
0
 62
256
370
-1
 48
1.0
  6
BYLAYER
100
AcDbCircle
 10
-53.506265576161461
 20
-140.38158388693918
 30
0.0
 40
2.0000000000017102
100
AcDbArc
 50
305.68533471270001
 51
0.0
  0
LINE
  5
1EE
100
AcDbEntity
100
AcDbLine
  8
0
 62
256
370
-1
 48
1.0
  6
BYLAYER
 10
19.956794436038646
 20
-81.867476718459244
 30
0.0
 11
19.956794436038699
 21
-65.766416718459254
 31
0.0
  0
ARC
  5
1EF
100
AcDbEntity
  8
0
 62
256
370
-1
 48
1.0
  6
BYLAYER
100
AcDbCircle
 10
-50.006265575921361
 20
-145.25498105909935
 30
0.0
 40
3.999999999999468
100
AcDbArc
 50
125.6853347127
 51
234.31466528729999
  0
LINE
  5
1F0
100
AcDbEntity
100
AcDbLine
  8
0
 62
256
370
-1
 48
1.0
  6
BYLAYER
 10
3.855734436038655
 20
-81.86747671845923
 30
0.0
 11
19.956794436038646
 21
-81.867476718459244
 31
0.0
  0
ARC
  5
1F1
100
AcDbEntity
  8
0
 62
256
370
-1
 48
1.0
  6
BYLAYER
100
AcDbCircle
 10
-53.506265576161546
 20
-150.12837823125915
 30
0.0
 40
2.0000000000010649
100
AcDbArc
 50
0.0
 51
54.31466528739999
  0
LINE
  5
1F2
100
AcDbEntity
100
AcDbLine
  8
0
 62
256
370
-1
 48
1.0
  6
BYLAYER
 10
3.8557344360387455
 20
-65.76641671845924
 30
0.0
 11
19.956794436038699
 21
-65.766416718459254
 31
0.0
  0
ARC
  5
1F3
100
AcDbEntity
  8
0
 62
256
370
-1
 48
1.0
  6
BYLAYER
100
AcDbCircle
 10
-50.006265575921326
 20
-153.75498105931908
 30
0.0
 40
1.4999999999998392
100
AcDbArc
 50
180.0
 51
0.0
  0
LINE
  5
1F4
100
AcDbEntity
100
AcDbLine
  8
0
 62
256
370
-1
 48
1.0
  6
BYLAYER
 10
3.8557344360387948
 20
-62.817476718459233
 30
0.0
 11
3.8557344360387065
 21
-46.71641671845925
 31
0.0
  0
ARC
  5
1F5
100
AcDbEntity
  8
0
 62
256
370
-1
 48
1.0
  6
BYLAYER
100
AcDbCircle
 10
-38.100015575921176
 20
-169.40497648011913
 30
0.0
 40
1.9000000000001089
100
AcDbArc
 50
180.0
 51
0.0
  0
LINE
  5
1F6
100
AcDbEntity
100
AcDbLine
  8
0
 62
256
370
-1
 48
1.0
  6
BYLAYER
 10
19.956794436038788
 20
-62.817476718459226
 30
0.0
 11
19.956794436038734
 21
-46.71641671845925
 31
0.0
  0
ARC
  5
1F7
100
AcDbEntity
  8
0
 62
256
370
-1
 48
1.0
  6
BYLAYER
100
AcDbCircle
 10
-38.100015575921297
 20
-159.20497648137933
 30
0.0
 40
1.9000000000001089
100
AcDbArc
 50
0.0
 51
180.0
  0
LINE
  5
1F8
100
AcDbEntity
100
AcDbLine
  8
0
 62
256
370
-1
 48
1.0
  6
BYLAYER
 10
3.8557344360387948
 20
-62.817476718459233
 30
0.0
 11
19.956794436038788
 21
-62.817476718459226
 31
0.0
  0
LINE
  5
1F9
100
AcDbEntity
100
AcDbLine
  8
0
 62
256
370
-1
 48
1.0
  6
BYLAYER
 10
3.8557344360387065
 20
-46.71641671845925
 30
0.0
 11
19.956794436038734
 21
-46.71641671845925
 31
0.0
  0
LINE
  5
1FA
100
AcDbEntity
100
AcDbLine
  8
0
 62
256
370
-1
 48
1.0
  6
BYLAYER
 10
3.8557344360387278
 20
-43.767476718459228
 30
0.0
 11
3.8557344360387407
 21
-27.666416718459232
 31
0.0
  0
LINE
  5
1FB
100
AcDbEntity
100
AcDbLine
  8
0
 62
256
370
-1
 48
1.0
  6
BYLAYER
 10
19.956794436038727
 20
-43.767476718459228
 30
0.0
 11
19.956794436038738
 21
-27.666416718459249
 31
0.0
  0
LINE
  5
1FC
100
AcDbEntity
100
AcDbLine
  8
0
 62
256
370
-1
 48
1.0
  6
BYLAYER
 10
-58.056765563961314
 20
-156.25497671845918
 30
0.0
 11
-58.056765563961186
 21
-172.35497671845923
 31
0.0
  0
LINE
  5
1FD
100
AcDbEntity
100
AcDbLine
  8
0
 62
256
370
-1
 48
1.0
  6
BYLAYER
 10
3.8557344360387278
 20
-43.767476718459228
 30
0.0
 11
19.956794436038727
 21
-43.767476718459228
 31
0.0
  0
LINE
  5
1FE
100
AcDbEntity
100
AcDbLine
  8
0
 62
256
370
-1
 48
1.0
  6
BYLAYER
 10
3.8557344360387407
 20
-27.666416718459232
 30
0.0
 11
19.956794436038738
 21
-27.666416718459249
 31
0.0
  0
LINE
  5
1FF
100
AcDbEntity
100
AcDbLine
  8
0
 62
256
370
-1
 48
1.0
  6
BYLAYER
 10
-58.056765563961186
 20
-172.35497671845923
 30
0.0
 11
-41.955765563961343
 21
-172.3549767184592
 31
0.0
  0
LINE
  5
200
100
AcDbEntity
100
AcDbLine
  8
0
 62
256
370
-1
 48
1.0
  6
BYLAYER
 10
3.8557344360387331
 20
-24.717476718459242
 30
0.0
 11
3.8557344360387558
 21
-8.6164167184592504
 31
0.0
  0
LINE
  5
201
100
AcDbEntity
100
AcDbLine
  8
0
 62
256
370
-1
 48
1.0
  6
BYLAYER
 10
-41.955765563961343
 20
-172.3549767184592
 30
0.0
 11
-41.955765563961229
 21
-156.2549767184592
 31
0.0
  0
LINE
  5
202
100
AcDbEntity
100
AcDbLine
  8
0
 62
256
370
-1
 48
1.0
  6
BYLAYER
 10
19.956794436038745
 20
-24.717476718459253
 30
0.0
 11
19.956794436038759
 21
-8.6164167184592539
 31
0.0
  0
LINE
  5
203
100
AcDbEntity
100
AcDbLine
  8
0
 62
256
370
-1
 48
1.0
  6
BYLAYER
 10
3.8557344360387331
 20
-24.717476718459242
 30
0.0
 11
19.956794436038745
 21
-24.717476718459253
 31
0.0
  0
LINE
  5
204
100
AcDbEntity
100
AcDbLine
  8
0
 62
256
370
-1
 48
1.0
  6
BYLAYER
 10
3.8557344360387558
 20
-8.6164167184592504
 30
0.0
 11
19.956794436038759
 21
-8.6164167184592539
 31
0.0
  0
LINE
  5
205
100
AcDbEntity
100
AcDbLine
  8
0
 62
256
370
-1
 48
1.0
  6
BYLAYER
 10
-58.056765563961314
 20
-156.25497671845918
 30
0.0
 11
-41.955765563961229
 21
-156.2549767184592
 31
0.0
  0
LINE
  5
206
100
AcDbEntity
100
AcDbLine
  8
0
 62
256
370
-1
 48
1.0
  6
BYLAYER
 10
3.8557344360387549
 20
-5.6674767184592296
 30
0.0
 11
3.8557344360387598
 21
10.433583281540763
 31
0.0
  0
LINE
  5
207
100
AcDbEntity
100
AcDbLine
  8
0
 62
256
370
-1
 48
1.0
  6
BYLAYER
 10
19.956794436038759
 20
-5.6674767184592305
 30
0.0
 11
19.95679443603877
 21
10.433583281540752
 31
0.0
  0
LINE
  5
208
100
AcDbEntity
100
AcDbLine
  8
0
 62
256
370
-1
 48
1.0
  6
BYLAYER
 10
3.8557344360387549
 20
-5.6674767184592296
 30
0.0
 11
19.956794436038759
 21
-5.6674767184592305
 31
0.0
  0
LINE
  5
209
100
AcDbEntity
100
AcDbLine
  8
0
 62
256
370
-1
 48
1.0
  6
BYLAYER
 10
3.8557344360387598
 20
10.433583281540763
 30
0.0
 11
19.95679443603877
 21
10.433583281540752
 31
0.0
  0
LINE
  5
20A
100
AcDbEntity
100
AcDbLine
  8
0
 62
256
370
-1
 48
1.0
  6
BYLAYER
 10
3.8557344360387686
 20
13.382523281540752
 30
0.0
 11
3.8557344360387509
 21
29.483583281540746
 31
0.0
  0
LINE
  5
20B
100
AcDbEntity
100
AcDbLine
  8
0
 62
256
370
-1
 48
1.0
  6
BYLAYER
 10
19.956794436038766
 20
13.382523281540752
 30
0.0
 11
19.956794436038763
 21
29.483583281540739
 31
0.0
  0
LINE
  5
20C
100
AcDbEntity
100
AcDbLine
  8
0
 62
256
370
-1
 48
1.0
  6
BYLAYER
 10
3.8557344360387686
 20
13.382523281540752
 30
0.0
 11
19.956794436038766
 21
13.382523281540752
 31
0.0
  0
LINE
  5
20D
100
AcDbEntity
100
AcDbLine
  8
0
 62
256
370
-1
 48
1.0
  6
BYLAYER
 10
3.8557344360387509
 20
29.483583281540746
 30
0.0
 11
19.956794436038763
 21
29.483583281540739
 31
0.0
  0
LINE
  5
20E
100
AcDbEntity
100
AcDbLine
  8
0
 62
256
370
-1
 48
1.0
  6
BYLAYER
 10
3.8557344360387513
 20
32.432523281540767
 30
0.0
 11
3.8557344360387611
 21
48.533583281540785
 31
0.0
  0
LINE
  5
20F
100
AcDbEntity
100
AcDbLine
  8
0
 62
256
370
-1
 48
1.0
  6
BYLAYER
 10
19.956794436038784
 20
32.432523281540753
 30
0.0
 11
19.956794436038777
 21
48.533583281540778
 31
0.0
  0
LINE
  5
210
100
AcDbEntity
100
AcDbLine
  8
0
 62
256
370
-1
 48
1.0
  6
BYLAYER
 10
3.8557344360387513
 20
32.432523281540767
 30
0.0
 11
19.956794436038784
 21
32.432523281540753
 31
0.0
  0
LINE
  5
211
100
AcDbEntity
100
AcDbLine
  8
0
 62
256
370
-1
 48
1.0
  6
BYLAYER
 10
3.8557344360387611
 20
48.533583281540785
 30
0.0
 11
19.956794436038777
 21
48.533583281540778
 31
0.0
  0
LINE
  5
212
100
AcDbEntity
100
AcDbLine
  8
0
 62
256
370
-1
 48
1.0
  6
BYLAYER
 10
3.8557344360388424
 20
51.48252328154075
 30
0.0
 11
3.8557344360387429
 21
67.583583281540768
 31
0.0
  0
LINE
  5
213
100
AcDbEntity
100
AcDbLine
  8
0
 62
256
370
-1
 48
1.0
  6
BYLAYER
 10
19.956794436038784
 20
51.482523281540743
 30
0.0
 11
19.956794436038802
 21
67.583583281540754
 31
0.0
  0
LINE
  5
214
100
AcDbEntity
100
AcDbLine
  8
0
 62
256
370
-1
 48
1.0
  6
BYLAYER
 10
3.8557344360388424
 20
51.48252328154075
 30
0.0
 11
19.956794436038784
 21
51.482523281540743
 31
0.0
  0
LINE
  5
215
100
AcDbEntity
100
AcDbLine
  8
0
 62
256
370
-1
 48
1.0
  6
BYLAYER
 10
3.8557344360387429
 20
67.583583281540768
 30
0.0
 11
19.956794436038802
 21
67.583583281540754
 31
0.0
  0
LINE
  5
216
100
AcDbEntity
100
AcDbLine
  8
0
 62
256
370
-1
 48
1.0
  6
BYLAYER
 10
22.905734436038738
 20
77.677543281540721
 30
0.0
 11
22.905734436038788
 21
93.776063281540743
 31
0.0
  0
LINE
  5
217
100
AcDbEntity
100
AcDbLine
  8
0
 62
256
370
-1
 48
1.0
  6
BYLAYER
 10
3.8557344360387225
 20
82.440043281540767
 30
0.0
 11
3.8557344360387287
 21
98.538563281540803
 31
0.0
  0
LINE
  5
218
100
AcDbEntity
100
AcDbLine
  8
0
 62
256
370
-1
 48
1.0
  6
BYLAYER
 10
-34.244265563961235
 20
84.821293281540704
 30
0.0
 11
-34.244265563961278
 21
100.91981328154077
 31
0.0
  0
LINE
  5
219
100
AcDbEntity
100
AcDbLine
  8
0
 62
256
370
-1
 48
1.0
  6
BYLAYER
 10
22.905734436038834
 20
-129.49247671845922
 30
0.0
 11
22.905734436038749
 21
-113.39141671845923
 31
0.0
  0
LINE
  5
21A
100
AcDbEntity
100
AcDbLine
  8
0
 62
256
370
-1
 48
1.0
  6
BYLAYER
 10
39.006794436038845
 20
-129.49247671845922
 30
0.0
 11
39.006794436038675
 21
-113.39141671845924
 31
0.0
  0
LINE
  5
21B
100
AcDbEntity
100
AcDbLine
  8
0
 62
256
370
-1
 48
1.0
  6
BYLAYER
 10
22.905734436038834
 20
-129.49247671845922
 30
0.0
 11
39.006794436038845
 21
-129.49247671845922
 31
0.0
  0
LINE
  5
21C
100
AcDbEntity
100
AcDbLine
  8
0
 62
256
370
-1
 48
1.0
  6
BYLAYER
 10
22.905734436038749
 20
-113.39141671845923
 30
0.0
 11
39.006794436038675
 21
-113.39141671845924
 31
0.0
  0
LINE
  5
21D
100
AcDbEntity
100
AcDbLine
  8
0
 62
256
370
-1
 48
1.0
  6
BYLAYER
 10
22.90573443603861
 20
-110.44247671845926
 30
0.0
 11
22.905734436038724
 21
-94.341416718459243
 31
0.0
  0
LINE
  5
21E
100
AcDbEntity
100
AcDbLine
  8
0
 62
256
370
-1
 48
1.0
  6
BYLAYER
 10
39.006794436038781
 20
-110.44247671845923
 30
0.0
 11
39.006794436038774
 21
-94.341416718459215
 31
0.0
  0
LINE
  5
21F
100
AcDbEntity
100
AcDbLine
  8
0
 62
256
370
-1
 48
1.0
  6
BYLAYER
 10
22.90573443603861
 20
-110.44247671845926
 30
0.0
 11
39.006794436038781
 21
-110.44247671845923
 31
0.0
  0
LINE
  5
220
100
AcDbEntity
100
AcDbLine
  8
0
 62
256
370
-1
 48
1.0
  6
BYLAYER
 10
22.905734436038724
 20
-94.341416718459243
 30
0.0
 11
39.006794436038774
 21
-94.341416718459215
 31
0.0
  0
LINE
  5
221
100
AcDbEntity
100
AcDbLine
  8
0
 62
256
370
-1
 48
1.0
  6
BYLAYER
 10
22.905734436038738
 20
-91.39247671845925
 30
0.0
 11
22.905734436038774
 21
-75.291416718459232
 31
0.0
  0
LINE
  5
222
100
AcDbEntity
100
AcDbLine
  8
0
 62
256
370
-1
 48
1.0
  6
BYLAYER
 10
39.006794436038675
 20
-91.392476718459264
 30
0.0
 11
39.006794436038774
 21
-75.291416718459217
 31
0.0
  0
LINE
  5
223
100
AcDbEntity
100
AcDbLine
  8
0
 62
256
370
-1
 48
1.0
  6
BYLAYER
 10
22.905734436038738
 20
-91.39247671845925
 30
0.0
 11
39.006794436038675
 21
-91.392476718459264
 31
0.0
  0
LINE
  5
224
100
AcDbEntity
100
AcDbLine
  8
0
 62
256
370
-1
 48
1.0
  6
BYLAYER
 10
22.905734436038774
 20
-75.291416718459232
 30
0.0
 11
39.006794436038774
 21
-75.291416718459217
 31
0.0
  0
LINE
  5
225
100
AcDbEntity
100
AcDbLine
  8
0
 62
256
370
-1
 48
1.0
  6
BYLAYER
 10
22.905734436038706
 20
-72.342476718459253
 30
0.0
 11
22.905734436038696
 21
-56.241416718459256
 31
0.0
  0
LINE
  5
226
100
AcDbEntity
100
AcDbLine
  8
0
 62
256
370
-1
 48
1.0
  6
BYLAYER
 10
39.006794436038739
 20
-72.342476718459253
 30
0.0
 11
39.006794436038717
 21
-56.241416718459263
 31
0.0
  0
LINE
  5
227
100
AcDbEntity
100
AcDbLine
  8
0
 62
256
370
-1
 48
1.0
  6
BYLAYER
 10
22.905734436038706
 20
-72.342476718459253
 30
0.0
 11
39.006794436038739
 21
-72.342476718459253
 31
0.0
  0
LINE
  5
228
100
AcDbEntity
100
AcDbLine
  8
0
 62
256
370
-1
 48
1.0
  6
BYLAYER
 10
22.905734436038696
 20
-56.241416718459256
 30
0.0
 11
39.006794436038717
 21
-56.241416718459263
 31
0.0
  0
LINE
  5
229
100
AcDbEntity
100
AcDbLine
  8
0
 62
256
370
-1
 48
1.0
  6
BYLAYER
 10
22.905734436038756
 20
-53.292476718459227
 30
0.0
 11
22.905734436038749
 21
-37.191416718459237
 31
0.0
  0
LINE
  5
22A
100
AcDbEntity
100
AcDbLine
  8
0
 62
256
370
-1
 48
1.0
  6
BYLAYER
 10
39.006794436038739
 20
-53.292476718459241
 30
0.0
 11
39.006794436038767
 21
-37.19141671845923
 31
0.0
  0
LINE
  5
22B
100
AcDbEntity
100
AcDbLine
  8
0
 62
256
370
-1
 48
1.0
  6
BYLAYER
 10
22.905734436038756
 20
-53.292476718459227
 30
0.0
 11
39.006794436038739
 21
-53.292476718459241
 31
0.0
  0
LINE
  5
22C
100
AcDbEntity
100
AcDbLine
  8
0
 62
256
370
-1
 48
1.0
  6
BYLAYER
 10
22.905734436038749
 20
-37.191416718459237
 30
0.0
 11
39.006794436038767
 21
-37.19141671845923
 31
0.0
  0
LINE
  5
22D
100
AcDbEntity
100
AcDbLine
  8
0
 62
256
370
-1
 48
1.0
  6
BYLAYER
 10
22.905734436038742
 20
-34.242476718459258
 30
0.0
 11
22.905734436038745
 21
-18.141416718459265
 31
0.0
  0
LINE
  5
22E
100
AcDbEntity
100
AcDbLine
  8
0
 62
256
370
-1
 48
1.0
  6
BYLAYER
 10
39.006794436038767
 20
-34.242476718459237
 30
0.0
 11
39.006794436038767
 21
-18.141416718459247
 31
0.0
  0
LINE
  5
22F
100
AcDbEntity
100
AcDbLine
  8
0
 62
256
370
-1
 48
1.0
  6
BYLAYER
 10
22.905734436038742
 20
-34.242476718459258
 30
0.0
 11
39.006794436038767
 21
-34.242476718459237
 31
0.0
  0
LINE
  5
230
100
AcDbEntity
100
AcDbLine
  8
0
 62
256
370
-1
 48
1.0
  6
BYLAYER
 10
22.905734436038745
 20
-18.141416718459265
 30
0.0
 11
39.006794436038767
 21
-18.141416718459247
 31
0.0
  0
LINE
  5
231
100
AcDbEntity
100
AcDbLine
  8
0
 62
256
370
-1
 48
1.0
  6
BYLAYER
 10
22.90573443603876
 20
-15.192476718459227
 30
0.0
 11
22.905734436038756
 21
0.9085832815407522
 31
0.0
  0
LINE
  5
232
100
AcDbEntity
100
AcDbLine
  8
0
 62
256
370
-1
 48
1.0
  6
BYLAYER
 10
39.006794436038746
 20
-15.192476718459256
 30
0.0
 11
39.006794436038767
 21
0.9085832815407274
 31
0.0
  0
LINE
  5
233
100
AcDbEntity
100
AcDbLine
  8
0
 62
256
370
-1
 48
1.0
  6
BYLAYER
 10
22.90573443603876
 20
-15.192476718459227
 30
0.0
 11
39.006794436038746
 21
-15.192476718459256
 31
0.0
  0
LINE
  5
234
100
AcDbEntity
100
AcDbLine
  8
0
 62
256
370
-1
 48
1.0
  6
BYLAYER
 10
22.905734436038756
 20
0.9085832815407522
 30
0.0
 11
39.006794436038767
 21
0.9085832815407274
 31
0.0
  0
LINE
  5
235
100
AcDbEntity
100
AcDbLine
  8
0
 62
256
370
-1
 48
1.0
  6
BYLAYER
 10
22.905734436038756
 20
3.8575232815407476
 30
0.0
 11
22.905734436038767
 21
19.958583281540754
 31
0.0
  0
LINE
  5
236
100
AcDbEntity
100
AcDbLine
  8
0
 62
256
370
-1
 48
1.0
  6
BYLAYER
 10
39.00679443603876
 20
3.8575232815407308
 30
0.0
 11
39.006794436038781
 21
19.958583281540736
 31
0.0
  0
LINE
  5
237
100
AcDbEntity
100
AcDbLine
  8
0
 62
256
370
-1
 48
1.0
  6
BYLAYER
 10
22.905734436038756
 20
3.8575232815407476
 30
0.0
 11
39.00679443603876
 21
3.8575232815407308
 31
0.0
  0
LINE
  5
238
100
AcDbEntity
100
AcDbLine
  8
0
 62
256
370
-1
 48
1.0
  6
BYLAYER
 10
22.905734436038767
 20
19.958583281540754
 30
0.0
 11
39.006794436038781
 21
19.958583281540736
 31
0.0
  0
LINE
  5
239
100
AcDbEntity
100
AcDbLine
  8
0
 62
256
370
-1
 48
1.0
  6
BYLAYER
 10
22.90573443603876
 20
22.907523281540758
 30
0.0
 11
22.90573443603877
 21
39.008583281540766
 31
0.0
  0
LINE
  5
23A
100
AcDbEntity
100
AcDbLine
  8
0
 62
256
370
-1
 48
1.0
  6
BYLAYER
 10
39.006794436038767
 20
22.907523281540755
 30
0.0
 11
39.006794436038746
 21
39.00858328154078
 31
0.0
  0
LINE
  5
23B
100
AcDbEntity
100
AcDbLine
  8
0
 62
256
370
-1
 48
1.0
  6
BYLAYER
 10
22.90573443603876
 20
22.907523281540758
 30
0.0
 11
39.006794436038767
 21
22.907523281540755
 31
0.0
  0
LINE
  5
23C
100
AcDbEntity
100
AcDbLine
  8
0
 62
256
370
-1
 48
1.0
  6
BYLAYER
 10
22.90573443603877
 20
39.008583281540766
 30
0.0
 11
39.006794436038746
 21
39.00858328154078
 31
0.0
  0
LINE
  5
23D
100
AcDbEntity
100
AcDbLine
  8
0
 62
256
370
-1
 48
1.0
  6
BYLAYER
 10
22.905734436038749
 20
41.95752328154078
 30
0.0
 11
22.905734436038781
 21
58.058583281540756
 31
0.0
  0
LINE
  5
23E
100
AcDbEntity
100
AcDbLine
  8
0
 62
256
370
-1
 48
1.0
  6
BYLAYER
 10
39.00679443603876
 20
41.957523281540766
 30
0.0
 11
39.00679443603881
 21
58.058583281540741
 31
0.0
  0
LINE
  5
23F
100
AcDbEntity
100
AcDbLine
  8
0
 62
256
370
-1
 48
1.0
  6
BYLAYER
 10
22.905734436038749
 20
41.95752328154078
 30
0.0
 11
39.00679443603876
 21
41.957523281540766
 31
0.0
  0
LINE
  5
240
100
AcDbEntity
100
AcDbLine
  8
0
 62
256
370
-1
 48
1.0
  6
BYLAYER
 10
22.905734436038781
 20
58.058583281540756
 30
0.0
 11
39.00679443603881
 21
58.058583281540741
 31
0.0
  0
LINE
  5
241
100
AcDbEntity
100
AcDbLine
  8
0
 62
256
370
-1
 48
1.0
  6
BYLAYER
 10
39.006794436038767
 20
77.67754328154075
 30
0.0
 11
39.00679443603881
 21
93.776063281540743
 31
0.0
  0
LINE
  5
242
100
AcDbEntity
100
AcDbLine
  8
0
 62
256
370
-1
 48
1.0
  6
BYLAYER
 10
22.905734436038788
 20
93.776063281540743
 30
0.0
 11
39.00679443603881
 21
93.776063281540743
 31
0.0
  0
LINE
  5
243
100
AcDbEntity
100
AcDbLine
  8
0
 62
256
370
-1
 48
1.0
  6
BYLAYER
 10
22.905734436038717
 20
137.20752328154077
 30
0.0
 11
22.905734436038856
 21
153.30858328154079
 31
0.0
  0
LINE
  5
244
100
AcDbEntity
100
AcDbLine
  8
0
 62
256
370
-1
 48
1.0
  6
BYLAYER
 10
39.006794436038717
 20
137.20752328154077
 30
0.0
 11
39.006794436038788
 21
153.30858328154079
 31
0.0
  0
LINE
  5
245
100
AcDbEntity
100
AcDbLine
  8
0
 62
256
370
-1
 48
1.0
  6
BYLAYER
 10
22.905734436038717
 20
137.20752328154077
 30
0.0
 11
39.006794436038717
 21
137.20752328154077
 31
0.0
  0
LINE
  5
246
100
AcDbEntity
100
AcDbLine
  8
0
 62
256
370
-1
 48
1.0
  6
BYLAYER
 10
22.905734436038856
 20
153.30858328154079
 30
0.0
 11
39.006794436038788
 21
153.30858328154079
 31
0.0
  0
LINE
  5
247
100
AcDbEntity
100
AcDbLine
  8
0
 62
256
370
-1
 48
1.0
  6
BYLAYER
 10
41.955734436038675
 20
-167.59247671845927
 30
0.0
 11
41.955734436038746
 21
-151.49141671845922
 31
0.0
  0
LINE
  5
248
100
AcDbEntity
100
AcDbLine
  8
0
 62
256
370
-1
 48
1.0
  6
BYLAYER
 10
58.056794436038722
 20
-167.59247671845924
 30
0.0
 11
58.056794436038786
 21
-151.49141671845922
 31
0.0
  0
LINE
  5
249
100
AcDbEntity
100
AcDbLine
  8
0
 62
256
370
-1
 48
1.0
  6
BYLAYER
 10
41.955734436038675
 20
-167.59247671845927
 30
0.0
 11
58.056794436038722
 21
-167.59247671845924
 31
0.0
  0
LINE
  5
24A
100
AcDbEntity
100
AcDbLine
  8
0
 62
256
370
-1
 48
1.0
  6
BYLAYER
 10
41.955734436038746
 20
-151.49141671845922
 30
0.0
 11
58.056794436038786
 21
-151.49141671845922
 31
0.0
  0
LINE
  5
24B
100
AcDbEntity
100
AcDbLine
  8
0
 62
256
370
-1
 48
1.0
  6
BYLAYER
 10
41.955734436038718
 20
-143.77997671845924
 30
0.0
 11
41.955734436038696
 21
-127.67891671845926
 31
0.0
  0
LINE
  5
24C
100
AcDbEntity
100
AcDbLine
  8
0
 62
256
370
-1
 48
1.0
  6
BYLAYER
 10
58.0567944360387
 20
-143.77997671845927
 30
0.0
 11
58.0567944360387
 21
-127.67891671845926
 31
0.0
  0
LINE
  5
24D
100
AcDbEntity
100
AcDbLine
  8
0
 62
256
370
-1
 48
1.0
  6
BYLAYER
 10
41.955734436038718
 20
-143.77997671845924
 30
0.0
 11
58.0567944360387
 21
-143.77997671845927
 31
0.0
  0
LINE
  5
24E
100
AcDbEntity
100
AcDbLine
  8
0
 62
256
370
-1
 48
1.0
  6
BYLAYER
 10
41.955734436038696
 20
-127.67891671845926
 30
0.0
 11
58.0567944360387
 21
-127.67891671845926
 31
0.0
  0
LINE
  5
24F
100
AcDbEntity
100
AcDbLine
  8
0
 62
256
370
-1
 48
1.0
  6
BYLAYER
 10
41.955734436038696
 20
-119.96747671845925
 30
0.0
 11
41.955734436038732
 21
-103.86641671845923
 31
0.0
  0
LINE
  5
250
100
AcDbEntity
100
AcDbLine
  8
0
 62
256
370
-1
 48
1.0
  6
BYLAYER
 10
58.056794436038686
 20
-119.96747671845925
 30
0.0
 11
58.056794436038807
 21
-103.86641671845922
 31
0.0
  0
LINE
  5
251
100
AcDbEntity
100
AcDbLine
  8
0
 62
256
370
-1
 48
1.0
  6
BYLAYER
 10
41.955734436038696
 20
-119.96747671845925
 30
0.0
 11
58.056794436038686
 21
-119.96747671845925
 31
0.0
  0
LINE
  5
252
100
AcDbEntity
100
AcDbLine
  8
0
 62
256
370
-1
 48
1.0
  6
BYLAYER
 10
41.955734436038732
 20
-103.86641671845923
 30
0.0
 11
58.056794436038807
 21
-103.86641671845922
 31
0.0
  0
LINE
  5
253
100
AcDbEntity
100
AcDbLine
  8
0
 62
256
370
-1
 48
1.0
  6
BYLAYER
 10
41.955734436038739
 20
-39.004976718459254
 30
0.0
 11
41.955734436038746
 21
-22.903916718459261
 31
0.0
  0
LINE
  5
254
100
AcDbEntity
100
AcDbLine
  8
0
 62
256
370
-1
 48
1.0
  6
BYLAYER
 10
41.955734436038767
 20
41.957523281540759
 30
0.0
 11
41.955734436038789
 21
58.058583281540749
 31
0.0
  0
LINE
  5
255
100
AcDbEntity
100
AcDbLine
  8
0
 62
256
370
-1
 48
1.0
  6
BYLAYER
 10
58.056794436038778
 20
41.957523281540745
 30
0.0
 11
58.056794436038807
 21
58.05858328154072
 31
0.0
  0
LINE
  5
256
100
AcDbEntity
100
AcDbLine
  8
0
 62
256
370
-1
 48
1.0
  6
BYLAYER
 10
41.955734436038767
 20
41.957523281540759
 30
0.0
 11
58.056794436038778
 21
41.957523281540745
 31
0.0
  0
LINE
  5
257
100
AcDbEntity
100
AcDbLine
  8
0
 62
256
370
-1
 48
1.0
  6
BYLAYER
 10
41.955734436038789
 20
58.058583281540749
 30
0.0
 11
58.056794436038807
 21
58.05858328154072
 31
0.0
  0
LINE
  5
258
100
AcDbEntity
100
AcDbLine
  8
0
 62
256
370
-1
 48
1.0
  6
BYLAYER
 10
41.955734436038803
 20
65.770023281540745
 30
0.0
 11
41.955734436038753
 21
81.871083281540763
 31
0.0
  0
LINE
  5
259
100
AcDbEntity
100
AcDbLine
  8
0
 62
256
370
-1
 48
1.0
  6
BYLAYER
 10
58.056794436038743
 20
65.770023281540787
 30
0.0
 11
58.056794436038807
 21
81.871083281540734
 31
0.0
  0
LINE
  5
25A
100
AcDbEntity
100
AcDbLine
  8
0
 62
256
370
-1
 48
1.0
  6
BYLAYER
 10
41.955734436038803
 20
65.770023281540745
 30
0.0
 11
58.056794436038743
 21
65.770023281540787
 31
0.0
  0
LINE
  5
25B
100
AcDbEntity
100
AcDbLine
  8
0
 62
256
370
-1
 48
1.0
  6
BYLAYER
 10
41.955734436038753
 20
81.871083281540763
 30
0.0
 11
58.056794436038807
 21
81.871083281540734
 31
0.0
  0
LINE
  5
25C
100
AcDbEntity
100
AcDbLine
  8
0
 62
256
370
-1
 48
1.0
  6
BYLAYER
 10
41.95573443603876
 20
89.582523281540773
 30
0.0
 11
41.955734436038753
 21
105.68358328154079
 31
0.0
  0
LINE
  5
25D
100
AcDbEntity
100
AcDbLine
  8
0
 62
256
370
-1
 48
1.0
  6
BYLAYER
 10
58.0567944360388
 20
89.582523281540745
 30
0.0
 11
58.056794436038786
 21
105.68358328154079
 31
0.0
  0
LINE
  5
25E
100
AcDbEntity
100
AcDbLine
  8
0
 62
256
370
-1
 48
1.0
  6
BYLAYER
 10
41.95573443603876
 20
89.582523281540773
 30
0.0
 11
58.0567944360388
 21
89.582523281540745
 31
0.0
  0
LINE
  5
25F
100
AcDbEntity
100
AcDbLine
  8
0
 62
256
370
-1
 48
1.0
  6
BYLAYER
 10
41.955734436038753
 20
105.68358328154079
 30
0.0
 11
58.056794436038786
 21
105.68358328154079
 31
0.0
  0
LINE
  5
260
100
AcDbEntity
100
AcDbLine
  8
0
 62
256
370
-1
 48
1.0
  6
BYLAYER
 10
41.955734436038796
 20
118.15752328154073
 30
0.0
 11
41.95573443603876
 21
134.25858328154078
 31
0.0
  0
LINE
  5
261
100
AcDbEntity
100
AcDbLine
  8
0
 62
256
370
-1
 48
1.0
  6
BYLAYER
 10
58.056794436038835
 20
118.15752328154075
 30
0.0
 11
58.056794436038814
 21
134.25858328154075
 31
0.0
  0
LINE
  5
262
100
AcDbEntity
100
AcDbLine
  8
0
 62
256
370
-1
 48
1.0
  6
BYLAYER
 10
41.955734436038796
 20
118.15752328154073
 30
0.0
 11
58.056794436038835
 21
118.15752328154075
 31
0.0
  0
LINE
  5
263
100
AcDbEntity
100
AcDbLine
  8
0
 62
256
370
-1
 48
1.0
  6
BYLAYER
 10
41.95573443603876
 20
134.25858328154078
 30
0.0
 11
58.056794436038814
 21
134.25858328154075
 31
0.0
  0
LINE
  5
264
100
AcDbEntity
100
AcDbLine
  8
0
 62
256
370
-1
 48
1.0
  6
BYLAYER
 10
41.955734436038753
 20
137.20752328154077
 30
0.0
 11
41.955734436038853
 21
153.30858328154076
 31
0.0
  0
LINE
  5
265
100
AcDbEntity
100
AcDbLine
  8
0
 62
256
370
-1
 48
1.0
  6
BYLAYER
 10
58.056794436038729
 20
137.20752328154077
 30
0.0
 11
58.056794436038736
 21
153.30858328154079
 31
0.0
  0
LINE
  5
266
100
AcDbEntity
100
AcDbLine
  8
0
 62
256
370
-1
 48
1.0
  6
BYLAYER
 10
41.955734436038753
 20
137.20752328154077
 30
0.0
 11
58.056794436038729
 21
137.20752328154077
 31
0.0
  0
LINE
  5
267
100
AcDbEntity
100
AcDbLine
  8
0
 62
256
370
-1
 48
1.0
  6
BYLAYER
 10
41.955734436038853
 20
153.30858328154076
 30
0.0
 11
58.056794436038736
 21
153.30858328154079
 31
0.0
  0
LINE
  5
268
100
AcDbEntity
100
AcDbLine
  8
0
 62
256
370
-1
 48
1.0
  6
BYLAYER
 10
53.967341097363565
 20
-74.199783542598979
 30
0.0
 11
53.967341097363544
 21
-71.684783542598979
 31
0.0
  0
LINE
  5
269
100
AcDbEntity
100
AcDbLine
  8
0
 62
256
370
-1
 48
1.0
  6
BYLAYER
 10
41.955734436038668
 20
156.25752328154073
 30
0.0
 11
41.955734436038767
 21
172.35858328154075
 31
0.0
  0
LINE
  5
26A
100
AcDbEntity
100
AcDbLine
  8
0
 62
256
370
-1
 48
1.0
  6
BYLAYER
 10
53.967341097363544
 20
-71.684783542598979
 30
0.0
 11
59.02484109736357
 21
-71.684783542598964
 31
0.0
  0
LINE
  5
26B
100
AcDbEntity
100
AcDbLine
  8
0
 62
256
370
-1
 48
1.0
  6
BYLAYER
 10
58.056794436038807
 20
156.2575232815407
 30
0.0
 11
58.056794436038757
 21
172.35858328154075
 31
0.0
  0
LINE
  5
26C
100
AcDbEntity
100
AcDbLine
  8
0
 62
256
370
-1
 48
1.0
  6
BYLAYER
 10
59.02484109736357
 20
-71.684783542598964
 30
0.0
 11
59.024841097363527
 21
-74.199783542599008
 31
0.0
  0
LINE
  5
26D
100
AcDbEntity
100
AcDbLine
  8
0
 62
256
370
-1
 48
1.0
  6
BYLAYER
 10
41.955734436038668
 20
156.25752328154073
 30
0.0
 11
58.056794436038807
 21
156.2575232815407
 31
0.0
  0
LINE
  5
26E
100
AcDbEntity
100
AcDbLine
  8
0
 62
256
370
-1
 48
1.0
  6
BYLAYER
 10
53.967341097363565
 20
-74.199783542598979
 30
0.0
 11
59.024841097363527
 21
-74.199783542599008
 31
0.0
  0
LINE
  5
26F
100
AcDbEntity
100
AcDbLine
  8
0
 62
256
370
-1
 48
1.0
  6
BYLAYER
 10
41.955734436038767
 20
172.35858328154075
 30
0.0
 11
58.056794436038757
 21
172.35858328154075
 31
0.0
  0
LINE
  5
270
100
AcDbEntity
100
AcDbLine
  8
0
 62
256
370
-1
 48
1.0
  6
BYLAYER
 10
53.96734109736358
 20
12.315216457400988
 30
0.0
 11
53.967341097363573
 21
9.8002164574010351
 31
0.0
  0
LINE
  5
271
100
AcDbEntity
100
AcDbLine
  8
0
 62
256
370
-1
 48
1.0
  6
BYLAYER
 10
53.967341097363573
 20
9.8002164574010351
 30
0.0
 11
59.024841097363563
 21
9.800216457401012
 31
0.0
  0
LINE
  5
272
100
AcDbEntity
100
AcDbLine
  8
0
 62
256
370
-1
 48
1.0
  6
BYLAYER
 10
59.024841097363563
 20
9.800216457401012
 30
0.0
 11
59.02484109736357
 21
12.315216457400979
 31
0.0
  0
LINE
  5
273
100
AcDbEntity
100
AcDbLine
  8
0
 62
256
370
-1
 48
1.0
  6
BYLAYER
 10
53.96734109736358
 20
12.315216457400988
 30
0.0
 11
59.02484109736357
 21
12.315216457400979
 31
0.0
  0
CIRCLE
  5
274
100
AcDbEntity
100
AcDbCircle
  8
0
 62
256
370
-1
 48
1.0
  6
BYLAYER
 10
50.016534604006402
 20
-65.772283542598984
 30
0.0
 40
3.125
  0
CIRCLE
  5
275
100
AcDbEntity
100
AcDbCircle
  8
0
 62
256
370
-1
 48
1.0
  6
BYLAYER
 10
50.016534604006424
 20
3.8877164574010212
 30
0.0
 40
3.125
  0
LINE
  5
276
100
AcDbEntity
100
AcDbLine
  8
0
 62
256
370
-1
 48
1.0
  6
BYLAYER
 10
48.916534604006443
 20
-70.64728354259907
 30
0.0
 11
48.916534604006422
 21
-72.847283542599087
 31
0.0
  0
LINE
  5
277
100
AcDbEntity
100
AcDbLine
  8
0
 62
256
370
-1
 48
1.0
  6
BYLAYER
 10
48.916534604006422
 20
-72.847283542599087
 30
0.0
 11
51.116534604006389
 21
-72.847283542599101
 31
0.0
  0
LINE
  5
278
100
AcDbEntity
100
AcDbLine
  8
0
 62
256
370
-1
 48
1.0
  6
BYLAYER
 10
51.116534604006389
 20
-72.847283542599101
 30
0.0
 11
51.116534604006382
 21
-70.647283542599112
 31
0.0
  0
LINE
  5
279
100
AcDbEntity
100
AcDbLine
  8
0
 62
256
370
-1
 48
1.0
  6
BYLAYER
 10
48.916534604006443
 20
-70.64728354259907
 30
0.0
 11
51.116534604006382
 21
-70.647283542599112
 31
0.0
  0
LINE
  5
27A
100
AcDbEntity
100
AcDbLine
  8
0
 62
256
370
-1
 48
1.0
  6
BYLAYER
 10
48.916534604006394
 20
-60.897283542599105
 30
0.0
 11
48.916534604006387
 21
-58.697283542599088
 31
0.0
  0
LINE
  5
27B
100
AcDbEntity
100
AcDbLine
  8
0
 62
256
370
-1
 48
1.0
  6
BYLAYER
 10
48.916534604006387
 20
-58.697283542599088
 30
0.0
 11
51.116534604006404
 21
-58.697283542599102
 31
0.0
  0
LINE
  5
27C
100
AcDbEntity
100
AcDbLine
  8
0
 62
256
370
-1
 48
1.0
  6
BYLAYER
 10
51.116534604006404
 20
-58.697283542599102
 30
0.0
 11
51.116534604006411
 21
-60.897283542599098
 31
0.0
  0
LINE
  5
27D
100
AcDbEntity
100
AcDbLine
  8
0
 62
256
370
-1
 48
1.0
  6
BYLAYER
 10
51.116534604006411
 20
-60.897283542599098
 30
0.0
 11
48.916534604006394
 21
-60.897283542599105
 31
0.0
  0
LINE
  5
27E
100
AcDbEntity
100
AcDbLine
  8
0
 62
256
370
-1
 48
1.0
  6
BYLAYER
 10
48.916534604006429
 20
8.7627164574009146
 30
0.0
 11
48.916534604006429
 21
10.962716457401008
 31
0.0
  0
LINE
  5
27F
100
AcDbEntity
100
AcDbLine
  8
0
 62
256
370
-1
 48
1.0
  6
BYLAYER
 10
48.916534604006429
 20
10.962716457401008
 30
0.0
 11
51.116534604006432
 21
10.962716457401001
 31
0.0
  0
LINE
  5
280
100
AcDbEntity
100
AcDbLine
  8
0
 62
256
370
-1
 48
1.0
  6
BYLAYER
 10
51.116534604006432
 20
10.962716457401001
 30
0.0
 11
51.116534604006439
 21
8.762716457400888
 31
0.0
  0
LINE
  5
281
100
AcDbEntity
100
AcDbLine
  8
0
 62
256
370
-1
 48
1.0
  6
BYLAYER
 10
48.916534604006429
 20
8.7627164574009146
 30
0.0
 11
51.116534604006439
 21
8.762716457400888
 31
0.0
  0
LINE
  5
282
100
AcDbEntity
100
AcDbLine
  8
0
 62
256
370
-1
 48
1.0
  6
BYLAYER
 10
48.916534604006429
 20
-0.9872835425991025
 30
0.0
 11
48.916534604006429
 21
-3.1872835425989878
 31
0.0
  0
LINE
  5
283
100
AcDbEntity
100
AcDbLine
  8
0
 62
256
370
-1
 48
1.0
  6
BYLAYER
 10
48.916534604006429
 20
-3.1872835425989878
 30
0.0
 11
51.116534604006432
 21
-3.187283542598998
 31
0.0
  0
LINE
  5
284
100
AcDbEntity
100
AcDbLine
  8
0
 62
256
370
-1
 48
1.0
  6
BYLAYER
 10
51.116534604006432
 20
-3.187283542598998
 30
0.0
 11
51.116534604006432
 21
-0.9872835425990739
 31
0.0
  0
LINE
  5
285
100
AcDbEntity
100
AcDbLine
  8
0
 62
256
370
-1
 48
1.0
  6
BYLAYER
 10
48.916534604006429
 20
-0.9872835425991025
 30
0.0
 11
51.116534604006432
 21
-0.9872835425990739
 31
0.0
  0
LINE
  5
286
100
AcDbEntity
100
AcDbLine
  8
0
 62
256
370
-1
 48
1.0
  6
BYLAYER
 10
58.05679443603875
 20
-39.004976999999997
 30
0.0
 11
58.056794436038764
 21
-22.903917
 31
0.0
  0
LINE
  5
287
100
AcDbEntity
100
AcDbLine
  8
0
 62
256
370
-1
 48
1.0
  6
BYLAYER
 10
-18.143205563961224
 20
84.821293281540704
 30
0.0
 11
-18.143205563961196
 21
100.91981328154077
 31
0.0
  0
LINE
  5
288
100
AcDbEntity
100
AcDbLine
  8
0
 62
256
370
-1
 48
1.0
  6
BYLAYER
 10
19.956794436038763
 20
82.440043281540767
 30
0.0
 11
19.956794436038898
 21
98.538563281540789
 31
0.0
  0
LINE
  5
289
100
AcDbEntity
100
AcDbLine
  8
0
 62
256
370
-1
 48
1.0
  6
BYLAYER
 10
22.905734436038809
 20
77.677543281540707
 30
0.0
 11
39.006794436038824
 21
77.677543281540693
 31
0.0
  0
LINE
  5
28A
100
AcDbEntity
100
AcDbLine
  8
0
 62
256
370
-1
 48
1.0
  6
BYLAYER
 10
3.8557344360387225
 20
82.440043281540767
 30
0.0
 11
19.956794436038763
 21
82.440043281540767
 31
0.0
  0
LINE
  5
28B
100
AcDbEntity
100
AcDbLine
  8
0
 62
256
370
-1
 48
1.0
  6
BYLAYER
 10
-34.244265563961235
 20
84.821293281540704
 30
0.0
 11
-18.143205563961224
 21
84.821293281540704
 31
0.0
  0
LINE
  5
28C
100
AcDbEntity
100
AcDbLine
  8
0
 62
256
370
-1
 48
1.0
  6
BYLAYER
 10
3.8557344360387287
 20
98.538563281540803
 30
0.0
 11
19.956794436038898
 21
98.538563281540789
 31
0.0
  0
LINE
  5
28D
100
AcDbEntity
100
AcDbLine
  8
0
 62
256
370
-1
 48
1.0
  6
BYLAYER
 10
22.905734436038689
 20
-160.44745671845922
 30
0.0
 11
22.905734436038689
 21
-144.34893671845924
 31
0.0
  0
LINE
  5
28E
100
AcDbEntity
100
AcDbLine
  8
0
 62
256
370
-1
 48
1.0
  6
BYLAYER
 10
39.006794436038518
 20
-160.44745671845928
 30
0.0
 11
39.00679443603866
 21
-144.34893671845927
 31
0.0
  0
LINE
  5
28F
100
AcDbEntity
100
AcDbLine
  8
0
 62
256
370
-1
 48
1.0
  6
BYLAYER
 10
22.905734436038689
 20
-160.44745671845922
 30
0.0
 11
39.006794436038518
 21
-160.44745671845928
 31
0.0
  0
LINE
  5
290
100
AcDbEntity
100
AcDbLine
  8
0
 62
256
370
-1
 48
1.0
  6
BYLAYER
 10
22.905734436038689
 20
-144.34893671845924
 30
0.0
 11
39.00679443603866
 21
-144.34893671845927
 31
0.0
  0
LINE
  5
291
100
AcDbEntity
100
AcDbLine
  8
0
 62
256
370
-1
 48
1.0
  6
BYLAYER
 10
41.95573443603876
 20
-39.004976718459275
 30
0.0
 11
58.056794436038736
 21
-39.004976718459304
 31
0.0
  0
LINE
  5
292
100
AcDbEntity
100
AcDbLine
  8
0
 62
256
370
-1
 48
1.0
  6
BYLAYER
 10
41.955734436038767
 20
-22.903916718459271
 30
0.0
 11
58.056794436038743
 21
-22.9039167184593
 31
0.0
  0
LINE
  5
293
100
AcDbEntity
100
AcDbLine
  8
0
 62
256
370
-1
 48
1.0
  6
BYLAYER
 10
-56.504975642030956
 20
118.15752328154076
 30
0.0
 11
-41.955705563961196
 21
118.15752328154076
 31
0.0
  0
LINE
  5
294
100
AcDbEntity
100
AcDbLine
  8
0
 62
256
370
-1
 48
1.0
  6
BYLAYER
 10
-58.056765563961221
 20
118.49755098520082
 30
0.0
 11
-58.056765563961235
 21
134.25858328154081
 31
0.0
  0
LINE
  5
295
100
AcDbEntity
100
AcDbLine
  8
0
 62
256
370
-1
 48
1.0
  6
BYLAYER
 10
-58.531234731181364
 20
118.49755098520076
 30
0.0
 11
-58.05676556396125
 21
118.49755098520075
 31
0.0
  0
ARC
  5
296
100
AcDbEntity
  8
0
 62
256
370
-1
 48
1.0
  6
BYLAYER
100
AcDbCircle
 10
-57.256265575261381
 20
117.49755098368064
 30
0.0
 40
1.0
100
AcDbArc
 50
0.0
 51
41.297760160947085
  0
ARC
  5
297
100
AcDbEntity
  8
0
 62
256
370
-1
 48
1.0
  6
BYLAYER
100
AcDbCircle
 10
-57.256265586969896
 20
111.10889620557538
 30
0.0
 40
1.0000000117085419
100
AcDbArc
 50
318.4852437404902
 51
359.99999964735719
  0
LINE
  5
298
100
AcDbEntity
100
AcDbLine
  8
0
 62
256
370
-1
 48
1.0
  6
BYLAYER
 10
-58.056765563961235
 20
110.10889620044088
 30
0.0
 11
-58.056765563961214
 21
94.345023281540819
 31
0.0
  0
LINE
  5
299
100
AcDbEntity
100
AcDbLine
  8
0
 62
256
370
-1
 48
1.0
  6
BYLAYER
 10
-56.507480536938999
 20
110.44608328154078
 30
0.0
 11
-41.955705563961232
 21
110.44608328154078
 31
0.0
  0
LINE
  5
29A
100
AcDbEntity
100
AcDbLine
  8
0
 62
256
370
-1
 48
1.0
  6
BYLAYER
 10
-58.056765563961235
 20
110.10889620044088
 30
0.0
 11
-58.531234731181421
 21
110.10889619892039
 31
0.0
  0
ENDSEC
  0
SECTION
  2
OBJECTS
  0
DICTIONARY
  5
C
100
AcDbDictionary
280
0
281
1
  3
ACAD_GROUP
350
D
  3
ACAD_LAYOUT
350
1A
  3
ACAD_MLINESTYLE
350
17
  3
ACAD_PLOTSETTINGS
350
19
  3
ACAD_PLOTSTYLENAME
350
E
  3
AcDbVariableDictionary
350
29B
  3
QCAD_OBJECTS
350
29C
  0
DICTIONARY
  5
D
100
AcDbDictionary
280
0
281
1
  0
ACDBDICTIONARYWDFLT
  5
E
100
AcDbDictionary
281
1
  3
Normal
350
F
100
AcDbDictionaryWithDefault
340
F
  0
ACDBPLACEHOLDER
  5
F
  0
DICTIONARY
  5
17
100
AcDbDictionary
280
0
281
1
  3
Standard
350
18
  0
MLINESTYLE
  5
18
100
AcDbMlineStyle
  2
STANDARD
 70
0
  3

 62
256
 51
90.0
 52
90.0
 71
2
 49
0.5
 62
256
  6
BYLAYER
 49
-0.5
 62
256
  6
BYLAYER
  0
DICTIONARY
  5
19
100
AcDbDictionary
280
0
281
1
  0
DICTIONARY
  5
1A
100
AcDbDictionary
281
1
  3
Layout1
350
1E
  3
Layout2
350
26
  3
Model
350
22
  0
LAYOUT
  5
1E
100
AcDbPlotSettings
  1

  2
none_device
  4

  6

 40
0.0
 41
0.0
 42
0.0
 43
0.0
 44
0.0
 45
0.0
 46
0.0
 47
0.0
 48
0.0
 49
0.0
140
0.0
141
0.0
142
1.0
143
1.0
 70
688
 72
0
 73
0
 74
5
  7

 75
16
147
1.0
148
0.0
149
0.0
100
AcDbLayout
  1
Layout1
 70
1
 71
1
 10
0.0
 20
0.0
 11
420.0
 21
297.0
 12
0.0
 22
0.0
 32
0.0
 14
100000000000000000000.0
 24
100000000000000000000.0
 34
100000000000000000000.0
 15
-100000000000000000000.0
 25
-100000000000000000000.0
 35
-100000000000000000000.0
146
0.0
 13
0.0
 23
0.0
 33
0.0
 16
1.0
 26
0.0
 36
0.0
 17
0.0
 27
1.0
 37
0.0
 76
0
330
1B
  0
LAYOUT
  5
22
100
AcDbPlotSettings
  1

  2
none_device
  4

  6

 40
0.0
 41
0.0
 42
0.0
 43
0.0
 44
0.0
 45
0.0
 46
0.0
 47
0.0
 48
0.0
 49
0.0
140
0.0
141
0.0
142
1.0
143
1.0
 70
1712
 72
0
 73
0
 74
0
  7

 75
0
147
1.0
148
0.0
149
0.0
100
AcDbLayout
  1
Model
 70
1
 71
0
 10
0.0
 20
0.0
 11
12.0
 21
9.0
 12
0.0
 22
0.0
 32
0.0
 14
0.0
 24
0.0
 34
0.0
 15
0.0
 25
0.0
 35
0.0
146
0.0
 13
0.0
 23
0.0
 33
0.0
 16
1.0
 26
0.0
 36
0.0
 17
0.0
 27
1.0
 37
0.0
 76
0
330
1F
  0
LAYOUT
  5
26
100
AcDbPlotSettings
  1

  2
none_device
  4

  6

 40
0.0
 41
0.0
 42
0.0
 43
0.0
 44
0.0
 45
0.0
 46
0.0
 47
0.0
 48
0.0
 49
0.0
140
0.0
141
0.0
142
1.0
143
1.0
 70
688
 72
0
 73
0
 74
5
  7

 75
16
147
1.0
148
0.0
149
0.0
100
AcDbLayout
  1
Layout2
 70
1
 71
2
 10
0.0
 20
0.0
 11
12.0
 21
9.0
 12
0.0
 22
0.0
 32
0.0
 14
0.0
 24
0.0
 34
0.0
 15
0.0
 25
0.0
 35
0.0
146
0.0
 13
0.0
 23
0.0
 33
0.0
 16
1.0
 26
0.0
 36
0.0
 17
0.0
 27
1.0
 37
0.0
 76
0
330
23
  0
DICTIONARY
  5
29B
100
AcDbDictionary
281
1
  3
DIMASSOC
350
29E
  3
HIDETEXT
350
29D
  0
DICTIONARYVAR
  5
29D
100
DictionaryVariables
280
0
  1
2
  0
DICTIONARYVAR
  5
29E
100
DictionaryVariables
280
0
  1
1
  0
DICTIONARY
  5
29C
100
AcDbDictionary
281
1
  3
ColorSettings/BackgroundColor
350
29F
  3
ColorSettings/ColorMode
350
2A0
  3
Grid/DisplayGrid00
350
2A1
  3
Grid/DisplayGrid01
350
2A2
  3
Grid/DisplayGrid02
350
2A3
  3
Grid/DisplayGrid03
350
2A4
  3
Grid/GridSpacingX00
350
2A5
  3
Grid/GridSpacingX01
350
2A6
  3
Grid/GridSpacingX02
350
2A7
  3
Grid/GridSpacingX03
350
2A8
  3
Grid/GridSpacingY00
350
2A9
  3
Grid/GridSpacingY01
350
2AA
  3
Grid/GridSpacingY02
350
2AB
  3
Grid/GridSpacingY03
350
2AC
  3
Grid/IsometricGrid00
350
2AD
  3
Grid/IsometricGrid01
350
2AE
  3
Grid/IsometricGrid02
350
2AF
  3
Grid/IsometricGrid03
350
2B0
  3
Grid/IsometricProjection00
350
2B1
  3
Grid/IsometricProjection01
350
2B2
  3
Grid/IsometricProjection02
350
2B3
  3
Grid/IsometricProjection03
350
2B4
  3
Grid/MetaGridSpacingX00
350
2B5
  3
Grid/MetaGridSpacingX01
350
2B6
  3
Grid/MetaGridSpacingX02
350
2B7
  3
Grid/MetaGridSpacingX03
350
2B8
  3
Grid/MetaGridSpacingY00
350
2B9
  3
Grid/MetaGridSpacingY01
350
2BA
  3
Grid/MetaGridSpacingY02
350
2BB
  3
Grid/MetaGridSpacingY03
350
2BC
  3
MultiPageSettings/Columns
350
2BD
  3
MultiPageSettings/GlueMarginsBottom
350
2BE
  3
MultiPageSettings/GlueMarginsLeft
350
2BF
  3
MultiPageSettings/GlueMarginsRight
350
2C0
  3
MultiPageSettings/GlueMarginsTop
350
2C1
  3
MultiPageSettings/PrintCropMarks
350
2C2
  3
MultiPageSettings/Rows
350
2C3
  3
PageSettings/OffsetX
350
2C4
  3
PageSettings/OffsetY
350
2C5
  3
PageSettings/PageOrientation
350
2C6
  3
PageSettings/PaperHeight
350
2C7
  3
PageSettings/PaperWidth
350
2C8
  3
PageSettings/Scale
350
2C9
  3
PageSettings/ShowPaperBorders
350
2CA
  3
QCADVersion
350
2CB
  3
UnitSettings/PaperUnit
350
2CC
  3
ViewportCenter
350
2CD
  3
ViewportHeight
350
2CE
  3
ViewportWidth
350
2CF
  0
XRECORD
  5
29F
330
29C
100
AcDbXrecord
280
1
1000
White
  0
XRECORD
  5
2A0
330
29C
100
AcDbXrecord
280
1
1000
FullColor
  0
XRECORD
  5
2A1
330
29C
100
AcDbXrecord
280
1
290
1
  0
XRECORD
  5
2A2
330
29C
100
AcDbXrecord
280
1
290
1
  0
XRECORD
  5
2A3
330
29C
100
AcDbXrecord
280
1
290
1
  0
XRECORD
  5
2A4
330
29C
100
AcDbXrecord
280
1
290
1
  0
XRECORD
  5
2A5
330
29C
100
AcDbXrecord
280
1
1000
auto
  0
XRECORD
  5
2A6
330
29C
100
AcDbXrecord
280
1
1000
auto
  0
XRECORD
  5
2A7
330
29C
100
AcDbXrecord
280
1
1000
auto
  0
XRECORD
  5
2A8
330
29C
100
AcDbXrecord
280
1
1000
auto
  0
XRECORD
  5
2A9
330
29C
100
AcDbXrecord
280
1
1000
auto
  0
XRECORD
  5
2AA
330
29C
100
AcDbXrecord
280
1
1000
auto
  0
XRECORD
  5
2AB
330
29C
100
AcDbXrecord
280
1
1000
auto
  0
XRECORD
  5
2AC
330
29C
100
AcDbXrecord
280
1
1000
auto
  0
XRECORD
  5
2AD
330
29C
100
AcDbXrecord
280
1
290
0
  0
XRECORD
  5
2AE
330
29C
100
AcDbXrecord
280
1
290
0
  0
XRECORD
  5
2AF
330
29C
100
AcDbXrecord
280
1
290
0
  0
XRECORD
  5
2B0
330
29C
100
AcDbXrecord
280
1
290
0
  0
XRECORD
  5
2B1
330
29C
100
AcDbXrecord
280
1
 90
0
  0
XRECORD
  5
2B2
330
29C
100
AcDbXrecord
280
1
 90
0
  0
XRECORD
  5
2B3
330
29C
100
AcDbXrecord
280
1
 90
0
  0
XRECORD
  5
2B4
330
29C
100
AcDbXrecord
280
1
 90
0
  0
XRECORD
  5
2B5
330
29C
100
AcDbXrecord
280
1
1000
auto
  0
XRECORD
  5
2B6
330
29C
100
AcDbXrecord
280
1
1000
auto
  0
XRECORD
  5
2B7
330
29C
100
AcDbXrecord
280
1
1000
auto
  0
XRECORD
  5
2B8
330
29C
100
AcDbXrecord
280
1
1000
auto
  0
XRECORD
  5
2B9
330
29C
100
AcDbXrecord
280
1
1000
auto
  0
XRECORD
  5
2BA
330
29C
100
AcDbXrecord
280
1
1000
auto
  0
XRECORD
  5
2BB
330
29C
100
AcDbXrecord
280
1
1000
auto
  0
XRECORD
  5
2BC
330
29C
100
AcDbXrecord
280
1
1000
auto
  0
XRECORD
  5
2BD
330
29C
100
AcDbXrecord
280
1
 90
1
  0
XRECORD
  5
2BE
330
29C
100
AcDbXrecord
280
1
 40
10.0
  0
XRECORD
  5
2BF
330
29C
100
AcDbXrecord
280
1
 40
10.0
  0
XRECORD
  5
2C0
330
29C
100
AcDbXrecord
280
1
 40
10.0
  0
XRECORD
  5
2C1
330
29C
100
AcDbXrecord
280
1
 40
10.0
  0
XRECORD
  5
2C2
330
29C
100
AcDbXrecord
280
1
290
0
  0
XRECORD
  5
2C3
330
29C
100
AcDbXrecord
280
1
 90
1
  0
XRECORD
  5
2C4
330
29C
100
AcDbXrecord
280
1
 40
0.0
  0
XRECORD
  5
2C5
330
29C
100
AcDbXrecord
280
1
 40
0.0
  0
XRECORD
  5
2C6
330
29C
100
AcDbXrecord
280
1
1000
Portrait
  0
XRECORD
  5
2C7
330
29C
100
AcDbXrecord
280
1
 40
279.39999999999998
  0
XRECORD
  5
2C8
330
29C
100
AcDbXrecord
280
1
 40
215.90000000000001
  0
XRECORD
  5
2C9
330
29C
100
AcDbXrecord
280
1
1000
1:1
  0
XRECORD
  5
2CA
330
29C
100
AcDbXrecord
280
1
290
1
  0
XRECORD
  5
2CB
330
29C
100
AcDbXrecord
280
1
1000
3.15.5
  0
XRECORD
  5
2CC
330
29C
100
AcDbXrecord
280
1
 90
4
  0
XRECORD
  5
2CE
330
29C
100
AcDbXrecord
280
1
 40
1.7919744620252516
  0
XRECORD
  5
2CF
330
29C
100
AcDbXrecord
280
1
 40
3.8969575637055698
  0
ENDSEC
  0
EOF
